<?xml version="1.0" standalone="no"?>
<!DOCTYPE svg PUBLIC "-//W3C//DTD SVG 1.1//EN" "http://www.w3.org/Graphics/SVG/1.1/DTD/svg11.dtd" >
<svg>
<metadata>
Created by FontForge 20090622 at Thu Jun  2 01:20:21 2016
 By deploy user
Copyright (c) 2009 by Fabrizio Schiavi - http://www.fsd.it/. All rights reserved.
</metadata>
<defs>
<font id="PragmataPro" horiz-adv-x="1024" >
  <font-face 
    font-family="PragmataPro"
    font-weight="400"
    font-stretch="normal"
    units-per-em="2048"
    panose-1="2 0 5 0 3 0 0 2 0 4"
    ascent="1638"
    descent="-410"
    x-height="1132"
    cap-height="1526"
    bbox="-162 -363 3903 1885"
    underline-thickness="60"
    underline-position="-275"
    unicode-range="U+000D-U+1F8AB"
  />
<missing-glyph 
d="M771 886q0 -84 -34 -122.5t-155 -38.5q-122 0 -151.5 34t-35.5 79q-5 -45 -35 -79t-151 -34q-122 0 -155.5 38.5t-33.5 122.5q0 83 33.5 120.5t155.5 37.5q121 0 151 -33t35 -97q6 64 35.5 97t151.5 33q121 0 155 -37.5t34 -120.5zM44 99v161q148 -152 372 -152
q183 0 294.5 111.5t111.5 343.5v239h152v-239q0 -273 -150.5 -427.5t-407.5 -156.5q-230 0 -372 120zM708 631q-47 -356 -313 -356q-265 0 -312 356q120 -176 312 -176q193 0 313 176zM44 1415q63 7 110 17q50 10 89.5 22.5t73 28t67.5 35l86 48.5q-30 33 -62 55
q-46 31 -102 31q-35 0 -72.5 -24t-70.5 -54t-55 -56t-64 -70v186q57 56 97 83t81.5 43.5t83.5 16.5q73 0 132 -30.5t109 -81.5q19 -20 36 -41q37 13 71 13q33 0 68 -13q4 15 9 30q17 56 17 110v78h125v-78q0 -69 -20 -140q-10 -34 -23 -67q20 -16 41 -37q63 -57 144 -148
l-92 -84l-118 127l-32 33q-20 -31 -44 -59l52 -102q31 -64 62 -114.5t63 -81t68 -30.5v-126q-58 0 -106 31t-88 81t-75.5 114.5l-69.5 131.5q-24 -19 -51 -35q-66 -44 -144.5 -69.5t-166.5 -25.5q-33 0 -70 9t-72.5 24.5t-86.5 45.5v173zM547 1460q-5 -4 -10 -7
q-43 -27 -112 -61q-67 -33 -158 -61q-39 -11 -83 -21l26 -10q32 -11 63 -11q68 0 129.5 20t113.5 55q32 20 59 45zM271 886q0 52 -62 52t-62 -52q0 -54 62 -54t62 54zM645 886q0 52 -63 52q-61 0 -61 -52q0 -54 61 -54q63 0 63 54z" />
    <glyph glyph-name="LamAlefMadda.isol" unicode="&#xfedf;&#xfe82;" arabic-form="isolated" 
d="M581 77q-221 0 -221 184q0 108 98 247l94 137q-132 344 -416 678h188q217 -255 323 -543q77 108 77 524v222h151v-222q0 -417 -143 -637l-24 -37q103 -266 103 -379q0 -88 -69 -131t-161 -43zM611 490l-43 -69q-57 -90 -57 -122q0 -48 68 -48q81 0 81 48q-4 78 -49 191z
M652 1628q-83 -157 -216 -157q-47 0 -98 28l-82 42l-46 -79l-98 60l109 177l114 -59q50 -27 101 -27q65 0 113 78z" />
    <glyph glyph-name="LamAlefMadda.fina" unicode="&#xfee0;&#xfe82;" arabic-form="final" 
d="M653 230q-141 -153 -382 -153h-184v193h155q179 0 179 234q0 175 -65 338l-192 481h167l168 -430q73 -189 73 -353q0 -78 -20 -155q87 93 87 320v821h148v-923q0 -333 172 -333h84v-173h-107q-209 0 -283 133zM623 1628q-83 -157 -216 -157q-47 0 -98 28l-82 42l-46 -79
l-98 60l109 177l114 -59q50 -27 101 -27q65 0 113 78z" />
    <glyph glyph-name="LamAlefHamza.isol" unicode="&#xfedf;&#xfe84;" arabic-form="isolated" 
d="M816 525q-3 -448 -496 -448h-233v193h165q90 0 129.5 40.5t39.5 152.5q0 139 -67 331l-190 529h173l160 -481q87 -258 87 -379q0 -100 -24 -154q108 63 108 268v949h148v-1001zM536 1435h-437v91h102v90q0 137 129 137h159v-91h-124q-45 0 -44 -47v-89h215v-91z" />
    <glyph glyph-name="LamAlefHamza.fina" unicode="&#xfee0;&#xfe84;" arabic-form="final" 
d="M653 230q-141 -153 -382 -153h-184v193h155q179 0 179 234q0 175 -65 338l-192 481h167l168 -430q73 -189 73 -353q0 -78 -20 -155q87 93 87 320v821h148v-923q0 -333 172 -333h84v-173h-107q-209 0 -283 133zM547 1433h-437v92h102v90q0 137 129 137h158v-91h-123
q-46 0 -45 -47v-89h216v-92z" />
    <glyph glyph-name="LamAlefHamzaB.isol" unicode="&#xfedf;&#xfe88;" arabic-form="isolated" 
d="M816 525q-3 -448 -496 -448h-233v193h165q90 0 129.5 40.5t39.5 152.5q0 139 -67 331l-190 529h173l160 -481q87 -258 87 -379q0 -100 -24 -154q108 63 108 268v949h148v-1001zM595 -353h-437v92h102v90q0 137 129 137h159v-91h-124q-45 0 -44 -47v-89h215v-92z" />
    <glyph glyph-name="LamAlefHamzaB.fina" unicode="&#xfee0;&#xfe88;" arabic-form="final" 
d="M653 230q-141 -153 -382 -153h-184v193h155q179 0 179 234q0 175 -65 338l-192 481h167l168 -430q73 -189 73 -353q0 -78 -20 -155q87 93 87 320v821h148v-923q0 -333 172 -333h84v-173h-107q-209 0 -283 133zM624 -353h-437v92h102v90q0 137 129 137h158v-91h-123
q-46 0 -45 -47v-89h216v-92z" />
    <glyph glyph-name="LamAlef.isol" unicode="&#xfedf;&#xfe8e;" arabic-form="isolated" 
d="M581 77q-221 0 -221 184q0 108 98 247l94 137q-132 344 -416 678h188q217 -255 323 -543q77 108 77 524v222h151v-222q0 -417 -143 -637l-24 -37q103 -266 103 -379q0 -88 -69 -131t-161 -43zM611 490l-43 -69q-57 -90 -57 -122q0 -48 68 -48q81 0 81 48q-4 78 -49 191z
" />
    <glyph glyph-name="LamAlef.fina" unicode="&#xfee0;&#xfe8e;" arabic-form="final" 
d="M653 230q-141 -153 -382 -153h-184v193h155q179 0 179 234q0 175 -65 338l-192 481h167l168 -430q73 -189 73 -353q0 -78 -20 -155q87 93 87 320v821h148v-923q0 -333 172 -333h84v-173h-107q-209 0 -283 133z" />
    <glyph glyph-name="LamLam.init" unicode="&#xfedf;&#xfee0;" 
d="M543 97q-175 0 -250 63q-106 -63 -247 -63h-65v173h74q98 0 137 42.5t39 128.5q0 463 -29 1085h151q29 -622 29 -1114q0 -142 161 -142q185 2 185 163q0 471 -29 1093h151q29 -622 29 -1093q0 -177 -82.5 -256.5t-253.5 -79.5z" />
    <glyph glyph-name="AlefMaksuraAlef.liga" unicode="&#x649;&#x670;" arabic-form="isolated" 
d="M501 -184h57q209 0 209 214q0 112 -109 140q-169 43 -169 291q0 192 80.5 300t190.5 108q101 0 167 -74l-78 -125q-42 28 -79 28q-62 0 -96.5 -56t-34.5 -145q0 -136 93 -159q186 -48 186 -289q0 -406 -384 -406h-40q-368 0 -368 417q0 139 25 423h148q-23 -284 -23 -423
q0 -244 225 -244zM344 805h-111v429h111v-429z" />
    <glyph glyph-name="ShaddaKastratan" unicode="&#x651;&#x64d;" arabic-form="isolated" 
d="M733 1874q16 -47 16 -101q0 -88 -39 -141.5t-105 -53.5q-70 0 -95 70q-39 -105 -126 -105q-110 0 -110 138q0 54 23 120h76q-6 -40 -6 -64q0 -72 39 -72q63 0 75 168h78q0 -135 61 -135q41 0 41 104q0 29 -5 72h77zM709 1412l-393 -123v102l393 124v-103zM709 1231
l-393 -124v102l393 124v-102z" />
    <glyph glyph-name="ShaddaDammatan" unicode="&#x651;&#x64c;" arabic-form="isolated" 
d="M733 1411q16 -47 16 -101q0 -88 -39 -141.5t-105 -53.5q-70 0 -95 70q-39 -105 -126 -105q-110 0 -110 138q0 54 23 120h76q-6 -40 -6 -64q0 -72 39 -72q63 0 75 168h78q0 -135 61 -135q41 0 41 104q0 29 -5 72h77zM356 1779q22 -60 22 -129q0 -37 -6 -74l120 55
q-41 66 -41 117q0 59 41.5 97.5t115.5 38.5q71 0 114 -38.5t43 -97.5q0 -101 -95 -141l-39 -18l45 -72l-87 -44l-47 75l-283 -129q21 105 21 197q0 91 -21 163h97zM665 1739q0 18 -18 28.5t-42 10.5t-39 -10.5t-15 -28.5q0 -21 12 -41l17 -27l45 20q40 18 40 48z" />
    <glyph glyph-name="ShaddaFatha" unicode="&#x651;&#x64e;" arabic-form="isolated" 
d="M733 1625q16 -47 16 -101q0 -88 -39 -141.5t-105 -53.5q-70 0 -95 70q-39 -105 -126 -105q-110 0 -110 138q0 54 23 120h76q-6 -40 -6 -64q0 -72 39 -72q63 0 75 168h78q0 -135 61 -135q41 0 41 104q0 29 -5 72h77zM708 1781l-393 -123v102l393 124v-103z" />
    <glyph glyph-name="ShaddaDamma" unicode="&#x651;&#x64f;" arabic-form="isolated" 
d="M733 1437q16 -47 16 -101q0 -88 -39 -141.5t-105 -53.5q-70 0 -95 70q-39 -105 -126 -105q-110 0 -110 138q0 54 23 120h76q-6 -40 -6 -64q0 -72 39 -72q63 0 75 168h78q0 -135 61 -135q41 0 41 104q0 29 -5 72h77zM765 1748q0 -101 -95 -141l-39 -18l45 -72l-87 -44
l-47 75l-283 -129v105l233 107q-41 66 -41 117q0 59 41.5 97.5t115.5 38.5q71 0 114 -38.5t43 -97.5zM665 1739q0 18 -18 28.5t-42 10.5t-39 -10.5t-15 -28.5q0 -20 12 -41l17 -27l45 20q40 20 40 48z" />
    <glyph glyph-name="ShaddaKasra" unicode="&#x651;&#x650;" arabic-form="isolated" 
d="M733 1874q16 -47 16 -101q0 -88 -39 -141.5t-105 -53.5q-70 0 -95 70q-39 -105 -126 -105q-110 0 -110 138q0 54 23 120h76q-6 -40 -6 -64q0 -72 39 -72q63 0 75 168h78q0 -135 61 -135q41 0 41 104q0 29 -5 72h77zM708 1412l-393 -123v102l393 124v-103z" />
    <glyph glyph-name="ShaddaAlefSuper" unicode="&#x651;&#x670;" arabic-form="isolated" 
d="M733 1402q16 -47 16 -101q0 -88 -39 -141.5t-105 -53.5q-70 0 -95 70q-39 -105 -126 -105q-110 0 -110 138q0 54 23 120h76q-6 -40 -6 -64q0 -72 39 -72q63 0 75 168h78q0 -135 61 -135q41 0 41 104q0 29 -5 72h77zM567 1445h-111v429h111v-429z" />
    <glyph glyph-name="NoonAlefMakFina.liga" unicode="&#x646;&#xfef0;" arabic-form="final" 
d="M1047 97h-38q-175 0 -201 181l-21 157q-8 61 -61 61q-39 0 -61 -34.5t-22 -97.5q-1 -15 5 -60l34 -255q6 -45 6 -85q0 -157 -73 -241.5t-210 -84.5q-279 0 -279 403q0 158 25 442h148q-23 -284 -23 -442q0 -220 129 -220q66 0 97.5 43t31.5 122q0 28 -5 63l-29 219
q-7 53 -7 93q0 147 73 231t170 84q173 0 202 -222l14 -99q10 -85 76 -85h19v-173zM584 1029q0 38 26.5 65t65.5 27t65.5 -27t26.5 -65q0 -39 -26.5 -65.5t-65.5 -26.5t-65.5 26.5t-26.5 65.5z" />
    <glyph glyph-name="NoonYehFina.liga" unicode="&#x646;&#xfef2;" arabic-form="final" 
d="M584 1029q0 38 26.5 65t65.5 27t65.5 -27t26.5 -65q0 -39 -26.5 -65.5t-65.5 -26.5t-65.5 26.5t-26.5 65.5zM1047 97h-19q-199 0 -232 260l-13 78q-6 70 -56 70q-35 0 -54 -28.5t-19 -80.5q0 -39 10 -81l11 -53q9 -41 9 -79q0 -112 -69.5 -198t-209.5 -86
q-279 0 -279 348q0 86 25 236h148q-23 -150 -23 -230q0 -181 129 -181q61 0 91 30t30 79q0 32 -11 81l-5 21q-13 57 -13 110q0 123 68.5 203t171.5 80q91 0 141 -55.5t66 -166.5l13 -99q12 -85 71 -85h19v-173zM183 -270q0 38 26.5 64.5t64.5 26.5q39 0 65.5 -26.5
t26.5 -64.5q0 -39 -26.5 -65.5t-65.5 -26.5q-38 0 -64.5 26.5t-26.5 65.5zM482 -270q0 38 26.5 64.5t65.5 26.5q38 0 65 -26.5t27 -64.5q0 -39 -27 -65.5t-65 -26.5q-39 0 -65.5 26.5t-26.5 65.5z" />
    <glyph glyph-name="AlefFinaFathatan.liga" unicode="&#xfe8e;&#x64b;" arabic-form="final" 
d="M757 97q-293 0 -301 383l-16 872h150l13 -872q1 -210 154 -210h286v-173h-286zM709 1781l-393 -123v102l393 124v-103zM709 1600l-393 -124v102l393 124v-102z" />
    <glyph glyph-name="AlefFathatan.liga" unicode="&#x627;&#x64b;" arabic-form="isolated" 
d="M483 97q-39 272 -39 1159h151q0 -887 29 -1159h-141zM709 1781l-393 -123v102l393 124v-103zM709 1600l-393 -124v102l393 124v-102z" />
    <glyph glyph-name="AlefMaksuraThal.liga" unicode="&#x630;&#x670;" arabic-form="isolated" 
d="M742 438q0 117 -113 173t-359 65v174q347 -10 488 -109.5t141 -293.5q0 -352 -434 -352h-393v174h400q270 0 270 169zM362 1097q0 38 26.5 65t65.5 27t65.5 -27t26.5 -65q0 -39 -26.5 -65.5t-65.5 -26.5t-65.5 26.5t-26.5 65.5zM507 1322h-111v429h111v-429z" />
    <glyph glyph-name="AlefMaksuraReh.liga" unicode="&#x631;&#x670;" arabic-form="isolated" 
d="M742 438q0 117 -113 173t-359 65v174q347 -10 488 -109.5t141 -293.5q0 -352 -434 -352h-393v174h400q270 0 270 169zM507 1018h-111v429h111v-429z" />
    <glyph glyph-name="colon_colon" unicode="&#x3a;&#x3a;" horiz-adv-x="2048" 
d="M1632 177q0 -78 -56.5 -137t-141.5 -59q-86 0 -140.5 59t-54.5 137q0 77 54.5 137t140.5 60q85 0 141.5 -60.5t56.5 -136.5zM1632 956q0 -78 -56.5 -137t-141.5 -59q-86 0 -140.5 59t-54.5 137t54.5 137.5t140.5 59.5q85 0 141.5 -60t56.5 -137zM808 177
q0 -78 -56.5 -137t-141.5 -59q-86 0 -140.5 59t-54.5 137q0 77 54.5 137t140.5 60q85 0 141.5 -60.5t56.5 -136.5zM808 956q0 -78 -56.5 -137t-141.5 -59q-86 0 -140.5 59t-54.5 137t54.5 137.5t140.5 59.5q85 0 141.5 -60t56.5 -137z" />
    <glyph glyph-name="hyphen_greater_greater" unicode="&#x2d;&#x3e;&#x3e;" horiz-adv-x="3072" 
d="M2093 935v183l829 -452v-115l-829 -452v183l615 327zM1364 679v439l936 -509l-936 -510v435h-1204v145h1204zM1989 609l-555 295v-590z" />
    <glyph glyph-name="numbersign_parenleft" unicode="&#x23;&#x28;" horiz-adv-x="2048" 
d="M848 0h-171l86 492h-220l-87 -492h-171l86 492h-189v144h214l42 245h-197v145h222l85 500h171l-85 -500h221l85 500h171l-85 -500h251q86 425 499 711l85 -116q-449 -320 -449 -860q0 -536 449 -856l-85 -116q-402 274 -499 703h-343zM1249 761q0 50 4 120h-252l-42 -245
h296q-6 75 -6 125zM787 636l43 245h-221l-42 -245h220z" />
    <glyph glyph-name="period_period" unicode="&#x2e;&#x2e;" horiz-adv-x="2048" 
d="M835 177q0 -78 -56.5 -137t-141.5 -59q-86 0 -140.5 59t-54.5 137q0 77 54.5 137t140.5 60q85 0 141.5 -60.5t56.5 -136.5zM1608 177q0 -78 -56.5 -137t-141.5 -59q-86 0 -140.5 59t-54.5 137q0 77 54.5 137t140.5 60q85 0 141.5 -60.5t56.5 -136.5z" />
    <glyph glyph-name="plus_plus" unicode="&#x2b;&#x2b;" horiz-adv-x="2048" 
d="M1855 534h-351v-353h-150v353h-660v-353h-150v353h-351v145h351v354h150v-354h660v354h150v-354h351v-145z" />
    <glyph glyph-name="numbersign_underscore" unicode="&#x23;_" horiz-adv-x="2048" 
d="M866 540l78 447h-250l-78 -447h250zM753 -213q0 101 24 230l65 378h-250l-68 -395h-171l68 395h-199v145h223l78 447h-225v145h250l67 394h171l-67 -394h250l68 394h170l-67 -394h199v-145h-224l-78 -447h227v-145h-251l-80 -463h925v-145h-1105z" />
    <glyph glyph-name="less_equal" unicode="&#x3c;&#x3d;" horiz-adv-x="2048" 
d="M1687 928l-1023 -212l1023 -212v-180l-1359 331v122l1359 331v-180zM1687 -60l-1359 335v166l1359 -335v-166z" />
    <glyph glyph-name="greater_greater" unicode="&#x3e;&#x3e;" horiz-adv-x="2048" 
d="M182 983v183l829 -452v-215l-829 -452v183l705 377zM976 983v183l829 -452v-215l-829 -452v183l705 377z" />
    <glyph glyph-name="period_period_period" unicode="&#x2e;&#x2e;&#x2e;" horiz-adv-x="3072" 
d="M857 177q0 -78 -56.5 -137t-141.5 -59q-86 0 -140.5 59t-54.5 137q0 77 54.5 137t140.5 60q85 0 141.5 -60.5t56.5 -136.5zM1733 177q0 -78 -56.5 -137t-141.5 -59q-86 0 -140.5 59t-54.5 137q0 77 54.5 137t140.5 60q85 0 141.5 -60.5t56.5 -136.5zM2608 177
q0 -78 -56.5 -137t-141.5 -59q-86 0 -140.5 59t-54.5 137q0 77 54.5 137t140.5 60q85 0 141.5 -60.5t56.5 -136.5z" />
    <glyph glyph-name="less_less" unicode="&#x3c;&#x3c;" horiz-adv-x="2048" 
d="M307 607l705 -377v-183l-829 452v215l829 452v-183zM1101 607l705 -377v-183l-829 452v215l829 452v-183z" />
    <glyph glyph-name="greater_equal" unicode="&#x3e;&#x3d;" horiz-adv-x="2048" 
d="M361 1108l1358 -331v-122l-1358 -331v180l1023 212l-1023 212v180zM361 106l1358 335v-166l-1358 -335v166z" />
    <glyph glyph-name="less_hyphen" unicode="&#x3c;&#x2d;" horiz-adv-x="2048" 
d="M1918 679v-145h-969v-435l-829 452v115l829 452v-439h969zM879 314v590l-555 -295z" />
    <glyph glyph-name="less_less_hyphen" unicode="&#x3c;&#x3c;&#x2d;" horiz-adv-x="3072" 
d="M364 609l615 -327v-183l-829 452v115l829 452v-183zM2912 679v-145h-1204v-435l-936 510l936 509v-439h1204zM1638 314v590l-555 -295z" />
    <glyph glyph-name="slash_asterisk" unicode="&#x2f;&#x2a;" horiz-adv-x="2048" 
d="M1452 778l-197 -297l-130 92l220 282l-344 98l49 152l333 -123l-14 361h165l-13 -361l333 123l49 -152l-344 -98l219 -282l-129 -93zM996 1526l-640 -1526h-175l640 1526h175z" />
    <glyph glyph-name="equal_greater" unicode="&#x3d;&#x3e;" horiz-adv-x="2048" 
d="M1089 915v-196h-839v145h799v252l829 -450v-115l-829 -454v252h-799v145h839v-196l585 309z" />
    <glyph glyph-name="slash_greater" unicode="&#x2f;&#x3e;" horiz-adv-x="2048" 
d="M989 1526l-640 -1526h-175l640 1526h175zM926 983v183l829 -452v-215l-829 -452v183l705 377z" />
    <glyph glyph-name="slash_slash" unicode="&#x2f;&#x2f;" horiz-adv-x="2048" 
d="M1807 1526l-640 -1526h-175l640 1526h175zM1056 1526l-640 -1526h-175l640 1526h175z" />
    <glyph glyph-name="exclam_equal" unicode="&#x21;&#x3d;" horiz-adv-x="2048" 
d="M1681 719h-526l-107 -225h633v-145h-702l-167 -349h-155l167 349h-457v145h526l108 225h-634v145h703l167 349h155l-167 -349h456v-145z" />
    <glyph glyph-name="exclam_exclam" unicode="&#x21;&#x21;" horiz-adv-x="2048" 
d="M733 1132l-30 -640h-131l-30 640v394h191v-394zM768 110q0 -54 -38.5 -91.5t-92.5 -37.5t-92 37.5t-38 91.5q0 55 38 93t92 38t92.5 -38t38.5 -93zM1506 1132l-30 -640h-131l-30 640v394h191v-394zM1541 110q0 -54 -38.5 -91.5t-92.5 -37.5t-92 37.5t-38 91.5q0 55 38 93
t92 38t92.5 -38t38.5 -93z" />
    <glyph glyph-name="less_less_equal" unicode="&#x3c;&#x3c;&#x3d;" horiz-adv-x="3072" 
d="M1768 719v196l-585 -308l585 -309v196h1034v-145h-994v-252l-936 510l936 509v-252h994v-145h-1034zM384 607l615 -327v-183l-829 452v115l829 452v-183z" />
    <glyph glyph-name="less_equal_greater" unicode="&#x3c;&#x3d;&#x3e;" horiz-adv-x="3072" 
d="M999 349v-252l-829 451v118l829 450v-252h1074v252l829 -450v-118l-829 -451v252h-1074zM959 719v196l-585 -308l585 -309v196h1154v-196l585 309l-585 308v-196h-1154z" />
    <glyph glyph-name="colon_equal" unicode="&#x3a;&#x3d;" horiz-adv-x="2048" 
d="M1783 719h-851v145h851v-145zM1783 349h-851v145h851v-145zM664 307q0 -78 -56.5 -137t-141.5 -59q-86 0 -141 59t-55 137q0 77 55 137t141 60q85 0 141.5 -60.5t56.5 -136.5zM664 905q0 -78 -56.5 -137t-141.5 -59q-86 0 -141 59t-55 137t55 137.5t141 59.5
q85 0 141.5 -60t56.5 -137z" />
    <glyph glyph-name="equal_less_less" unicode="&#x3d;&#x3c;&#x3c;" horiz-adv-x="3072" 
d="M2147 607l616 -327v-183l-856 466v87l856 466v-183zM309 864h1276l444 252v-183l-303 -171q-75 -43 -166 -43h-1251v145zM309 494h1251q91 0 166 -43l303 -171v-183l-444 252h-1276v145z" />
    <glyph glyph-name="greater_greater_equal" unicode="&#x3e;&#x3e;&#x3d;" horiz-adv-x="3072" 
d="M309 933v183l856 -466v-87l-856 -466v183l615 327zM2763 719h-1251q-91 0 -166 43l-303 171v183l444 -252h1276v-145zM2763 349h-1276l-444 -252v183l303 171q75 43 166 43h1251v-145z" />
    <glyph glyph-name="asterisk_asterisk_asterisk" unicode="&#x2a;&#x2a;&#x2a;" horiz-adv-x="3072" 
d="M1536 846l-197 -297l-130 92l220 282l-344 98l49 152l333 -123l-14 361h165l-13 -361l333 123l49 -152l-344 -98l219 -282l-129 -93zM2476 585l-197 -297l-130 92l220 282l-344 98l49 152l333 -123l-14 361h165l-13 -361l333 123l49 -152l-344 -98l219 -282l-129 -93z
M596 585l-197 -297l-130 92l220 282l-344 98l49 152l333 -123l-14 361h165l-13 -361l333 123l49 -152l-344 -98l219 -282l-129 -93z" />
    <glyph glyph-name="equal_equal_greater" unicode="&#x3d;&#x3d;&#x3e;" horiz-adv-x="3072" 
d="M2698 607l-585 308v-196h-808q0 38 -26.5 64.5t-64.5 26.5t-64.5 -26.5t-26.5 -64.5h-829v145h1779v252l829 -450v-115l-829 -454v252h-1779v145h829q0 -38 26.5 -64.5t64.5 -26.5t64.5 26.5t26.5 64.5h808v-196z" />
    <glyph glyph-name="greater_greater_greater" unicode="&#x3e;&#x3e;&#x3e;" horiz-adv-x="3072" 
d="M220 983v183l829 -452v-215l-829 -452v183l705 377zM1080 983v183l829 -452v-215l-829 -452v183l705 377zM1942 983v183l829 -452v-215l-829 -452v183l705 377z" />
    <glyph glyph-name="greater_greater_hyphen" unicode="&#x3e;&#x3e;&#x2d;" horiz-adv-x="3072" 
d="M1053 945v183l819 -449h997v-145h-997l-819 -449v183l636 341zM309 945v183l872 -478v-87l-872 -478v183l631 339z" />
    <glyph glyph-name="hyphen_less_less" unicode="&#x2d;&#x3c;&#x3c;" horiz-adv-x="3072" 
d="M1383 609l636 -341v-183l-819 449h-997v145h997l819 449v-183zM2127 609l636 -341v-183l-872 478v87l872 478v-183z" />
    <glyph glyph-name="less_asterisk_greater" unicode="&#x3c;&#x2a;&#x3e;" horiz-adv-x="3072" 
d="M1536 507l-197 -297l-130 92l220 282l-344 99l49 152l333 -123l-14 360h165l-13 -360l333 123l49 -152l-344 -99l219 -282l-129 -92zM317 607l705 -377v-183l-829 452v215l829 452v-183zM2050 983v183l829 -452v-215l-829 -452v183l705 377z" />
    <glyph glyph-name="less_bar_greater" unicode="&#x3c;&#x7c;&#x3e;" horiz-adv-x="3072" 
d="M503 607l616 -327v-183l-829 452v115l829 452v-183zM1953 933v183l829 -452v-115l-829 -452v183l616 327zM1616 -362h-160v1997h160v-1997z" />
    <glyph glyph-name="less_dollar_greater" unicode="&#x3c;&#x24;&#x3e;" horiz-adv-x="3072" 
d="M2113 960v182l785 -428v-215l-785 -430v182l661 356zM298 607l661 -356v-182l-785 430v215l785 428v-182zM1931 287q0 -136 -86.5 -235.5t-210.5 -122.5v-282h-171v279q-217 23 -342 246l125 95q100 -192 293 -192q92 0 156.5 58t64.5 153q0 98 -121 171l-267 161
q-189 113 -189 300q0 145 78 244t202 122v279h171v-277q166 -18 298 -200l-130 -103q-84 157 -240 157q-89 0 -148.5 -54t-59.5 -155q0 -107 127 -183l253 -152q198 -119 197 -309z" />
    <glyph glyph-name="less_plus_greater" unicode="&#x3c;&#x2b;&#x3e;" horiz-adv-x="3072" 
d="M1962 534h-351v-354h-150v354h-351v145h351v354h150v-354h351v-145zM337 609l705 -379v-183l-829 452v215l829 452v-183zM2030 983v183l829 -452v-215l-829 -452v183l705 379z" />
    <glyph glyph-name="less_less_less" unicode="&#x3c;&#x3c;&#x3c;" horiz-adv-x="3072" 
d="M365 607l705 -377v-183l-829 452v215l829 452v-183zM1225 607l705 -377v-183l-829 452v215l829 452v-183zM2087 607l705 -377v-183l-829 452v215l829 452v-183z" />
    <glyph glyph-name="plus_plus_plus" unicode="&#x2b;&#x2b;&#x2b;" horiz-adv-x="3072" 
d="M2869 534h-429v-353h-150v353h-679v-353h-150v353h-680v-353h-150v353h-428v145h428v354h150v-354h680v354h150v-354h679v354h150v-354h429v-145z" />
    <glyph glyph-name="ampersand_ampersand" unicode="&#x26;&#x26;" horiz-adv-x="2048" 
d="M1689 435l208 -383v-52h-150l-132 243l-12 -32q-78 -230 -344 -230q-290 0 -401 209l-29 53q-90 -262 -284 -262q-160 0 -234 119.5t-74 324.5q0 313 230 486l-47 85q-62 116 -62 230q0 139 81 230.5t205 91.5q205 0 279 -257l-148 -61q-38 166 -131 166
q-52 0 -83.5 -47.5t-31.5 -132.5q0 -94 81 -242l368 -677q53 -100 134 -151q-89 120 -89 279q0 313 230 486l-46 85q-62 116 -62 230q0 139 80.5 230.5t205.5 91.5q204 0 279 -257l-149 -61q-38 166 -130 166q-53 0 -84 -47.5t-31 -132.5q0 -94 80 -242l195 -359l71 237h138
v-43zM1331 131q100 0 153 178l34 115l-195 356q-129 -113 -129 -355q0 -294 137 -294zM545 131q99 0 152 178l34 115l-194 356q-129 -113 -129 -355q0 -294 137 -294z" />
    <glyph glyph-name="asterisk_greater" unicode="&#x2a;&#x3e;" horiz-adv-x="2048" 
d="M1045 983v183l829 -452v-215l-829 -452v183l705 377zM193 789l93 130l282 -220l99 344l151 -49l-122 -333l360 13v-165l-360 14l122 -333l-151 -49l-99 344l-282 -219l-92 129l297 197z" />
    <glyph glyph-name="backslash_backslash" unicode="\\" horiz-adv-x="2048" 
d="M1167 1526l639 -1526h-156l-639 1526h156zM398 1526l639 -1526h-156l-639 1526h156z" />
    <glyph glyph-name="bar_bar" unicode="&#x7c;&#x7c;" horiz-adv-x="2048" 
d="M692 -362h-161v2057h161v-2057zM1517 -362h-161v2057h161v-2057z" />
    <glyph glyph-name="bar_greater" unicode="&#x7c;&#x3e;" horiz-adv-x="2048" 
d="M771 1153v192l1034 -681v-115l-1034 -681v192l840 547zM406 1557l160 -114v-1672l-160 -115v1901z" />
    <glyph glyph-name="equal_equal" unicode="&#x3d;&#x3d;" horiz-adv-x="2048" 
d="M1115 719q0 38 -26.5 64.5t-64.5 26.5t-64.5 -26.5t-26.5 -64.5h-650v145h1482v-145h-650zM1765 494v-145h-1482v145h650q0 -38 26.5 -64.5t64.5 -26.5t64.5 26.5t26.5 64.5h650z" />
    <glyph glyph-name="greater_hyphen" unicode="&#x3e;&#x2d;" horiz-adv-x="2048" 
d="M232 945v183l819 -449h794v-145h-794l-819 -449v183l636 341z" />
    <glyph glyph-name="hyphen_less" unicode="&#x2d;&#x3c;" horiz-adv-x="2048" 
d="M1180 609l636 -341v-183l-819 449h-794v145h794l819 449v-183z" />
    <glyph glyph-name="less_asterisk" unicode="&#x3c;&#x2a;" horiz-adv-x="2048" 
d="M298 607l705 -377v-183l-829 452v215l829 452v-183zM1557 592l297 -197l-92 -129l-282 219l-99 -344l-151 49l122 333l-360 -14v165l360 -13l-122 333l151 49l99 -344l282 220l93 -130z" />
    <glyph glyph-name="less_bar" unicode="&#x3c;&#x7c;" horiz-adv-x="2048" 
d="M436 607l841 -547v-192l-1036 681v115l1036 681v-192zM1641 -344l-160 115v1672l160 114v-1901z" />
    <glyph glyph-name="less_greater" unicode="&#x3c;&#x3e;" horiz-adv-x="2048" 
d="M1855 664v-115l-831 -502l-831 502v115l831 502zM397 607l627 -377l627 377l-627 376z" />
    <glyph glyph-name="exclam_equal_equal" unicode="&#x21;&#x3d;&#x3d;" horiz-adv-x="3072" 
d="M2685 719h-1511l-107 -225h1618v-145h-1687l-167 -349h-155l167 349h-457v145h526l108 225h-634v145h703l167 349h155l-167 -349h1441v-145z" />
    <glyph glyph-name="percent_equal" unicode="&#x25;&#x3d;" horiz-adv-x="2048" 
d="M1866 845h-800v145h800v-145zM1866 475h-800v145h800v-145zM1011 1526l-640 -1526h-165l641 1526h164zM551 1349q0 -88 -54 -142.5t-125 -54.5q-70 0 -123 54.5t-53 142.5q0 86 53 141.5t123 55.5q71 0 125 -55.5t54 -141.5zM1020 177q0 -88 -54 -142t-124 -54
q-71 0 -123.5 54t-52.5 142q0 87 52.5 142t123.5 55q70 0 124 -55.5t54 -141.5z" />
    <glyph glyph-name="asterisk_equal" unicode="&#x2a;&#x3d;" horiz-adv-x="2048" 
d="M572 562l-197 -297l-130 92l220 282l-344 98l49 152l333 -123l-14 361h165l-13 -361l333 123l49 -152l-344 -98l219 -282l-129 -93zM1888.19 719h-740.366v145h740.366v-145zM1888.19 349h-740.366v145h740.366v-145z" />
    <glyph glyph-name="asterisk_slash" unicode="&#x2a;&#x2f;" horiz-adv-x="2048" 
d="M639 778l-197 -297l-130 92l220 282l-344 98l49 152l333 -123l-14 361h165l-13 -361l333 123l49 -152l-344 -98l219 -282l-129 -93zM1809 1526l-640 -1526h-175l640 1526h175z" />
    <glyph glyph-name="plus_equal" unicode="&#x2b;&#x3d;" horiz-adv-x="2048" 
d="M939 534h-350v-353h-150v353h-351v145h351v354h150v-354h350v-145zM1866 719h-851v145h851v-145zM1866 349h-851v145h851v-145z" />
    <glyph glyph-name="hyphen_hyphen" unicode="&#x2d;&#x2d;" horiz-adv-x="2048" 
d="M1115 534q0 38 -26.5 64.5t-64.5 26.5t-64.5 -26.5t-26.5 -64.5h-740v145h1662v-145h-740z" />
    <glyph glyph-name="hyphen_equal" unicode="&#x2d;&#x3d;" horiz-adv-x="2048" 
d="M939 534h-852v145h852v-145zM1866 719h-851v145h851v-145zM1866 349h-851v145h851v-145z" />
    <glyph glyph-name="hyphen_greater" unicode="&#x2d;&#x3e;" horiz-adv-x="2048" 
d="M1099 679v439l829 -452v-115l-829 -452v435h-969v145h969zM1724 609l-555 295v-590z" />
    <glyph glyph-name="period_period_less" unicode="&#x2e;&#x2e;&#x3c;" horiz-adv-x="3072" 
d="M857 177q0 -78 -56.5 -137t-141.5 -59q-86 0 -140.5 59t-54.5 137q0 77 54.5 137t140.5 60q85 0 141.5 -60.5t56.5 -136.5zM1694 177q0 -78 -56.5 -137t-141.5 -59q-86 0 -140.5 59t-54.5 137q0 77 54.5 137t140.5 60q85 0 141.5 -60.5t56.5 -136.5zM2005 607l705 -377
v-183l-829 452v215l829 452v-183z" />
    <glyph glyph-name="question_question" unicode="&#x3f;&#x3f;" horiz-adv-x="2048" 
d="M928 1180q0 -124 -80 -243l-186 -270q-38 -56 -38 -120v-55h-171v56q0 113 68 214l191 280q45 66 45 139q0 83 -54.5 143t-147.5 60q-161 0 -244 -181l-139 92q141 253 384 253q163 0 267.5 -106t104.5 -262zM687 110q0 -54 -38 -91.5t-93 -37.5q-54 0 -92 37.5t-38 91.5
q0 55 38 93t92 38q55 0 93 -38t38 -93zM1816 1180q0 -124 -80 -243l-186 -270q-38 -56 -38 -120v-55h-171v56q0 113 68 214l191 280q45 66 45 139q0 83 -54.5 143t-147.5 60q-161 0 -244 -181l-139 92q141 253 384 253q163 0 267.5 -106t104.5 -262zM1575 110
q0 -54 -38 -91.5t-93 -37.5q-54 0 -92 37.5t-38 91.5q0 55 38 93t92 38q55 0 93 -38t38 -93z" />
    <glyph glyph-name="asciicircum_equal" unicode="^&#x3d;" horiz-adv-x="2048" 
d="M1049 494h786v-145h-919l-279 809l-280 -809h-183l374 1026h176zM1100 863h735v-144h-735v144z" />
    <glyph glyph-name="bar_equal" unicode="&#x7c;&#x3d;" horiz-adv-x="2048" 
d="M615 -362h-160v2057h160v-2057zM1739 719h-851v145h851v-145zM1739 349h-851v145h851v-145z" />
    <glyph glyph-name="asciitilde_equal" unicode="&#x7e;&#x3d;" horiz-adv-x="2048" 
d="M1864 723h-824q-45 -387 -268 -387q-129 0 -198 124l-110 197q-41 72 -84 72q-100 0 -110 -383h-154q13 535 270 535q129 0 201 -129l111 -199q37 -65 81 -65q109 0 118 380h967v-145zM1864 353h-708v145h708v-145z" />
    <glyph glyph-name="asciitilde_greater" unicode="&#x7e;&#x3e;" horiz-adv-x="2048" 
d="M1099 1119l829 -452v-116l-829 -452v543q-30 -2 -48 -26l-61 -82q-78 -100 -210 -100q-133 0 -210 100l-61 82q-20 26 -54 26q-33 0 -53 -26l-61 -82q-78 -100 -211 -100v144q36 0 54 25l61 83q75 100 210 100q136 0 210 -100l61 -83q19 -25 54 -25q34 0 53 25l61 83
q73 98 205 100v333zM1169 904v-590l555 295z" />
    <glyph glyph-name="ampersand_percent" unicode="&#x26;&#x25;" horiz-adv-x="2048" 
d="M873 435l191 -350l604 1441h165l-640 -1526h-261l-132 243q-90 -262 -284 -262q-160 0 -234 119.5t-74 324.5q0 313 230 486l-47 85q-62 116 -62 230q0 139 81 230.5t205 91.5q205 0 280 -257l-149 -61q-38 166 -131 166q-52 0 -83.5 -47.5t-31.5 -132.5q0 -94 81 -242
l195 -359l70 237h138v-43zM516 131q99 0 152 178l34 115l-194 356q-129 -113 -129 -355q0 -294 137 -294zM1411 1349q0 -88 -54 -142.5t-124 -54.5q-71 0 -123.5 54.5t-52.5 142.5q0 86 52.5 141.5t123.5 55.5q70 0 124 -55.5t54 -141.5zM1842 177q0 -88 -54 -142t-125 -54
q-70 0 -122.5 54t-52.5 142q0 87 52.5 142t122.5 55q71 0 125 -55.5t54 -141.5z" />
    <glyph glyph-name="ampersand_asterisk" unicode="&#x26;&#x2a;" horiz-adv-x="2048" 
d="M874 435l208 -383v-52h-149l-133 243q-90 -262 -284 -262q-159 0 -233.5 119.5t-74.5 324.5q0 313 230 486l-46 85q-62 116 -62 230q0 139 80.5 230.5t205.5 91.5q205 0 279 -257l-149 -61q-38 166 -130 166q-52 0 -83.5 -47.5t-31.5 -132.5q0 -94 80 -242l195 -359
l71 237h138v-43zM516 131q100 0 153 178l34 115l-194 356q-130 -113 -130 -355q0 -294 137 -294zM1470 962l-197 -297l-130 92l220 282l-344 98l49 152l333 -123l-14 361h165l-13 -361l333 123l49 -152l-344 -98l219 -282l-129 -93z" />
    <glyph glyph-name="ampersand_plus" unicode="&#x26;&#x2b;" horiz-adv-x="2048" 
d="M1880 534h-351v-353h-150v353h-380l-29 -99l209 -383v-52h-150l-133 243q-89 -262 -284 -262q-159 0 -233.5 119.5t-74.5 324.5q0 313 230 486l-46 85q-62 116 -62 230q0 139 80.5 230.5t205.5 91.5q205 0 279 -257l-149 -61q-37 166 -130 166q-52 0 -83.5 -47.5
t-31.5 -132.5q0 -94 80 -242l195 -359l19 64h488v354h150v-354h351v-145zM612 131q100 0 153 178l34 115l-194 356q-130 -113 -130 -355q0 -294 137 -294z" />
    <glyph glyph-name="ampersand_hyphen" unicode="&#x26;&#x2d;" horiz-adv-x="2048" 
d="M1880 534h-881l-29 -99l209 -383v-52h-150l-133 243q-89 -262 -284 -262q-159 0 -233.5 119.5t-74.5 324.5q0 313 230 486l-46 85q-62 116 -62 230q0 139 80.5 230.5t205.5 91.5q205 0 279 -257l-149 -61q-37 166 -130 166q-52 0 -83.5 -47.5t-31.5 -132.5q0 -94 80 -242
l195 -359l19 63h989v-144zM612 131q100 0 153 178l34 115l-194 356q-130 -113 -130 -355q0 -294 137 -294z" />
    <glyph glyph-name="ampersand_slash" unicode="&#x26;&#x2f;" horiz-adv-x="2048" 
d="M902 435l191 -350l604 1441h174l-639 -1526h-271l-132 243q-90 -262 -284 -262q-160 0 -234 119.5t-74 324.5q0 313 230 486l-47 85q-62 116 -62 230q0 139 81 230.5t205 91.5q205 0 279 -257l-148 -61q-38 166 -131 166q-52 0 -83.5 -47.5t-31.5 -132.5q0 -94 81 -242
l195 -359l70 237h138v-43zM545 131q99 0 152 178l34 115l-194 356q-129 -113 -129 -355q0 -294 137 -294z" />
    <glyph glyph-name="ampersand_equal" unicode="&#x26;&#x3d;" horiz-adv-x="2048" 
d="M1866 719h-848l-87 -284l209 -383v-52h-150l-132 243q-90 -262 -284 -262q-160 0 -234 119.5t-74 324.5q0 313 230 486l-47 85q-62 116 -62 230q0 139 81 230.5t205 91.5q205 0 279 -257l-148 -61q-38 166 -131 166q-52 0 -83.5 -47.5t-31.5 -132.5q0 -94 81 -242
l195 -359l72 249h960v-145zM574 131q99 0 152 178l34 115l-194 356q-129 -113 -129 -355q0 -294 137 -294zM1866 349h-702v145h702v-145z" />
    <glyph glyph-name="less_equal_less" unicode="&#x3c;&#x3d;&#x3c;" horiz-adv-x="3072" 
d="M374 607l585 -309v196h1354q91 0 166 -43l303 -171v-183l-444 252h-1339v-252l-829 452v115l829 452v-252h1339l444 252v-183l-303 -171q-75 -43 -166 -43h-1354v196z" />
    <glyph glyph-name="greater_equal_greater" unicode="&#x3e;&#x3d;&#x3e;" horiz-adv-x="3072" 
d="M2113 915v-196h-1354q-91 0 -166 43l-303 171v183l444 -252h1339v252l829 -450v-115l-829 -454v252h-1339l-444 -252v183l303 171q75 43 166 43h1354v-196l585 309z" />
    <glyph glyph-name="slash_equal" unicode="&#x2f;&#x3d;" horiz-adv-x="2048" 
d="M881 1526h175l-277 -662h902v-145h-963l-96 -225h1059v-145h-1118l-147 -349h-175z" />
    <glyph glyph-name="slash_equal_equal" unicode="&#x2f;&#x3d;&#x3d;" horiz-adv-x="3072" 
d="M455 0h-175l640 1526h174l-276 -662h1906v-145h-984q0 38 -26.5 64.5t-64.5 26.5t-64.5 -26.5t-26.5 -64.5h-801l-96 -225h897q0 -38 26.5 -64.5t64.5 -26.5t64.5 26.5t26.5 64.5h984v-146h-2122z" />
    <glyph glyph-name="numbersign_braceleft" unicode="&#x23;&#x7b;" horiz-adv-x="2048" 
d="M1861 -132h-160q-137 0 -234.5 97t-97.5 263v90h-466l-55 -318h-171l55 318h-221l-55 -318h-171l55 318h-180v145h204l104 592h-205v145h230l55 326h171l-55 -326h221l55 326h171l-55 -326h313v96q0 167 97.5 264.5t234.5 97.5h160v-152h-160q-67 0 -114.5 -48
t-47.5 -143v-257q0 -101 -54 -183q-57 -88 -152 -112q101 -32 156 -116q50 -78 50 -177v-259q0 -96 47.5 -144t114.5 -48h160v-151zM927 463h442q0 94 -59 154t-142 60h-27v173h26q83 0 142 60q60 60 60 145h-338zM756 463l104 592h-221l-104 -592h221z" />
    <glyph glyph-name="less_asciitilde" unicode="&#x3c;&#x7e;" horiz-adv-x="2048" 
d="M949 99l-829 452v115l829 450v-542q30 2 48 26l61 82q78 100 210 100q133 0 210 -100l61 -82q20 -26 54 -26q33 0 53 26l61 82q78 100 211 100v-144q-36 0 -54 -25l-61 -83q-75 -100 -210 -100q-136 0 -210 100l-61 83q-19 25 -54 25q-34 0 -53 -25l-61 -83
q-73 -98 -205 -100v-331zM879 314v590l-555 -295z" />
    <glyph glyph-name="less_asciitilde_asciitilde" unicode="&#x3c;&#x7e;&#x7e;" horiz-adv-x="3072" 
d="M999 784q116 -6 193 -110l49 -69q23 -29 60 -29q35 0 59 29l48 69q81 110 206 110t206 -110l49 -69q23 -29 60 -29t60 29l49 69q81 110 206 110q123 0 204 -110l49 -69q23 -29 60 -29t58 27l51 71q81 110 206 110v-144q-37 0 -60 -29l-49 -69q-81 -110 -206 -110
t-206 110l-49 69q-23 29 -58 29q-37 0 -60 -29l-49 -69q-81 -110 -206 -110t-206 110l-49 69q-23 29 -60 29t-60 -29l-49 -69q-81 -110 -204 -110q-125 0 -206 110l-49 69q-19 24 -47 28v-541l-829 453v115l829 451v-333zM374 609l555 -295v590z" />
    <glyph glyph-name="asciitilde_asciitilde_greater" unicode="&#x7e;&#x7e;&#x3e;" horiz-adv-x="3072" 
d="M2073 432q-116 6 -193 110l-49 69q-23 29 -60 29q-35 0 -59 -29l-48 -69q-81 -110 -206 -110t-206 110l-49 69q-23 29 -60 29t-60 -29l-49 -69q-81 -110 -206 -110q-123 0 -204 110l-49 69q-23 29 -60 29t-58 -27l-51 -71q-81 -110 -206 -110v144q37 0 60 29l49 69
q81 110 206 110t206 -110l49 -69q23 -29 58 -29q37 0 60 29l49 69q81 110 206 110t206 -110l49 -69q23 -29 60 -29t60 29l49 69q81 110 204 110q125 0 206 -110l49 -69q19 -24 47 -28v541l829 -452v-115l-829 -452v333zM2698 609l-555 295v-590z" />
    <glyph glyph-name="less_less_asciitilde" unicode="&#x3c;&#x3c;&#x7e;" horiz-adv-x="3072" 
d="M2892 640q-32 0 -49 -25l-55 -83q-67 -100 -189 -100t-189 100l-55 83q-17 25 -48 25t-48 -25l-55 -83q-67 -100 -190 -100q-122 0 -189 100l-17 25v-458l-936 510l936 509v-350q60 -24 103 -84l55 -82q18 -26 48 -26q31 0 49 26l55 82q70 100 189 100t189 -100l55 -82
q18 -26 48 -26t48 26l55 82q70 100 190 100v-144zM384 609l615 -327v-183l-829 452v115l829 452v-183zM1738 316v590l-555 -297z" />
    <glyph glyph-name="asciitilde_greater_greater" unicode="&#x7e;&#x3e;&#x3e;" horiz-adv-x="3072" 
d="M180 578q32 0 49 25l55 83q67 100 189 100t189 -100l55 -83q17 -25 48 -25t48 25l55 83q67 100 190 100q122 0 189 -100l17 -25v458l936 -510l-936 -509v350q-60 24 -103 84l-55 82q-18 26 -48 26q-31 0 -49 -26l-55 -82q-70 -100 -189 -100t-189 100l-55 82
q-18 26 -48 26t-48 -26l-55 -82q-70 -100 -190 -100v144zM2688 609l-615 327v183l829 -452v-115l-829 -452v183zM1334 905v-590l555 294z" />
    <glyph glyph-name="ampersand_ampersand_amp" unicode="&#x26;&#x26;&#x26;" horiz-adv-x="3072" 
d="M2840 0h-150l-132 243q-90 -262 -385 -262q-319 0 -459 262q-90 -262 -386 -262q-319 0 -459 262q-89 -262 -284 -262q-159 0 -233.5 119.5t-74.5 324.5q0 313 230 486l-46 85q-62 116 -62 230q0 139 80.5 230.5t205.5 91.5q205 0 279 -257l-149 -61q-37 166 -130 166
q-52 0 -83.5 -47.5t-31.5 -132.5q0 -94 80 -242l321 -598q109 -206 240 -235q-89 125 -89 284q0 313 229 486l-46 85q-62 116 -62 230q0 139 81 230.5t205 91.5q205 0 279 -257l-148 -61q-38 166 -131 166q-52 0 -83.5 -47.5t-31.5 -132.5q0 -94 80 -242l321 -598
q109 -206 241 -235q-90 125 -90 284q0 313 230 486l-47 85q-61 116 -61 230q0 139 80.5 230.5t204.5 91.5q205 0 280 -257l-149 -61q-38 166 -131 166q-52 0 -83 -47.5t-31 -132.5q0 -94 80 -242l195 -359l70 237h138v-43l-111 -374l209 -383v-52zM2274 151q99 0 170 201
l17 58l-195 370q-129 -113 -129 -355q0 -127 36 -200.5t101 -73.5zM585 135q100 0 153 174l34 115l-194 356q-130 -113 -130 -355q0 -290 137 -290zM1430 151q99 0 170 201l17 58l-195 370q-129 -113 -129 -355q0 -127 36 -200.5t101 -73.5z" />
    <glyph glyph-name="bar_bar_bar" unicode="&#x7c;&#x7c;&#x7c;" horiz-adv-x="3072" 
d="M1616 -362h-161v2057h161v-2057zM740 -362h-160v2057h160v-2057zM2492 -362h-160v2057h160v-2057z" />
    <glyph glyph-name="asciicircum_period" unicode="^&#x2e;" horiz-adv-x="2048" 
d="M1135 601h-182l-229 698l-236 -698h-174l321 925h176zM1733 177q0 -78 -56.5 -137t-141.5 -59q-86 0 -140.5 59t-54.5 137q0 77 54.5 137t140.5 60q85 0 141.5 -60.5t56.5 -136.5z" />
    <glyph glyph-name="asciicircum_question" unicode="^&#x3f;" horiz-adv-x="2048" 
d="M981 601h-182l-229 698l-236 -698h-174l321 925h176zM1836 1180q0 -124 -80 -243l-186 -270q-38 -56 -38 -120v-55h-171v56q0 113 68 214l191 280q45 66 45 139q0 83 -54.5 143t-147.5 60q-161 0 -244 -181l-139 92q141 253 384 253q163 0 267.5 -106t104.5 -262z
M1595 110q0 -54 -38 -91.5t-93 -37.5q-54 0 -92 37.5t-38 91.5q0 55 38 93t92 38q55 0 93 -38t38 -93z" />
    <glyph glyph-name="asciicircum_period_period" unicode="^&#x2e;&#x2e;" horiz-adv-x="3072" 
d="M1174 601h-182l-229 698l-236 -698h-174l321 925h176zM1781 177q0 -78 -56.5 -137t-141.5 -59q-86 0 -140.5 59t-54.5 137q0 77 54.5 137t140.5 60q85 0 141.5 -60.5t56.5 -136.5zM2624 177q0 -78 -56.5 -137t-141.5 -59q-86 0 -140.5 59t-54.5 137q0 77 54.5 137
t140.5 60q85 0 141.5 -60.5t56.5 -136.5z" />
    <glyph glyph-name="period_asciitilde" unicode="&#x2e;&#x7e;" horiz-adv-x="2048" 
d="M1791 826q-14 -434 -271 -434q-104 0 -177 80l-126 143q-48 54 -89 54q-99 0 -109 -279h-155q14 434 271 434q103 0 171 -76l135 -150q45 -51 86 -51q99 0 109 279h155zM667 177q0 -78 -56.5 -137t-141.5 -59q-86 0 -140.5 59t-54.5 137q0 77 54.5 137t140.5 60
q85 0 141.5 -60.5t56.5 -136.5z" />
    <glyph glyph-name="question_asciitilde" unicode="&#x3f;&#x7e;" horiz-adv-x="2048" 
d="M928 1180q0 -124 -80 -243l-186 -270q-38 -56 -38 -120v-55h-171v56q0 113 68 214l191 280q45 66 45 139q0 83 -54.5 143t-147.5 60q-161 0 -244 -181l-139 92q141 253 384 253q163 0 267.5 -106t104.5 -262zM687 110q0 -54 -38 -91.5t-93 -37.5q-54 0 -92 37.5t-38 91.5
q0 55 38 93t92 38q55 0 93 -38t38 -93zM1912 826q-14 -434 -271 -434q-104 0 -177 80l-126 143q-48 54 -89 54q-99 0 -109 -279h-155q14 434 271 434q103 0 171 -76l135 -150q45 -51 86 -51q99 0 109 279h155z" />
    <glyph glyph-name="equal_asciitilde" unicode="&#x3d;&#x7e;" horiz-adv-x="2048" 
d="M184 494h824q42 387 268 387q129 0 198 -124l110 -197q41 -72 84 -72q100 0 109 383h155q-14 -535 -270 -535q-129 0 -201 130l-111 198q-37 65 -81 65q-109 0 -118 -380h-967v145zM184 864h708v-145h-708v145z" />
    <glyph glyph-name="period_equal" unicode="&#x2e;&#x3d;" horiz-adv-x="2048" 
d="M1900 719h-934v145h934v-145zM1900 349h-934v145h934v-145zM638 177q0 -78 -56.5 -137t-141.5 -59q-86 0 -140.5 59t-54.5 137q0 77 54.5 137t140.5 60q85 0 141.5 -60.5t56.5 -136.5z" />
    <glyph glyph-name="question_equal" unicode="&#x3f;&#x3d;" horiz-adv-x="2048" 
d="M1819 719h-766v145h766v-145zM1819 349h-766v145h766v-145zM924 1180q0 -124 -80 -243l-186 -270q-38 -56 -38 -120v-55h-171v56q0 113 68 214l191 280q45 66 45 139q0 83 -54.5 143t-147.5 60q-161 0 -244 -181l-139 92q141 253 384 253q163 0 267.5 -106t104.5 -262z
M683 110q0 -54 -38 -91.5t-93 -37.5q-54 0 -92 37.5t-38 91.5q0 55 38 93t92 38q55 0 93 -38t38 -93z" />
    <glyph glyph-name="less_dollar" unicode="&#x3c;&#x24;" horiz-adv-x="2048" 
d="M259 607l613 -327v-182l-737 401v215l737 402v-182zM1834 287q0 -136 -86 -235.5t-210 -122.5v-282h-171v279q-217 23 -343 246l126 95q99 -192 292 -192q92 0 156.5 58t64.5 153q0 98 -120 171l-268 161q-188 113 -188 300q0 145 77.5 244t202.5 122v279h171v-277
q165 -18 297 -200l-130 -103q-84 157 -240 157q-88 0 -147.5 -54t-59.5 -155q0 -107 126 -183l253 -152q198 -119 197 -309z" />
    <glyph glyph-name="dollar_greater" unicode="&#x24;&#x3e;" horiz-adv-x="2048" 
d="M1176 934v182l737 -402v-215l-737 -401v182l613 327zM1023 287q0 -136 -86.5 -235.5t-210.5 -122.5v-282h-171v279q-217 23 -342 246l125 95q100 -192 293 -192q92 0 156.5 58t64.5 153q0 98 -121 171l-267 161q-189 113 -189 300q0 145 78 244t202 122v279h171v-277
q166 -18 298 -200l-130 -103q-84 157 -240 157q-89 0 -148.5 -54t-59.5 -155q0 -107 127 -183l253 -152q198 -119 197 -309z" />
    <glyph glyph-name="less_plus" unicode="&#x3c;&#x2b;" horiz-adv-x="2048" 
d="M1903 534h-351v-353h-150v353h-351v145h351v354h150v-354h351v-145zM287 609l705 -379v-183l-829 452v215l829 452v-183z" />
    <glyph glyph-name="plus_greater" unicode="&#x2b;&#x3e;" horiz-adv-x="2048" 
d="M145 679h351v354h150v-354h351v-145h-351v-353h-150v353h-351v145zM1056 983v183l829 -452v-215l-829 -452v183l705 379z" />
    <glyph glyph-name="equal_greater_greater" unicode="&#x3d;&#x3e;&#x3e;" horiz-adv-x="3072" 
d="M270 719v145h994v252l936 -509l-936 -510v252h-994v145h1034v-196l585 309l-585 308v-196h-1034zM2073 933v183l829 -452v-115l-829 -452v183l615 327z" />
    <glyph glyph-name="slash_slash_slash" unicode="&#x2f;&#x2f;&#x2f;" horiz-adv-x="3072" 
d="M1944 1526l-640 -1526h-175l640 1526h175zM1114 1526l-640 -1526h-175l640 1526h175zM2773 1526l-640 -1526h-175l640 1526h175z" />
    <glyph glyph-name="equal_equal_equal" unicode="&#x3d;&#x3d;&#x3d;" horiz-adv-x="3072" 
d="M2053 719q0 38 -26.5 64.5t-64.5 26.5t-64.5 -26.5t-26.5 -64.5h-670q0 38 -26.5 64.5t-64.5 26.5t-64.5 -26.5t-26.5 -64.5h-725v145h2484v-145h-725zM2778 494v-145h-2484v145h725q0 -38 26.5 -64.5t64.5 -26.5t64.5 26.5t26.5 64.5h670q0 -38 26.5 -64.5t64.5 -26.5
t64.5 26.5t26.5 64.5h725z" />
    <glyph glyph-name="hyphen_hyphen_hyphen" unicode="&#x2d;&#x2d;&#x2d;" horiz-adv-x="3072" 
d="M2053 534q0 38 -26.5 64.5t-64.5 26.5t-64.5 -26.5t-26.5 -64.5h-670q0 38 -26.5 64.5t-64.5 26.5t-64.5 -26.5t-26.5 -64.5h-725v145h2484v-145h-725z" />
    <glyph glyph-name="exclam_exclam_exclam" unicode="&#x21;&#x21;&#x21;" horiz-adv-x="3072" 
d="M733 1132l-30 -640h-131l-30 640v394h191v-394zM768 110q0 -54 -38.5 -91.5t-92.5 -37.5t-92 37.5t-38 91.5q0 55 38 93t92 38t92.5 -38t38.5 -93zM1632 1132l-30 -640h-131l-30 640v394h191v-394zM1667 110q0 -54 -38.5 -91.5t-92.5 -37.5t-92 37.5t-38 91.5q0 55 38 93
t92 38t92.5 -38t38.5 -93zM2530 1132l-30 -640h-131l-30 640v394h191v-394zM2565 110q0 -54 -38.5 -91.5t-92.5 -37.5t-92 37.5t-38 91.5q0 55 38 93t92 38t92.5 -38t38.5 -93z" />
    <glyph glyph-name="notexistentialexclam" unicode="&#x2204;&#x21;" 
d="M465 1622l-14 -96h147v-1526h-376l-17 -115h-126l17 115h-76v148h99l86 578h-132v144h155l74 511h-282v145h305l14 96h126zM463 148v578h-132l-87 -578h219zM463 870v511h-35l-75 -511h110zM934 1132l-35 -640h-101l-35 640v394h171v-394zM974 110q0 -54 -36 -91.5
t-90 -37.5t-89.5 37.5t-35.5 91.5q0 55 35.5 93t89.5 38t90 -38t36 -93z" />
    <glyph glyph-name="existentialexclam" unicode="&#x2203;&#x21;" 
d="M463 148v578h-390v144h390v511h-443v145h578v-1526h-578v148h443zM934 1132l-35 -640h-101l-35 640v394h171v-394zM974 110q0 -54 -36 -91.5t-90 -37.5t-89.5 37.5t-35.5 91.5q0 55 35.5 93t89.5 38t90 -38t36 -93z" />
    <glyph glyph-name="bar_plus_bar" unicode="&#x7c;&#x2b;&#x7c;" horiz-adv-x="3072" 
d="M740 -362h-160v2057h160v-2057zM2492 -362h-160v2057h160v-2057zM1962 534h-351v-354h-150v354h-351v145h351v354h150v-354h351v-145z" />
    <glyph glyph-name="colon_equivalence" unicode="&#x3a;&#x2261;" horiz-adv-x="2048" 
d="M664 307q0 -78 -56.5 -137t-141.5 -59q-86 0 -141 59t-55 137q0 77 55 137t141 60q85 0 141.5 -60.5t56.5 -136.5zM664 905q0 -78 -56.5 -137t-141.5 -59q-86 0 -141 59t-55 137t55 137.5t141 59.5q85 0 141.5 -60t56.5 -137zM1783 869h-851v145h851v-145zM1783 534h-851
v145h851v-145zM1783 199h-851v145h851v-145z" />
    <glyph glyph-name="numbersign_question" unicode="&#x23;&#x3f;" horiz-adv-x="2048" 
d="M1935 1180q0 -124 -80 -243l-186 -270q-38 -56 -38 -120v-55h-171v56q0 113 68 214l191 280q45 66 45 139q0 83 -54.5 143t-147.5 60q-181 0 -223 -297l-18 -100h-377l-77 -447h197v-145h-222l-68 -395h-171l68 395h-192l-68 -395h-171l68 395h-169v145h194l77 447h-196
v145h221l68 394h171l-68 -394h192l68 394h171l-68 -394h215q39 236 146 326t233 90q163 0 267.5 -106t104.5 -262zM696 540l77 447h-192l-77 -447h192zM1694 110q0 -54 -38 -91.5t-93 -37.5q-54 0 -92 37.5t-38 91.5q0 55 38 93t92 38q55 0 93 -38t38 -93z" />
    <glyph glyph-name="slash_asterisk_asterisk" unicode="&#x2f;&#x2a;&#x2a;" horiz-adv-x="3072" 
d="M1432 778l-197 -297l-130 92l220 282l-344 98l49 152l333 -123l-14 361h165l-13 -361l333 123l49 -152l-344 -98l219 -282l-129 -93zM986 1526l-640 -1526h-175l640 1526h175zM2442 778l-197 -297l-130 92l220 282l-344 98l49 152l333 -123l-14 361h165l-13 -361l333 123
l49 -152l-344 -98l219 -282l-129 -93z" />
    <glyph glyph-name="equivalence_equivalence" unicode="&#x2261;&#x2261;" horiz-adv-x="2048" 
d="M1115 870q0 38 -26.5 64.5t-64.5 26.5t-64.5 -26.5t-26.5 -64.5h-650v145h1482v-145h-650zM1765 344v-145h-1482v145h650q0 -38 26.5 -64.5t64.5 -26.5t64.5 26.5t26.5 64.5h650zM1765 679v-145h-1482v145h1482z" />
    <glyph glyph-name="equivalence_equivalence_equivalence" unicode="&#x2261;&#x2261;&#x2261;" horiz-adv-x="3072" 
d="M2053 870q0 38 -26.5 64.5t-64.5 26.5t-64.5 -26.5t-26.5 -64.5h-670q0 38 -26.5 64.5t-64.5 26.5t-64.5 -26.5t-26.5 -64.5h-725v145h2484v-145h-725zM2778 343v-145h-2484v145h725q0 -38 26.5 -64.5t64.5 -26.5t64.5 26.5t26.5 64.5h670q0 -38 26.5 -64.5t64.5 -26.5
t64.5 26.5t26.5 64.5h725zM2778 679v-145h-2484v145h2484z" />
    <glyph glyph-name="equivalence_colon_equivalence" unicode="&#x2261;&#x3a;&#x2261;" horiz-adv-x="3072" 
d="M1734 307q0 -78 -56.5 -137t-141.5 -59q-86 0 -141 59t-55 137q0 77 55 137t141 60q85 0 141.5 -60.5t56.5 -136.5zM1734 905q0 -78 -56.5 -137t-141.5 -59q-86 0 -141 59t-55 137t55 137.5t141 59.5q85 0 141.5 -60t56.5 -137zM2778 869h-806v145h806v-145zM2778 534
h-806v145h806v-145zM2778 199h-806v145h806v-145zM1100 869h-806v145h806v-145zM1100 534h-806v145h806v-145zM1100 199h-806v145h806v-145z" />
    <glyph glyph-name="exclam_equivalence_equivalence" unicode="&#x21;&#x2261;&#x2261;" horiz-adv-x="3072" 
d="M386 870v145h775l95 198h155l-95 -198h1369v-145h-1438l-91 -191h1529v-145h-1599l-91 -191h1690v-145h-1760l-94 -198h-155l94 198h-384v145h454l91 191h-545v145h615l91 191h-706z" />
    <glyph glyph-name="exclam_equivalence" unicode="&#x21;&#x2261;" horiz-adv-x="2048" 
d="M283 870v145h859l95 198h155l-95 -198h468v-145h-537l-91 -191h628v-145h-698l-91 -190h789v-145h-858l-95 -199h-155l95 199h-469v145h538l91 190h-629v145h699l91 191h-790z" />
    <glyph glyph-name="less_exclam_greater" unicode="&#x3c;&#x21;&#x3e;" horiz-adv-x="3072" 
d="M503 607l616 -327v-183l-829 452v115l829 452v-183zM1953 933v183l829 -452v-115l-829 -452v183l616 327zM1632 992l-30 -650h-131l-30 650v368h191v-368zM1667 -40q0 -54 -38.5 -91.5t-92.5 -37.5t-92 37.5t-38 91.5q0 55 38 93t92 38t92.5 -38t38.5 -93z" />
    <glyph glyph-name="less_at_greater" unicode="&#x3c;&#x40;&#x3e;" horiz-adv-x="3072" 
d="M298 607l661 -356v-182l-785 430v215l785 428v-182zM2113 960v182l785 -428v-215l-785 -430v182l661 356zM1540 1269q-138 0 -225.5 -102t-87.5 -323v-492q0 -204 102 -306t265 -102q224 0 372 152v-180q-142 -120 -375 -120q-225 0 -370.5 145.5t-145.5 410.5v492
q0 283 131 428.5t334 145.5q182 0 304 -114t122 -390v-461q0 -147 -83.5 -230.5t-201.5 -83.5q-117 0 -200 83.5t-83 230.5v187q0 362 244 362q99 0 172 -87v21q0 195 -83 264t-191 69zM1814 680q0 87 -38.5 134t-104.5 47q-118 0 -121 -192v-227q0 -85 38 -123.5t93 -38.5
q56 0 94.5 38.5t38.5 123.5v238z" />
    <glyph glyph-name="less_numbersign_greater" unicode="&#x3c;&#x23;&#x3e;" horiz-adv-x="3072" 
d="M298 607l661 -356v-182l-785 430v215l785 428v-182zM2113 960v182l785 -428v-215l-785 -430v182l661 356zM1983 281h-214l-74 -425h-171l74 425h-250l-73 -425h-171l73 425h-119v145h144l63 363h-190v145h215l73 426h171l-73 -426h250l72 426h171l-72 -426h122v-145h-147
l-62 -363h188v-145zM1624 426l62 363h-250l-63 -363h251z" />
    <glyph glyph-name="less_percent_greater" unicode="&#x3c;&#x25;&#x3e;" horiz-adv-x="3072" 
d="M298 607l661 -356v-182l-785 430v215l785 428v-182zM2113 960v182l785 -428v-215l-785 -430v182l661 356zM1977 1360l-730 -1504h-175l731 1504h174zM1497 1183q0 -88 -54 -142.5t-125 -54.5q-70 0 -123 54.5t-53 142.5q0 86 53 141.5t123 55.5q71 0 125 -55.5t54 -141.5
zM1906 33q0 -88 -54 -142t-124 -54q-71 0 -123.5 54t-52.5 142q0 87 52.5 142t123.5 55q70 0 124 -55.5t54 -141.5z" />
    <glyph glyph-name="less_asciicircum_greater" unicode="&#x3c;^&#x3e;" horiz-adv-x="3072" 
d="M1947 601h-182l-229 698l-236 -698h-174l321 925h176zM298 607l661 -356v-182l-785 430v215l785 428v-182zM2113 960v182l785 -428v-215l-785 -430v182l661 356z" />
    <glyph glyph-name="less_ampersand_greater" unicode="&#x3c;&#x26;&#x3e;" horiz-adv-x="3072" 
d="M298 607l661 -356v-182l-785 430v215l785 428v-182zM2113 960v182l785 -428v-215l-785 -430v182l661 356zM1807 291l208 -383v-52h-149l-133 243q-90 -262 -284 -262q-159 0 -233.5 119.5t-74.5 324.5q0 313 230 486l-46 85q-62 116 -62 220q0 139 80.5 225.5t205.5 86.5
q205 0 279 -247l-149 -61q-38 156 -130 156q-52 0 -83.5 -42.5t-31.5 -127.5q0 -84 80 -232l195 -359l71 237h138v-43zM1449 -13q100 0 153 178l34 115l-194 356q-130 -113 -130 -355q0 -294 137 -294z" />
    <glyph glyph-name="less_question_greater" unicode="&#x3c;&#x3f;&#x3e;" horiz-adv-x="3072" 
d="M298 607l661 -356v-182l-785 430v215l785 428v-182zM2113 960v182l785 -428v-215l-785 -430v182l661 356zM1891 1016q0 -124 -80 -243l-186 -270q-38 -56 -38 -120v-55h-171v56q0 113 68 214l191 280q45 66 45 139q0 83 -54.5 143t-147.5 60q-161 0 -244 -181l-139 92
q141 253 384 253q163 0 267.5 -106t104.5 -262zM1655 -35q0 -54 -38 -91.5t-93 -37.5q-54 0 -92 37.5t-38 91.5q0 55 38 93t92 38q55 0 93 -38t38 -93z" />
    <glyph glyph-name="less_period_greater" unicode="&#x3c;&#x2e;&#x3e;" horiz-adv-x="3072" 
d="M423 607l616 -327v-183l-829 452v115l829 452v-183zM2033 933v183l829 -452v-115l-829 -452v183l616 327zM1734 177q0 -78 -56.5 -137t-141.5 -59q-86 0 -140.5 59t-54.5 137q0 77 54.5 137t140.5 60q85 0 141.5 -60.5t56.5 -136.5z" />
    <glyph glyph-name="less_slash_greater" unicode="&#x3c;&#x2f;&#x3e;" horiz-adv-x="3072" 
d="M298 607l661 -356v-182l-785 430v215l785 428v-182zM2113 960v182l785 -428v-215l-785 -430v182l661 356zM1977 1360l-710 -1504h-195l711 1504h194z" />
    <glyph glyph-name="less_backslash_greater" unicode="&#x3c;\&#x3e;" horiz-adv-x="3072" 
d="M2113 960v182l785 -428v-215l-785 -430v182l661 356zM298 607l661 -356v-182l-785 430v215l785 428v-182zM1279 1360l721 -1504h-195l-710 1504h184z" />
    <glyph glyph-name="less_quotedbl_greater" unicode="&#x3c;&#x22;&#x3e;" horiz-adv-x="3072" 
d="M387 607l616 -327v-183l-829 452v115l829 452v-183zM2071 933v183l829 -452v-115l-829 -452v183l616 327zM1834 954h-171v572h171v-572zM1410 954h-171v572h171v-572z" />
    <glyph glyph-name="less_colon_greater" unicode="&#x3c;&#x3a;&#x3e;" horiz-adv-x="3072" 
d="M453 607l616 -327v-183l-829 452v115l829 452v-183zM2003 933v183l829 -452v-115l-829 -452v183l616 327zM1734 177q0 -78 -56.5 -137t-141.5 -59q-86 0 -140.5 59t-54.5 137q0 77 54.5 137t140.5 60q85 0 141.5 -60.5t56.5 -136.5zM1734 956q0 -78 -56.5 -137
t-141.5 -59q-86 0 -140.5 59t-54.5 137t54.5 137.5t140.5 59.5q85 0 141.5 -60t56.5 -137z" />
    <glyph glyph-name="less_asciitilde_greater" unicode="&#x3c;&#x7e;&#x3e;" horiz-adv-x="3072" 
d="M2020 1118l829 -452v-115l-829 -452v541q-36 0 -54 -25l-61 -83q-75 -100 -210 -100q-136 0 -210 100l-61 83q-19 25 -54 25q-34 0 -53 -25l-61 -83q-73 -98 -205 -100v-333l-829 452v115l829 452v-542q30 2 48 26l61 82q78 100 210 100q133 0 210 -100l61 -82
q20 -26 54 -26q33 0 53 26l61 82q78 100 211 100v334zM2645 609l-555 295v-590zM981 314v590l-555 -295z" />
    <glyph glyph-name="less_asterisk_asterisk_greater" unicode="&#x3c;&#x2a;&#x2a;&#x3e;" horiz-adv-x="4096" 
d="M2550 507l-197 -297l-130 92l220 282l-344 99l49 152l333 -123l-14 360h165l-13 -360l333 123l49 -152l-344 -99l219 -282l-129 -92zM317 607l705 -377v-183l-829 452v215l829 452v-183zM3074 983v183l829 -452v-215l-829 -452v183l705 377zM1546 507l-197 -297l-130 92
l220 282l-344 99l49 152l333 -123l-14 360h165l-13 -360l333 123l49 -152l-344 -99l219 -282l-129 -92z" />
    <glyph glyph-name="greater_greater_asciicircum" unicode="&#x3e;&#x3e;^" horiz-adv-x="3072" 
d="M2932 607h-182l-303 775l-302 -775h-183l388 919h195zM220 983v183l749 -452v-215l-749 -452v183l625 377zM1060 983v183l749 -452v-215l-749 -452v183l625 377z" />
    <glyph glyph-name="asciicircum_less_less" unicode="^&#x3c;&#x3c;" horiz-adv-x="3072" 
d="M527 1526h195l388 -919h-183l-302 775l-303 -775h-182zM2227 607l625 -377v-183l-749 452v215l749 452v-183zM1387 607l625 -377v-183l-749 452v215l749 452v-183z" />
    <glyph glyph-name="less_less_asciicircum" unicode="&#x3c;&#x3c;^" horiz-adv-x="3072" 
d="M2932 607h-182l-303 775l-302 -775h-183l388 919h195zM344 607l625 -377v-183l-749 452v215l749 452v-183zM1184 607l625 -377v-183l-749 452v215l749 452v-183z" />
    <glyph glyph-name="asciicircum_greater_greater" unicode="^&#x3e;&#x3e;" horiz-adv-x="3072" 
d="M527 1526h195l388 -919h-183l-302 775l-303 -775h-182zM2103 983v183l749 -452v-215l-749 -452v183l625 377zM1263 983v183l749 -452v-215l-749 -452v183l625 377z" />
    <glyph glyph-name="less_exclam" unicode="&#x3c;&#x21;" horiz-adv-x="2048" 
d="M384 607l705 -377v-183l-829 452v215l829 452v-183zM1646 1132l-30 -640h-131l-30 640v394h191v-394zM1681 110q0 -54 -38.5 -91.5t-92.5 -37.5t-92 37.5t-38 91.5q0 55 38 93t92 38t92.5 -38t38.5 -93z" />
    <glyph glyph-name="less_at" unicode="&#x3c;&#x40;" horiz-adv-x="2048" 
d="M204 607l705 -377v-183l-829 452v215l829 452v-183zM1479 1399q-138 0 -225.5 -102t-87.5 -323v-437q0 -204 102 -306t265 -102q224 0 372 152v-180q-142 -120 -375 -120q-225 0 -370.5 145.5t-145.5 410.5v437q0 283 131 428.5t334 145.5q182 0 304 -114t122 -390v-406
q0 -147 -83.5 -230.5t-201.5 -83.5q-117 0 -200 83.5t-83 230.5v132q0 362 244 362q99 0 172 -87v21q0 195 -83 264t-191 69zM1753 810q0 87 -38.5 134t-104.5 47q-118 0 -121 -192v-172q0 -85 38 -123.5t93 -38.5q56 0 94.5 38.5t38.5 123.5v183z" />
    <glyph glyph-name="less_numbersign" unicode="&#x3c;&#x23;" horiz-adv-x="2048" 
d="M204 607l705 -377v-183l-829 452v215l829 452v-183zM1883 395h-222l-68 -395h-171l68 395h-192l-68 -395h-171l68 395h-169v145h194l77 447h-196v145h221l68 394h171l-68 -394h192l68 394h171l-68 -394h174v-145h-199l-77 -447h197v-145zM1515 540l77 447h-192l-77 -447
h192z" />
    <glyph glyph-name="less_percent" unicode="&#x3c;&#x25;" horiz-adv-x="2048" 
d="M204 607l705 -377v-183l-829 452v215l829 452v-183zM1862 1526l-640 -1526h-165l641 1526h164zM1402 1349q0 -88 -54 -142.5t-125 -54.5q-70 0 -123 54.5t-53 142.5q0 86 53 141.5t123 55.5q71 0 125 -55.5t54 -141.5zM1871 177q0 -88 -54 -142t-124 -54q-71 0 -123.5 54
t-52.5 142q0 87 52.5 142t123.5 55q70 0 124 -55.5t54 -141.5z" />
    <glyph glyph-name="less_asciicircum" unicode="&#x3c;^" horiz-adv-x="2048" 
d="M204 607l705 -377v-183l-829 452v215l829 452v-183zM1860 601h-182l-229 698l-236 -698h-174l321 925h176z" />
    <glyph glyph-name="less_ampersand" unicode="&#x3c;&#x26;" horiz-adv-x="2048" 
d="M204 607l705 -377v-183l-829 452v215l829 452v-183zM1740 435l208 -383v-52h-149l-133 243q-90 -262 -284 -262q-159 0 -233.5 119.5t-74.5 324.5q0 313 230 486l-46 85q-62 116 -62 230q0 139 80.5 230.5t205.5 91.5q205 0 279 -257l-149 -61q-38 166 -130 166
q-52 0 -83.5 -47.5t-31.5 -132.5q0 -94 80 -242l195 -359l71 237h138v-43zM1382 131q100 0 153 178l34 115l-194 356q-130 -113 -130 -355q0 -294 137 -294z" />
    <glyph glyph-name="less_question" unicode="&#x3c;&#x3f;" horiz-adv-x="2048" 
d="M264 607l705 -377v-183l-829 452v215l829 452v-183zM1883 1180q0 -124 -80 -243l-186 -270q-38 -56 -38 -120v-55h-171v56q0 113 68 214l191 280q45 66 45 139q0 83 -54.5 143t-147.5 60q-161 0 -244 -181l-139 92q141 253 384 253q163 0 267.5 -106t104.5 -262z
M1642 110q0 -54 -38 -91.5t-93 -37.5q-54 0 -92 37.5t-38 91.5q0 55 38 93t92 38q55 0 93 -38t38 -93z" />
    <glyph glyph-name="less_period" unicode="&#x3c;&#x2e;" horiz-adv-x="2048" 
d="M384 607l705 -377v-183l-829 452v215l829 452v-183zM1808 177q0 -78 -56.5 -137t-141.5 -59q-86 0 -140.5 59t-54.5 137q0 77 54.5 137t140.5 60q85 0 141.5 -60.5t56.5 -136.5z" />
    <glyph glyph-name="less_slash" unicode="&#x3c;&#x2f;" horiz-adv-x="2048" 
d="M224 607l705 -377v-183l-829 452v215l829 452v-183zM1897 1526l-640 -1526h-175l640 1526h175z" />
    <glyph glyph-name="less_backslash" unicode="&#x3c;\" horiz-adv-x="2048" 
d="M284 607l705 -377v-183l-829 452v215l829 452v-183zM1238 1526l639 -1526h-156l-639 1526h156z" />
    <glyph glyph-name="less_quotedbl" unicode="&#x3c;&#x22;" horiz-adv-x="2048" 
d="M274 607l705 -377v-183l-829 452v215l829 452v-183zM1827 954h-171v572h171v-572zM1403 954h-171v572h171v-572z" />
    <glyph glyph-name="less_colon" unicode="&#x3c;&#x3a;" horiz-adv-x="2048" 
d="M374 607l705 -377v-183l-829 452v215l829 452v-183zM1798 207q0 -78 -56.5 -137t-141.5 -59q-86 0 -140.5 59t-54.5 137q0 77 54.5 137t140.5 60q85 0 141.5 -60.5t56.5 -136.5zM1798 986q0 -78 -56.5 -137t-141.5 -59q-86 0 -140.5 59t-54.5 137t54.5 137.5t140.5 59.5
q85 0 141.5 -60t56.5 -137z" />
    <glyph glyph-name="exclam_greater" unicode="&#x21;&#x3e;" horiz-adv-x="2048" 
d="M959 983v183l829 -452v-215l-829 -452v183l705 377zM593 1132l-30 -640h-131l-30 640v394h191v-394zM628 110q0 -54 -38.5 -91.5t-92.5 -37.5t-92 37.5t-38 91.5q0 55 38 93t92 38t92.5 -38t38.5 -93z" />
    <glyph glyph-name="at_greater" unicode="&#x40;&#x3e;" horiz-adv-x="2048" 
d="M1139 983v183l829 -452v-215l-829 -452v183l705 377zM608 1399q-138 0 -225.5 -102t-87.5 -323v-437q0 -204 102 -306t265 -102q224 0 372 152v-180q-142 -120 -375 -120q-225 0 -370.5 145.5t-145.5 410.5v437q0 283 131 428.5t334 145.5q182 0 304 -114t122 -390v-406
q0 -147 -83.5 -230.5t-201.5 -83.5q-117 0 -200 83.5t-83 230.5v132q0 362 244 362q99 0 172 -87v21q0 195 -83 264t-191 69zM882 810q0 87 -38.5 134t-104.5 47q-118 0 -121 -192v-172q0 -85 38 -123.5t93 -38.5q56 0 94.5 38.5t38.5 123.5v183z" />
    <glyph glyph-name="question_greater" unicode="&#x3f;&#x3e;" horiz-adv-x="2048" 
d="M1059 983v183l829 -452v-215l-829 -452v183l705 377zM886 1180q0 -124 -80 -243l-186 -270q-38 -56 -38 -120v-55h-171v56q0 113 68 214l191 280q45 66 45 139q0 83 -54.5 143t-147.5 60q-161 0 -244 -181l-139 92q141 253 384 253q163 0 267.5 -106t104.5 -262zM645 110
q0 -54 -38 -91.5t-93 -37.5q-54 0 -92 37.5t-38 91.5q0 55 38 93t92 38q55 0 93 -38t38 -93z" />
    <glyph glyph-name="numbersign_greater" unicode="&#x23;&#x3e;" horiz-adv-x="2048" 
d="M1139 983v183l829 -452v-215l-829 -452v183l705 377zM981 395h-222l-68 -395h-171l68 395h-192l-68 -395h-171l68 395h-169v145h194l77 447h-196v145h221l68 394h171l-68 -394h192l68 394h171l-68 -394h174v-145h-199l-77 -447h197v-145zM613 540l77 447h-192l-77 -447
h192z" />
    <glyph glyph-name="percent_greater" unicode="&#x25;&#x3e;" horiz-adv-x="2048" 
d="M1134 983v183l829 -452v-215l-829 -452v183l705 377zM945 1526l-640 -1526h-165l641 1526h164zM485 1349q0 -88 -54 -142.5t-125 -54.5q-70 0 -123 54.5t-53 142.5q0 86 53 141.5t123 55.5q71 0 125 -55.5t54 -141.5zM954 177q0 -88 -54 -142t-124 -54q-71 0 -123.5 54
t-52.5 142q0 87 52.5 142t123.5 55q70 0 124 -55.5t54 -141.5z" />
    <glyph glyph-name="asciicircum_greater" unicode="^&#x3e;" horiz-adv-x="2048" 
d="M1084 983v183l829 -452v-215l-829 -452v183l705 377zM963 601h-182l-229 698l-236 -698h-174l321 925h176z" />
    <glyph glyph-name="colon_greater" unicode="&#x3a;&#x3e;" horiz-adv-x="2048" 
d="M969 983v183l829 -452v-215l-829 -452v183l705 377zM635 207q0 -78 -56.5 -137t-141.5 -59q-86 0 -140.5 59t-54.5 137q0 77 54.5 137t140.5 60q85 0 141.5 -60.5t56.5 -136.5zM635 986q0 -78 -56.5 -137t-141.5 -59q-86 0 -140.5 59t-54.5 137t54.5 137.5t140.5 59.5
q85 0 141.5 -60t56.5 -137z" />
    <glyph glyph-name="ampersand_greater" unicode="&#x26;&#x3e;" horiz-adv-x="2048" 
d="M1124 983v183l829 -452v-215l-829 -452v183l705 377zM828 435l208 -383v-52h-149l-133 243q-90 -262 -284 -262q-159 0 -233.5 119.5t-74.5 324.5q0 313 230 486l-46 85q-62 116 -62 230q0 139 80.5 230.5t205.5 91.5q205 0 279 -257l-149 -61q-38 166 -130 166
q-52 0 -83.5 -47.5t-31.5 -132.5q0 -94 80 -242l195 -359l71 237h138v-43zM470 131q100 0 153 178l34 115l-194 356q-130 -113 -130 -355q0 -294 137 -294z" />
    <glyph glyph-name="period_greater" unicode="&#x2e;&#x3e;" horiz-adv-x="2048" 
d="M949 983v183l829 -452v-215l-829 -452v183l705 377zM649 177q0 -78 -56.5 -137t-141.5 -59q-86 0 -140.5 59t-54.5 137q0 77 54.5 137t140.5 60q85 0 141.5 -60.5t56.5 -136.5z" />
    <glyph glyph-name="backslash_greater" unicode="\&#x3e;" horiz-adv-x="2048" 
d="M1044 983v183l829 -452v-215l-829 -452v183l705 377zM321 1526l639 -1526h-156l-639 1526h156z" />
    <glyph glyph-name="quotedbl_greater" unicode="&#x22;&#x3e;" horiz-adv-x="2048" 
d="M1044 983v183l829 -452v-215l-829 -452v183l705 377zM810 954h-171v572h171v-572zM386 954h-171v572h171v-572z" />
    <glyph glyph-name="Beeh.isol" unicode="&#x67b;" arabic-form="isolated" 
d="M730 441q0 198 -67 409h150q68 -211 68 -418q0 -355 -345 -355h-58q-335 0 -335 403q0 148 19 351h151q-19 -203 -19 -351q0 -229 193 -229h51q192 0 192 190zM439 -290q0 33 26.5 53t65.5 20t65.5 -20t26.5 -53q0 -35 -26.5 -53.5t-65.5 -18.5t-65.5 18.5t-26.5 53.5z
M439 -77q0 33 26.5 52.5t65.5 19.5t65.5 -19.5t26.5 -52.5q0 -35 -26.5 -54t-65.5 -19t-65.5 19t-26.5 54z" />
    <glyph glyph-name="Beeh.fina" unicode="&#x67b;" arabic-form="final" 
d="M1034 97q-149 0 -224 45q-84 -65 -272 -65h-60q-335 0 -335 403q0 148 19 351h151q-19 -203 -19 -351q0 -229 193 -229h51q192 0 192 181q0 226 -38 418h150q39 -192 39 -438q0 -142 153 -142v-173zM439 -290q0 33 26.5 53t65.5 20t65.5 -20t26.5 -53q0 -35 -26.5 -53.5
t-65.5 -18.5t-65.5 18.5t-26.5 53.5zM439 -77q0 33 26.5 52.5t65.5 19.5t65.5 -19.5t26.5 -52.5q0 -35 -26.5 -54t-65.5 -19t-65.5 19t-26.5 54z" />
    <glyph glyph-name="Beeh.init" unicode="&#x67b;" arabic-form="initial" 
d="M501 470q0 188 -36 380h150q37 -192 37 -380q0 -179 -90.5 -276t-312.5 -97h-268v173h277q142 0 192.5 52t50.5 148zM391 -290q0 33 26.5 53t65.5 20t65.5 -20t26.5 -53q0 -35 -26.5 -53.5t-65.5 -18.5t-65.5 18.5t-26.5 53.5zM391 -77q0 33 26.5 52.5t65.5 19.5
t65.5 -19.5t26.5 -52.5q0 -35 -26.5 -54t-65.5 -19t-65.5 19t-26.5 54z" />
    <glyph glyph-name="Beeh.medi" unicode="&#x67b;" arabic-form="medial" 
d="M776 97q-166 0 -242 63q-101 -63 -246 -63h-307v173h316q97 0 136 42.5t39 128.5q0 217 -38 409h150q39 -192 39 -438q0 -142 153 -142h267v-173h-267zM459 -290q0 33 26.5 53t65.5 20t65.5 -20t26.5 -53q0 -35 -26.5 -53.5t-65.5 -18.5t-65.5 18.5t-26.5 53.5zM459 -77
q0 33 26.5 52.5t65.5 19.5t65.5 -19.5t26.5 -52.5q0 -35 -26.5 -54t-65.5 -19t-65.5 19t-26.5 54z" />
    <glyph glyph-name="Peh.isol" unicode="&#x67e;" arabic-form="isolated" 
d="M730 441q0 198 -67 409h150q68 -211 68 -418q0 -355 -345 -355h-58q-335 0 -335 403q0 148 19 351h151q-19 -203 -19 -351q0 -229 193 -229h51q192 0 192 190zM318 -77q0 34 27 53t65 19q39 0 65.5 -19t26.5 -53q0 -33 -26.5 -53t-65.5 -20q-38 0 -65 20t-27 53zM560 -77
q0 34 26.5 53t65.5 19q38 0 64.5 -19t26.5 -53q0 -33 -26.5 -53t-64.5 -20q-39 0 -65.5 20t-26.5 53zM439 -290q0 35 26.5 54t65.5 19t65.5 -19t26.5 -54q0 -33 -26.5 -52.5t-65.5 -19.5t-65.5 19.5t-26.5 52.5z" />
    <glyph glyph-name="Peh.fina" unicode="&#x67e;" arabic-form="final" 
d="M1034 97q-149 0 -224 45q-84 -65 -272 -65h-60q-335 0 -335 403q0 148 19 351h151q-19 -203 -19 -351q0 -229 193 -229h51q192 0 192 181q0 226 -38 418h150q39 -192 39 -438q0 -142 153 -142v-173zM318 -77q0 34 27 53t65 19q39 0 65.5 -19t26.5 -53q0 -33 -26.5 -53
t-65.5 -20q-38 0 -65 20t-27 53zM560 -77q0 34 26.5 53t65.5 19q38 0 64.5 -19t26.5 -53q0 -33 -26.5 -53t-64.5 -20q-39 0 -65.5 20t-26.5 53zM439 -290q0 35 26.5 54t65.5 19t65.5 -19t26.5 -54q0 -33 -26.5 -52.5t-65.5 -19.5t-65.5 19.5t-26.5 52.5z" />
    <glyph glyph-name="Peh.init" unicode="&#x67e;" arabic-form="initial" 
d="M501 470q0 188 -36 380h150q37 -192 37 -380q0 -179 -90.5 -276t-312.5 -97h-268v173h277q142 0 192.5 52t50.5 148zM212 -77q0 34 27 53t65 19q39 0 65.5 -19t26.5 -53q0 -33 -26.5 -53t-65.5 -20q-38 0 -65 20t-27 53zM454 -77q0 34 26.5 53t65.5 19q38 0 64.5 -19
t26.5 -53q0 -33 -26.5 -53t-64.5 -20q-39 0 -65.5 20t-26.5 53zM333 -290q0 35 26.5 54t65.5 19t65.5 -19t26.5 -54q0 -33 -26.5 -52.5t-65.5 -19.5t-65.5 19.5t-26.5 52.5z" />
    <glyph glyph-name="Peh.medi" unicode="&#x67e;" arabic-form="medial" 
d="M776 97q-166 0 -242 63q-101 -63 -246 -63h-307v173h316q97 0 136 42.5t39 128.5q0 217 -38 409h150q39 -192 39 -438q0 -142 153 -142h267v-173h-267zM338 -77q0 34 27 53t65 19q39 0 65.5 -19t26.5 -53q0 -33 -26.5 -53t-65.5 -20q-38 0 -65 20t-27 53zM580 -77
q0 34 26.5 53t65.5 19q38 0 64.5 -19t26.5 -53q0 -33 -26.5 -53t-64.5 -20q-39 0 -65.5 20t-26.5 53zM459 -290q0 35 26.5 54t65.5 19t65.5 -19t26.5 -54q0 -33 -26.5 -52.5t-65.5 -19.5t-65.5 19.5t-26.5 52.5z" />
    <glyph glyph-name="Beheh.isol" unicode="&#x680;" arabic-form="isolated" 
d="M730 441q0 198 -67 409h150q68 -211 68 -418q0 -355 -345 -355h-58q-335 0 -335 403q0 148 19 351h151q-19 -203 -19 -351q0 -229 193 -229h51q192 0 192 190zM299 -290q0 33 27 53t65 20q39 0 65.5 -20t26.5 -53q0 -35 -26.5 -53.5t-65.5 -18.5q-38 0 -65 18.5t-27 53.5
zM299 -77q0 33 27 52.5t65 19.5q39 0 65.5 -19.5t26.5 -52.5q0 -35 -26.5 -54t-65.5 -19q-38 0 -65 19t-27 54zM541 -270q0 32 26.5 52t65.5 20q38 0 64.5 -20t26.5 -52q0 -35 -26.5 -54t-64.5 -19q-39 0 -65.5 19t-26.5 54zM541 -58q0 33 26.5 52.5t65.5 19.5
q38 0 64.5 -19.5t26.5 -52.5q0 -35 -26.5 -53.5t-64.5 -18.5q-39 0 -65.5 18.5t-26.5 53.5z" />
    <glyph glyph-name="Beheh.fina" unicode="&#x680;" arabic-form="final" 
d="M318 -290q0 33 27 53t65 20q39 0 65.5 -20t26.5 -53q0 -35 -26.5 -53.5t-65.5 -18.5q-38 0 -65 18.5t-27 53.5zM318 -77q0 33 27 52.5t65 19.5q39 0 65.5 -19.5t26.5 -52.5q0 -35 -26.5 -54t-65.5 -19q-38 0 -65 19t-27 54zM560 -270q0 32 26.5 52t65.5 20q38 0 64.5 -20
t26.5 -52q0 -35 -26.5 -54t-64.5 -19q-39 0 -65.5 19t-26.5 54zM560 -58q0 33 26.5 52.5t65.5 19.5q38 0 64.5 -19.5t26.5 -52.5q0 -35 -26.5 -53.5t-64.5 -18.5q-39 0 -65.5 18.5t-26.5 53.5zM1034 97q-149 0 -224 45q-84 -65 -272 -65h-60q-335 0 -335 403q0 148 19 351
h151q-19 -203 -19 -351q0 -229 193 -229h51q192 0 192 181q0 226 -38 418h150q39 -192 39 -438q0 -142 153 -142v-173z" />
    <glyph glyph-name="Beheh.init" unicode="&#x680;" arabic-form="initial" 
d="M501 470q0 188 -36 380h150q37 -192 37 -380q0 -179 -90.5 -276t-312.5 -97h-268v173h277q142 0 192.5 52t50.5 148zM212 -290q0 33 27 53t65 20q39 0 65.5 -20t26.5 -53q0 -35 -26.5 -53.5t-65.5 -18.5q-38 0 -65 18.5t-27 53.5zM212 -77q0 33 27 52.5t65 19.5
q39 0 65.5 -19.5t26.5 -52.5q0 -35 -26.5 -54t-65.5 -19q-38 0 -65 19t-27 54zM454 -270q0 32 26.5 52t65.5 20q38 0 64.5 -20t26.5 -52q0 -35 -26.5 -54t-64.5 -19q-39 0 -65.5 19t-26.5 54zM454 -58q0 33 26.5 52.5t65.5 19.5q38 0 64.5 -19.5t26.5 -52.5
q0 -35 -26.5 -53.5t-64.5 -18.5q-39 0 -65.5 18.5t-26.5 53.5z" />
    <glyph glyph-name="Beheh.medi" unicode="&#x680;" arabic-form="medial" 
d="M776 97q-166 0 -242 63q-101 -63 -246 -63h-307v173h316q97 0 136 42.5t39 128.5q0 217 -38 409h150q39 -192 39 -438q0 -142 153 -142h267v-173h-267zM338 -290q0 33 27 53t65 20q39 0 65.5 -20t26.5 -53q0 -35 -26.5 -53.5t-65.5 -18.5q-38 0 -65 18.5t-27 53.5z
M338 -77q0 33 27 52.5t65 19.5q39 0 65.5 -19.5t26.5 -52.5q0 -35 -26.5 -54t-65.5 -19q-38 0 -65 19t-27 54zM580 -270q0 32 26.5 52t65.5 20q38 0 64.5 -20t26.5 -52q0 -35 -26.5 -54t-64.5 -19q-39 0 -65.5 19t-26.5 54zM580 -58q0 33 26.5 52.5t65.5 19.5
q38 0 64.5 -19.5t26.5 -52.5q0 -35 -26.5 -53.5t-64.5 -18.5q-39 0 -65.5 18.5t-26.5 53.5z" />
    <glyph glyph-name="Tteheh.isol" unicode="&#x67a;" arabic-form="isolated" 
d="M730 441q0 198 -67 409h150q68 -211 68 -418q0 -355 -345 -355h-58q-335 0 -335 403q0 148 19 351h151q-19 -203 -19 -351q0 -229 193 -229h51q192 0 192 190zM410 1103q0 32 26.5 52t65.5 20t65.5 -20t26.5 -52q0 -35 -26.5 -54t-65.5 -19t-65.5 19t-26.5 54zM410 1315
q0 33 26.5 53t65.5 20t65.5 -20t26.5 -53q0 -35 -26.5 -53.5t-65.5 -18.5t-65.5 18.5t-26.5 53.5z" />
    <glyph glyph-name="Tteheh.fina" unicode="&#x67a;" arabic-form="final" 
d="M1034 97q-149 0 -224 45q-84 -65 -272 -65h-60q-335 0 -335 403q0 148 19 351h151q-19 -203 -19 -351q0 -229 193 -229h51q192 0 192 181q0 226 -38 418h150q39 -192 39 -438q0 -142 153 -142v-173zM410 1103q0 32 26.5 52t65.5 20t65.5 -20t26.5 -52q0 -35 -26.5 -54
t-65.5 -19t-65.5 19t-26.5 54zM410 1315q0 33 26.5 53t65.5 20t65.5 -20t26.5 -53q0 -35 -26.5 -53.5t-65.5 -18.5t-65.5 18.5t-26.5 53.5z" />
    <glyph glyph-name="Tteheh.init" unicode="&#x67a;" arabic-form="initial" 
d="M501 470q0 188 -36 380h150q37 -192 37 -380q0 -179 -90.5 -276t-312.5 -97h-268v173h277q142 0 192.5 52t50.5 148zM391 1103q0 32 26.5 52t65.5 20t65.5 -20t26.5 -52q0 -35 -26.5 -54t-65.5 -19t-65.5 19t-26.5 54zM391 1315q0 33 26.5 53t65.5 20t65.5 -20t26.5 -53
q0 -35 -26.5 -53.5t-65.5 -18.5t-65.5 18.5t-26.5 53.5z" />
    <glyph glyph-name="Tteheh.medi" unicode="&#x67a;" arabic-form="medial" 
d="M776 97q-166 0 -242 63q-101 -63 -246 -63h-307v173h316q97 0 136 42.5t39 128.5q0 217 -38 409h150q39 -192 39 -438q0 -142 153 -142h267v-173h-267zM362 1103q0 32 26.5 52t65.5 20t65.5 -20t26.5 -52q0 -35 -26.5 -54t-65.5 -19t-65.5 19t-26.5 54zM362 1315
q0 33 26.5 53t65.5 20t65.5 -20t26.5 -53q0 -35 -26.5 -53.5t-65.5 -18.5t-65.5 18.5t-26.5 53.5z" />
    <glyph glyph-name="Teheh.isol" unicode="&#x67f;" arabic-form="isolated" 
d="M730 441q0 198 -67 409h150q68 -211 68 -418q0 -355 -345 -355h-58q-335 0 -335 403q0 148 19 351h151q-19 -203 -19 -351q0 -229 193 -229h51q192 0 192 190zM280 1093q0 33 27 52.5t65 19.5q39 0 65.5 -19.5t26.5 -52.5q0 -35 -26.5 -53.5t-65.5 -18.5q-38 0 -65 18.5
t-27 53.5zM280 1305q0 33 27 53t65 20q39 0 65.5 -20t26.5 -53q0 -34 -26.5 -53t-65.5 -19q-38 0 -65 19t-27 53zM522 1112q0 33 26.5 53t65.5 20q38 0 64.5 -20t26.5 -53q0 -34 -26.5 -53t-64.5 -19q-39 0 -65.5 19t-26.5 53zM522 1325q0 33 26.5 52.5t65.5 19.5
q38 0 64.5 -19.5t26.5 -52.5q0 -35 -26.5 -54t-64.5 -19q-39 0 -65.5 19t-26.5 54z" />
    <glyph glyph-name="Teheh.fina" unicode="&#x67f;" arabic-form="final" 
d="M1034 97q-149 0 -224 45q-84 -65 -272 -65h-60q-335 0 -335 403q0 148 19 351h151q-19 -203 -19 -351q0 -229 193 -229h51q192 0 192 181q0 226 -38 418h150q39 -192 39 -438q0 -142 153 -142v-173zM280 1093q0 33 27 52.5t65 19.5q39 0 65.5 -19.5t26.5 -52.5
q0 -35 -26.5 -53.5t-65.5 -18.5q-38 0 -65 18.5t-27 53.5zM280 1305q0 33 27 53t65 20q39 0 65.5 -20t26.5 -53q0 -34 -26.5 -53t-65.5 -19q-38 0 -65 19t-27 53zM522 1112q0 33 26.5 53t65.5 20q38 0 64.5 -20t26.5 -53q0 -34 -26.5 -53t-64.5 -19q-39 0 -65.5 19t-26.5 53
zM522 1325q0 33 26.5 52.5t65.5 19.5q38 0 64.5 -19.5t26.5 -52.5q0 -35 -26.5 -54t-64.5 -19q-39 0 -65.5 19t-26.5 54z" />
    <glyph glyph-name="Teheh.init" unicode="&#x67f;" arabic-form="initial" 
d="M501 470q0 188 -36 380h150q37 -192 37 -380q0 -179 -90.5 -276t-312.5 -97h-268v173h277q142 0 192.5 52t50.5 148zM260 1093q0 33 27 52.5t65 19.5q39 0 65.5 -19.5t26.5 -52.5q0 -35 -26.5 -53.5t-65.5 -18.5q-38 0 -65 18.5t-27 53.5zM260 1305q0 33 27 53t65 20
q39 0 65.5 -20t26.5 -53q0 -34 -26.5 -53t-65.5 -19q-38 0 -65 19t-27 53zM502 1112q0 33 26.5 53t65.5 20q38 0 64.5 -20t26.5 -53q0 -34 -26.5 -53t-64.5 -19q-39 0 -65.5 19t-26.5 53zM502 1325q0 33 26.5 52.5t65.5 19.5q38 0 64.5 -19.5t26.5 -52.5q0 -35 -26.5 -54
t-64.5 -19q-39 0 -65.5 19t-26.5 54z" />
    <glyph glyph-name="Teheh.medi" unicode="&#x67f;" arabic-form="medial" 
d="M776 97q-166 0 -242 63q-101 -63 -246 -63h-307v173h316q97 0 136 42.5t39 128.5q0 217 -38 409h150q39 -192 39 -438q0 -142 153 -142h267v-173h-267zM241 1093q0 33 27 52.5t65 19.5q39 0 65.5 -19.5t26.5 -52.5q0 -35 -26.5 -53.5t-65.5 -18.5q-38 0 -65 18.5
t-27 53.5zM241 1305q0 33 27 53t65 20q39 0 65.5 -20t26.5 -53q0 -34 -26.5 -53t-65.5 -19q-38 0 -65 19t-27 53zM483 1112q0 33 26.5 53t65.5 20q38 0 64.5 -20t26.5 -53q0 -34 -26.5 -53t-64.5 -19q-39 0 -65.5 19t-26.5 53zM483 1325q0 33 26.5 52.5t65.5 19.5
q38 0 64.5 -19.5t26.5 -52.5q0 -35 -26.5 -54t-64.5 -19q-39 0 -65.5 19t-26.5 54z" />
    <glyph glyph-name="Tteh.isol" unicode="&#x679;" arabic-form="isolated" 
d="M730 441q0 198 -67 409h150q68 -211 68 -418q0 -355 -345 -355h-58q-335 0 -335 403q0 148 19 351h151q-19 -203 -19 -351q0 -229 193 -229h51q192 0 192 190zM446 1154h58q137 0 137 57q0 42 -60 42q-68 0 -135 -99zM539 1063h-270v91h76v338h102v-216q65 69 151 69
q71 0 108 -35t37 -99q0 -68 -47.5 -108t-156.5 -40z" />
    <glyph glyph-name="Tteh.fina" unicode="&#x679;" arabic-form="final" 
d="M1034 97q-149 0 -224 45q-84 -65 -272 -65h-60q-335 0 -335 403q0 148 19 351h151q-19 -203 -19 -351q0 -229 193 -229h51q192 0 192 181q0 226 -38 418h150q39 -192 39 -438q0 -142 153 -142v-173zM446 1154h58q137 0 137 57q0 42 -60 42q-68 0 -135 -99zM539 1063h-270
v91h76v338h102v-216q65 69 151 69q71 0 108 -35t37 -99q0 -68 -47.5 -108t-156.5 -40z" />
    <glyph glyph-name="Tteh.init" unicode="&#x679;" arabic-form="initial" 
d="M501 470q0 188 -36 380h150q37 -192 37 -380q0 -179 -90.5 -276t-312.5 -97h-268v173h277q142 0 192.5 52t50.5 148zM436 1154h58q137 0 137 57q0 42 -60 42q-68 0 -135 -99zM529 1063h-270v91h76v338h102v-216q65 69 151 69q71 0 108 -35t37 -99q0 -68 -47.5 -108
t-156.5 -40z" />
    <glyph glyph-name="Tteh.medi" unicode="&#x679;" arabic-form="medial" 
d="M776 97q-166 0 -242 63q-101 -63 -246 -63h-307v173h316q97 0 136 42.5t39 128.5q0 217 -38 409h150q39 -192 39 -438q0 -142 153 -142h267v-173h-267zM436 1154h58q137 0 137 57q0 42 -60 42q-68 0 -135 -99zM529 1063h-270v91h76v338h102v-216q65 69 151 69
q71 0 108 -35t37 -99q0 -68 -47.5 -108t-156.5 -40z" />
    <glyph glyph-name="Veh.isol" unicode="&#x6a4;" arabic-form="isolated" 
d="M898 557v-113q0 -154 -96 -260.5t-323 -106.5q-371 0 -371 358q0 104 15 222h148q-12 -121 -12 -221q0 -185 220 -185q162 0 215.5 45t53.5 90q-32 -18 -89 -18q-106 0 -165 65.5t-59 177.5q0 109 68.5 183.5t167.5 74.5q227 0 227 -312zM590 616q0 -35 21.5 -55
t59.5 -20q44 0 77 14v31q0 110 -77 110q-38 0 -59.5 -22.5t-21.5 -57.5zM442 1103q0 32 27 52t65 20q39 0 65.5 -20t26.5 -52q0 -35 -26.5 -54t-65.5 -19q-38 0 -65 19t-27 54zM684 1103q0 32 26.5 52t65.5 20q38 0 64.5 -20t26.5 -52q0 -35 -26.5 -54t-64.5 -19
q-39 0 -65.5 19t-26.5 54zM563 1315q0 33 26.5 53t65.5 20t65.5 -20t26.5 -53q0 -35 -26.5 -53.5t-65.5 -18.5t-65.5 18.5t-26.5 53.5z" />
    <glyph glyph-name="Veh.fina" unicode="&#x6a4;" arabic-form="final" 
d="M898 577q-2 -115 -70 -226q112 -81 175 -81h40v-173h-40q-113 0 -246 104q-92 -124 -278 -124q-371 0 -371 358q0 104 15 222h148q-12 -121 -12 -221q0 -185 220 -185q105 0 151 48l-88 67q-107 82 -107 245q0 109 68.5 183.5t167.5 74.5q227 0 227 -292zM590 597
q0 -72 56 -115l65 -47q37 85 37 151q0 112 -77 112q-38 0 -59.5 -28.5t-21.5 -72.5zM442 1103q0 32 27 52t65 20q39 0 65.5 -20t26.5 -52q0 -35 -26.5 -54t-65.5 -19q-38 0 -65 19t-27 54zM684 1103q0 32 26.5 52t65.5 20q38 0 64.5 -20t26.5 -52q0 -35 -26.5 -54t-64.5 -19
q-39 0 -65.5 19t-26.5 54zM563 1315q0 33 26.5 53t65.5 20t65.5 -20t26.5 -53q0 -35 -26.5 -53.5t-65.5 -18.5t-65.5 18.5t-26.5 53.5z" />
    <glyph glyph-name="Veh.init" unicode="&#x6a4;" arabic-form="initial" 
d="M821 557v-113q0 -145 -96 -246t-323 -101h-421v173h421q152 0 210 40.5t58 93.5q-80 -26 -137 -26q-125 0 -198.5 56t-73.5 177q0 109 68.5 183.5t216.5 74.5q275 0 275 -312zM416 616q0 -65 130 -65q43 0 124 14v21q0 110 -124 110q-130 0 -130 -80zM307 1103
q0 32 27 52t65 20q39 0 65.5 -20t26.5 -52q0 -35 -26.5 -54t-65.5 -19q-38 0 -65 19t-27 54zM549 1103q0 32 26.5 52t65.5 20q38 0 64.5 -20t26.5 -52q0 -35 -26.5 -54t-64.5 -19q-39 0 -65.5 19t-26.5 54zM428 1315q0 33 26.5 53t65.5 20t65.5 -20t26.5 -53
q0 -35 -26.5 -53.5t-65.5 -18.5t-65.5 18.5t-26.5 53.5z" />
    <glyph glyph-name="Veh.medi" unicode="&#x6a4;" arabic-form="medial" 
d="M516 179q-119 -82 -280 -82h-255v173h219q133 0 173 28q-142 114 -142 275q0 127 83 211.5t198 84.5t198 -84.5t83 -211.5q0 -161 -142 -275q40 -28 173 -28h219v-173h-255q-161 0 -272 82zM512 696q-65 0 -95.5 -39.5t-30.5 -90.5q0 -94 126 -189q126 95 126 189
q0 51 -30.5 90.5t-95.5 39.5zM298 1103q0 32 27 52t65 20q39 0 65.5 -20t26.5 -52q0 -35 -26.5 -54t-65.5 -19q-38 0 -65 19t-27 54zM540 1103q0 32 26.5 52t65.5 20q38 0 64.5 -20t26.5 -52q0 -35 -26.5 -54t-64.5 -19q-39 0 -65.5 19t-26.5 54zM419 1315q0 33 26.5 53
t65.5 20t65.5 -20t26.5 -53q0 -35 -26.5 -53.5t-65.5 -18.5t-65.5 18.5t-26.5 53.5z" />
    <glyph glyph-name="Peheh.isol" unicode="&#x6a6;" arabic-form="isolated" 
d="M898 557v-113q0 -154 -96 -260.5t-323 -106.5q-371 0 -371 358q0 104 15 222h148q-12 -121 -12 -221q0 -185 220 -185q162 0 215.5 45t53.5 90q-32 -18 -89 -18q-106 0 -165 65.5t-59 177.5q0 109 68.5 183.5t167.5 74.5q227 0 227 -312zM590 616q0 -35 21.5 -55
t59.5 -20q44 0 77 14v31q0 110 -77 110q-38 0 -59.5 -22.5t-21.5 -57.5zM442 1093q0 33 27 52.5t65 19.5q39 0 65.5 -19.5t26.5 -52.5q0 -35 -26.5 -53.5t-65.5 -18.5q-38 0 -65 18.5t-27 53.5zM442 1305q0 33 27 53t65 20q39 0 65.5 -20t26.5 -53q0 -34 -26.5 -53
t-65.5 -19q-38 0 -65 19t-27 53zM684 1112q0 33 26.5 53t65.5 20q38 0 64.5 -20t26.5 -53q0 -34 -26.5 -53t-64.5 -19q-39 0 -65.5 19t-26.5 53zM684 1325q0 33 26.5 52.5t65.5 19.5q38 0 64.5 -19.5t26.5 -52.5q0 -35 -26.5 -54t-64.5 -19q-39 0 -65.5 19t-26.5 54z" />
    <glyph glyph-name="Peheh.fina" unicode="&#x6a6;" arabic-form="final" 
d="M898 577q-2 -115 -70 -226q112 -81 175 -81h40v-173h-40q-113 0 -246 104q-92 -124 -278 -124q-371 0 -371 358q0 104 15 222h148q-12 -121 -12 -221q0 -185 220 -185q105 0 151 48l-88 67q-107 82 -107 245q0 109 68.5 183.5t167.5 74.5q227 0 227 -292zM590 597
q0 -72 56 -115l65 -47q37 85 37 151q0 112 -77 112q-38 0 -59.5 -28.5t-21.5 -72.5zM442 1093q0 33 27 52.5t65 19.5q39 0 65.5 -19.5t26.5 -52.5q0 -35 -26.5 -53.5t-65.5 -18.5q-38 0 -65 18.5t-27 53.5zM442 1305q0 33 27 53t65 20q39 0 65.5 -20t26.5 -53
q0 -34 -26.5 -53t-65.5 -19q-38 0 -65 19t-27 53zM684 1112q0 33 26.5 53t65.5 20q38 0 64.5 -20t26.5 -53q0 -34 -26.5 -53t-64.5 -19q-39 0 -65.5 19t-26.5 53zM684 1325q0 33 26.5 52.5t65.5 19.5q38 0 64.5 -19.5t26.5 -52.5q0 -35 -26.5 -54t-64.5 -19q-39 0 -65.5 19
t-26.5 54z" />
    <glyph glyph-name="Peheh.init" unicode="&#x6a6;" arabic-form="initial" 
d="M821 557v-113q0 -145 -96 -246t-323 -101h-421v173h421q152 0 210 40.5t58 93.5q-80 -26 -137 -26q-125 0 -198.5 56t-73.5 177q0 109 68.5 183.5t216.5 74.5q275 0 275 -312zM416 616q0 -65 130 -65q43 0 124 14v21q0 110 -124 110q-130 0 -130 -80zM307 1093
q0 33 27 52.5t65 19.5q39 0 65.5 -19.5t26.5 -52.5q0 -35 -26.5 -53.5t-65.5 -18.5q-38 0 -65 18.5t-27 53.5zM307 1305q0 33 27 53t65 20q39 0 65.5 -20t26.5 -53q0 -34 -26.5 -53t-65.5 -19q-38 0 -65 19t-27 53zM549 1112q0 33 26.5 53t65.5 20q38 0 64.5 -20t26.5 -53
q0 -34 -26.5 -53t-64.5 -19q-39 0 -65.5 19t-26.5 53zM549 1325q0 33 26.5 52.5t65.5 19.5q38 0 64.5 -19.5t26.5 -52.5q0 -35 -26.5 -54t-64.5 -19q-39 0 -65.5 19t-26.5 54z" />
    <glyph glyph-name="Peheh.medi" unicode="&#x6a6;" arabic-form="medial" 
d="M516 179q-119 -82 -280 -82h-255v173h219q133 0 173 28q-142 114 -142 275q0 127 83 211.5t198 84.5t198 -84.5t83 -211.5q0 -161 -142 -275q40 -28 173 -28h219v-173h-255q-161 0 -272 82zM512 696q-65 0 -95.5 -39.5t-30.5 -90.5q0 -94 126 -189q126 95 126 189
q0 51 -30.5 90.5t-95.5 39.5zM298 1093q0 33 27 52.5t65 19.5q39 0 65.5 -19.5t26.5 -52.5q0 -35 -26.5 -53.5t-65.5 -18.5q-38 0 -65 18.5t-27 53.5zM298 1305q0 33 27 53t65 20q39 0 65.5 -20t26.5 -53q0 -34 -26.5 -53t-65.5 -19q-38 0 -65 19t-27 53zM540 1112
q0 33 26.5 53t65.5 20q38 0 64.5 -20t26.5 -53q0 -34 -26.5 -53t-64.5 -19q-39 0 -65.5 19t-26.5 53zM540 1325q0 33 26.5 52.5t65.5 19.5q38 0 64.5 -19.5t26.5 -52.5q0 -35 -26.5 -54t-64.5 -19q-39 0 -65.5 19t-26.5 54z" />
    <glyph glyph-name="Dyeh.isol" unicode="&#x684;" arabic-form="isolated" 
d="M620 -362q-226 0 -357.5 131.5t-131.5 340.5q0 387 481 562q-76 4 -167 4h-275v174h275q272 0 475 -84v-99l-264 -115q-373 -163 -373 -442q0 -142 88 -220t240 -78q148 0 326 78l52 -152q-156 -100 -368 -100h-1zM577 77q0 32 26.5 52t65.5 20t65.5 -20t26.5 -52
q0 -35 -26.5 -54t-65.5 -19t-65.5 19t-26.5 54zM577 289q0 33 26.5 53t65.5 20t65.5 -20t26.5 -53q0 -35 -26.5 -53.5t-65.5 -18.5t-65.5 18.5t-26.5 53.5z" />
    <glyph glyph-name="Dyeh.fina" unicode="&#x684;" arabic-form="final" 
d="M1043 97h-120l-437 -2q-203 0 -203 -172q0 -107 58 -276h-150q-60 169 -60 305q0 318 355 318h186q-34 46 -34 137v102q0 167 -180 167h-288v174h288q328 0 328 -330v-113q0 -137 137 -137h120v-173zM555 -290q0 33 26.5 53t65.5 20t65.5 -20t26.5 -53q0 -35 -26.5 -53.5
t-65.5 -18.5t-65.5 18.5t-26.5 53.5zM555 -77q0 33 26.5 52.5t65.5 19.5t65.5 -19.5t26.5 -52.5q0 -35 -26.5 -54t-65.5 -19t-65.5 19t-26.5 54z" />
    <glyph glyph-name="Dyeh.init" unicode="&#x684;" arabic-form="initial" 
d="M0 97h-19v173h19q218 0 430 142l323 214q-129 50 -308 50h-275v174h275q272 0 475 -133v-147l-416 -295q-252 -178 -504 -178zM420 -193q0 33 26.5 53t65.5 20t65.5 -20t26.5 -53q0 -35 -26.5 -53.5t-65.5 -18.5t-65.5 18.5t-26.5 53.5zM420 20q0 33 26.5 52.5t65.5 19.5
t65.5 -19.5t26.5 -52.5q0 -35 -26.5 -54t-65.5 -19t-65.5 19t-26.5 54z" />
    <glyph glyph-name="Dyeh.medi" unicode="&#x684;" arabic-form="medial" 
d="M1043 97h-120q-285 0 -285 325v58l-158 -156q-228 -227 -461 -227h-38v173h38q190 0 351 161l213 212q-27 33 -123 33h-290v174h288q328 0 328 -330v-104q0 -146 137 -146h120v-173zM449 -193q0 33 26.5 53t65.5 20t65.5 -20t26.5 -53q0 -35 -26.5 -53.5t-65.5 -18.5
t-65.5 18.5t-26.5 53.5zM449 20q0 33 26.5 52.5t65.5 19.5t65.5 -19.5t26.5 -52.5q0 -35 -26.5 -54t-65.5 -19t-65.5 19t-26.5 54z" />
    <glyph glyph-name="Nyeh.isol" unicode="&#x683;" arabic-form="isolated" 
d="M620 -362q-226 0 -357.5 131.5t-131.5 340.5q0 387 481 562q-76 4 -167 4h-275v174h275q272 0 475 -84v-99l-264 -115q-373 -163 -373 -442q0 -142 88 -220t240 -78q148 0 326 78l52 -152q-156 -100 -368 -100h-1zM459 178q0 38 26.5 65t64.5 27q39 0 65.5 -27t26.5 -65
q0 -39 -26.5 -65.5t-65.5 -26.5q-38 0 -64.5 26.5t-26.5 65.5zM710 178q0 38 26.5 65t65.5 27q38 0 64.5 -27t26.5 -65q0 -39 -26.5 -65.5t-64.5 -26.5q-39 0 -65.5 26.5t-26.5 65.5z" />
    <glyph glyph-name="Nyeh.fina" unicode="&#x683;" arabic-form="final" 
d="M1043 97h-120l-437 -2q-203 0 -203 -172q0 -107 58 -276h-150q-60 169 -60 305q0 318 355 318h186q-34 46 -34 137v102q0 167 -180 167h-288v174h288q328 0 328 -330v-113q0 -137 137 -137h120v-173zM411 -140q0 38 26.5 64.5t64.5 26.5q39 0 65.5 -26.5t26.5 -64.5
q0 -39 -26.5 -65.5t-65.5 -26.5q-38 0 -64.5 26.5t-26.5 65.5zM662 -140q0 38 26.5 64.5t65.5 26.5q38 0 64.5 -26.5t26.5 -64.5q0 -39 -26.5 -65.5t-64.5 -26.5q-39 0 -65.5 26.5t-26.5 65.5z" />
    <glyph glyph-name="Nyeh.init" unicode="&#x683;" arabic-form="initial" 
d="M0 97h-19v173h19q218 0 430 142l323 214q-129 50 -308 50h-275v174h275q272 0 475 -133v-147l-416 -295q-252 -178 -504 -178zM285 -91q0 38 26.5 64.5t64.5 26.5q39 0 65.5 -26.5t26.5 -64.5q0 -39 -26.5 -65.5t-65.5 -26.5q-38 0 -64.5 26.5t-26.5 65.5zM536 -91
q0 38 26.5 64.5t65.5 26.5q38 0 64.5 -26.5t26.5 -64.5q0 -39 -26.5 -65.5t-64.5 -26.5q-39 0 -65.5 26.5t-26.5 65.5z" />
    <glyph glyph-name="Nyeh.medi" unicode="&#x683;" arabic-form="medial" 
d="M1043 97h-120q-285 0 -285 325v58l-158 -156q-228 -227 -461 -227h-38v173h38q190 0 351 161l213 212q-27 33 -123 33h-290v174h288q328 0 328 -330v-104q0 -146 137 -146h120v-173zM324 -91q0 38 26.5 64.5t64.5 26.5q39 0 65.5 -26.5t26.5 -64.5q0 -39 -26.5 -65.5
t-65.5 -26.5q-38 0 -64.5 26.5t-26.5 65.5zM575 -91q0 38 26.5 64.5t65.5 26.5q38 0 64.5 -26.5t26.5 -64.5q0 -39 -26.5 -65.5t-64.5 -26.5q-39 0 -65.5 26.5t-26.5 65.5z" />
    <glyph glyph-name="Tcheh.isol" unicode="&#x686;" arabic-form="isolated" 
d="M620 -362q-226 0 -357.5 131.5t-131.5 340.5q0 387 481 562q-76 4 -167 4h-275v174h275q272 0 475 -84v-99l-264 -115q-373 -163 -373 -442q0 -142 88 -220t240 -78q148 0 326 78l52 -152q-156 -100 -368 -100h-1zM461 101q0 32 27 52t65 20q39 0 65.5 -20t26.5 -52
q0 -35 -26.5 -54t-65.5 -19q-38 0 -65 19t-27 54zM703 101q0 32 26.5 52t65.5 20q38 0 64.5 -20t26.5 -52q0 -35 -26.5 -54t-64.5 -19q-39 0 -65.5 19t-26.5 54zM582 313q0 33 26.5 53t65.5 20t65.5 -20t26.5 -53q0 -35 -26.5 -53.5t-65.5 -18.5t-65.5 18.5t-26.5 53.5z" />
    <glyph glyph-name="Tcheh.fina" unicode="&#x686;" arabic-form="final" 
d="M1043 97h-120l-437 -2q-203 0 -203 -172q0 -107 58 -276h-150q-60 169 -60 305q0 318 355 318h186q-34 46 -34 137v102q0 167 -180 167h-288v174h288q328 0 328 -330v-113q0 -137 137 -137h120v-173zM415 -77q0 34 27 53t65 19q39 0 65.5 -19t26.5 -53q0 -33 -26.5 -53
t-65.5 -20q-38 0 -65 20t-27 53zM657 -77q0 34 26.5 53t65.5 19q38 0 64.5 -19t26.5 -53q0 -33 -26.5 -53t-64.5 -20q-39 0 -65.5 20t-26.5 53zM536 -290q0 35 26.5 54t65.5 19t65.5 -19t26.5 -54q0 -33 -26.5 -52.5t-65.5 -19.5t-65.5 19.5t-26.5 52.5z" />
    <glyph glyph-name="Tcheh.init" unicode="&#x686;" arabic-form="initial" 
d="M0 97h-19v173h19q218 0 430 142l323 214q-129 50 -308 50h-275v174h275q272 0 475 -133v-147l-416 -295q-252 -178 -504 -178zM299 -77q0 34 27 53t65 19q39 0 65.5 -19t26.5 -53q0 -33 -26.5 -53t-65.5 -20q-38 0 -65 20t-27 53zM541 -77q0 34 26.5 53t65.5 19
q38 0 64.5 -19t26.5 -53q0 -33 -26.5 -53t-64.5 -20q-39 0 -65.5 20t-26.5 53zM420 -290q0 35 26.5 54t65.5 19t65.5 -19t26.5 -54q0 -33 -26.5 -52.5t-65.5 -19.5t-65.5 19.5t-26.5 52.5z" />
    <glyph glyph-name="Tcheh.medi" unicode="&#x686;" arabic-form="medial" 
d="M1043 97h-120q-285 0 -285 325v58l-158 -156q-228 -227 -461 -227h-38v173h38q190 0 351 161l213 212q-27 33 -123 33h-290v174h288q328 0 328 -330v-104q0 -146 137 -146h120v-173zM329 -77q0 34 27 53t65 19q39 0 65.5 -19t26.5 -53q0 -33 -26.5 -53t-65.5 -20
q-38 0 -65 20t-27 53zM571 -77q0 34 26.5 53t65.5 19q38 0 64.5 -19t26.5 -53q0 -33 -26.5 -53t-64.5 -20q-39 0 -65.5 20t-26.5 53zM450 -290q0 35 26.5 54t65.5 19t65.5 -19t26.5 -54q0 -33 -26.5 -52.5t-65.5 -19.5t-65.5 19.5t-26.5 52.5z" />
    <glyph glyph-name="Tcheheh.isol" unicode="&#x687;" arabic-form="isolated" 
d="M620 -362q-226 0 -357.5 131.5t-131.5 340.5q0 387 481 562q-76 4 -167 4h-275v174h275q272 0 475 -84v-99l-264 -115q-373 -163 -373 -442q0 -142 88 -220t240 -78q148 0 326 78l52 -152q-156 -100 -368 -100h-1zM505 74q0 33 27 52.5t65 19.5q39 0 65.5 -19.5
t26.5 -52.5q0 -35 -26.5 -53.5t-65.5 -18.5q-38 0 -65 18.5t-27 53.5zM505 286q0 33 27 53t65 20q39 0 65.5 -20t26.5 -53q0 -34 -26.5 -53t-65.5 -19q-38 0 -65 19t-27 53zM747 93q0 33 26.5 53t65.5 20q38 0 64.5 -20t26.5 -53q0 -34 -26.5 -53t-64.5 -19q-39 0 -65.5 19
t-26.5 53zM747 306q0 33 26.5 52.5t65.5 19.5q38 0 64.5 -19.5t26.5 -52.5q0 -35 -26.5 -54t-64.5 -19q-39 0 -65.5 19t-26.5 54z" />
    <glyph glyph-name="Tcheheh.fina" unicode="&#x687;" arabic-form="final" 
d="M1043 97h-120l-437 -2q-203 0 -203 -172q0 -107 58 -276h-150q-60 169 -60 305q0 318 355 318h186q-34 46 -34 137v102q0 167 -180 167h-288v174h288q328 0 328 -330v-113q0 -137 137 -137h120v-173zM425 -290q0 33 27 53t65 20q39 0 65.5 -20t26.5 -53
q0 -35 -26.5 -53.5t-65.5 -18.5q-38 0 -65 18.5t-27 53.5zM425 -77q0 33 27 52.5t65 19.5q39 0 65.5 -19.5t26.5 -52.5q0 -35 -26.5 -54t-65.5 -19q-38 0 -65 19t-27 54zM667 -270q0 32 26.5 52t65.5 20q38 0 64.5 -20t26.5 -52q0 -35 -26.5 -54t-64.5 -19q-39 0 -65.5 19
t-26.5 54zM667 -58q0 33 26.5 52.5t65.5 19.5q38 0 64.5 -19.5t26.5 -52.5q0 -35 -26.5 -53.5t-64.5 -18.5q-39 0 -65.5 18.5t-26.5 53.5z" />
    <glyph glyph-name="Tcheheh.init" unicode="&#x687;" arabic-form="initial" 
d="M0 97h-19v173h19q218 0 430 142l323 214q-129 50 -308 50h-275v174h275q272 0 475 -133v-147l-416 -295q-252 -178 -504 -178zM299 -290q0 33 27 53t65 20q39 0 65.5 -20t26.5 -53q0 -35 -26.5 -53.5t-65.5 -18.5q-38 0 -65 18.5t-27 53.5zM299 -77q0 33 27 52.5t65 19.5
q39 0 65.5 -19.5t26.5 -52.5q0 -35 -26.5 -54t-65.5 -19q-38 0 -65 19t-27 54zM541 -270q0 32 26.5 52t65.5 20q38 0 64.5 -20t26.5 -52q0 -35 -26.5 -54t-64.5 -19q-39 0 -65.5 19t-26.5 54zM541 -58q0 33 26.5 52.5t65.5 19.5q38 0 64.5 -19.5t26.5 -52.5
q0 -35 -26.5 -53.5t-64.5 -18.5q-39 0 -65.5 18.5t-26.5 53.5z" />
    <glyph glyph-name="Tcheheh.medi" unicode="&#x687;" arabic-form="medial" 
d="M1043 97h-120q-285 0 -285 325v58l-158 -156q-228 -227 -461 -227h-38v173h38q190 0 351 161l213 212q-27 33 -123 33h-290v174h288q328 0 328 -330v-104q0 -146 137 -146h120v-173zM326 -290q0 33 27 53t65 20q39 0 65.5 -20t26.5 -53q0 -35 -26.5 -53.5t-65.5 -18.5
q-38 0 -65 18.5t-27 53.5zM326 -77q0 33 27 52.5t65 19.5q39 0 65.5 -19.5t26.5 -52.5q0 -35 -26.5 -54t-65.5 -19q-38 0 -65 19t-27 54zM568 -270q0 32 26.5 52t65.5 20q38 0 64.5 -20t26.5 -52q0 -35 -26.5 -54t-64.5 -19q-39 0 -65.5 19t-26.5 54zM568 -58
q0 33 26.5 52.5t65.5 19.5q38 0 64.5 -19.5t26.5 -52.5q0 -35 -26.5 -53.5t-64.5 -18.5q-39 0 -65.5 18.5t-26.5 53.5z" />
    <glyph glyph-name="Jeh.isol" unicode="&#x698;" arabic-form="isolated" 
d="M698 403q0 208 -38 447h142q48 -239 48 -447q0 -336 -115.5 -492t-429.5 -156h-270v174h260q228 0 315.5 123t87.5 351zM492 1103q0 32 27 52t65 20q39 0 65.5 -20t26.5 -52q0 -35 -26.5 -54t-65.5 -19q-38 0 -65 19t-27 54zM734 1103q0 32 26.5 52t65.5 20
q38 0 64.5 -20t26.5 -52q0 -35 -26.5 -54t-64.5 -19q-39 0 -65.5 19t-26.5 54zM613 1315q0 33 26.5 53t65.5 20t65.5 -20t26.5 -53q0 -35 -26.5 -53.5t-65.5 -18.5t-65.5 18.5t-26.5 53.5z" />
    <glyph glyph-name="Jeh.fina" unicode="&#x698;" arabic-form="final" 
d="M1003 97q-110 0 -171 34q-66 -377 -536 -377h-261v174h261q228 0 315 114t87 351q0 167 -38 457h142q48 -239 48 -447q0 -133 153 -133h40v-173h-40zM492 1103q0 32 27 52t65 20q39 0 65.5 -20t26.5 -52q0 -35 -26.5 -54t-65.5 -19q-38 0 -65 19t-27 54zM734 1103
q0 32 26.5 52t65.5 20q38 0 64.5 -20t26.5 -52q0 -35 -26.5 -54t-64.5 -19q-39 0 -65.5 19t-26.5 54zM613 1315q0 33 26.5 53t65.5 20t65.5 -20t26.5 -53q0 -35 -26.5 -53.5t-65.5 -18.5t-65.5 18.5t-26.5 53.5z" />
    <glyph glyph-name="Rreh.isol" unicode="&#x691;" arabic-form="isolated" 
d="M698 403q0 208 -38 447h142q48 -239 48 -447q0 -336 -115.5 -492t-429.5 -156h-270v174h260q228 0 315.5 123t87.5 351zM661 1139h58q137 0 137 57q0 42 -60 42q-68 0 -135 -99zM754 1048h-270v91h76v338h102v-216q65 69 151 69q71 0 108 -35t37 -99q0 -68 -47.5 -108
t-156.5 -40z" />
    <glyph glyph-name="Rreh.fina" unicode="&#x691;" arabic-form="final" 
d="M1003 97q-110 0 -171 34q-66 -377 -536 -377h-261v174h261q228 0 315 114t87 351q0 167 -38 457h142q48 -239 48 -447q0 -133 153 -133h40v-173h-40zM642 1139h58q137 0 137 57q0 42 -60 42q-68 0 -135 -99zM735 1048h-270v91h76v338h102v-216q65 69 151 69q71 0 108 -35
t37 -99q0 -68 -47.5 -108t-156.5 -40z" />
    <glyph glyph-name="Keheh.isol" unicode="&#x6a9;" arabic-form="isolated" 
d="M536 77h-77q-335 0 -335 358q0 77 19 222h151q-20 -145 -20 -222q0 -184 194 -184h70q168 0 168 134q0 48 -42 128l-181 325q-50 90 -50 177q0 179 207 262l271 110v-180l-250 -102q-79 -33 -79 -99q0 -51 19 -89l186 -337q68 -120 68 -214q0 -128 -76 -208.5t-241 -80.5
h-2z" />
    <glyph glyph-name="Keheh.fina" unicode="&#x6a9;" arabic-form="final" 
d="M538 77h-79q-335 0 -335 358q0 77 19 222h151q-20 -145 -20 -222q0 -184 194 -184h39q168 0 168 134q0 48 -42 128l-173 317q-50 90 -50 177q0 178 207 261l294 119v-180l-273 -113q-80 -32 -80 -97q0 -50 20 -89l271 -495q79 -143 148 -143h46v-173h-56q-107 0 -180 86
q-76 -106 -269 -106z" />
    <glyph glyph-name="Keheh.init" unicode="&#x6a9;" arabic-form="initial" 
d="M439 97h-458v173h458q168 0 168 115q0 53 -53 106l-311 312q-72 72 -71 181q0 160 173 233l466 189v-179l-430 -177q-56 -28 -56 -80q0 -41 34 -75l298 -301q98 -97 98 -209q0 -128 -75.5 -208t-240.5 -80z" />
    <glyph glyph-name="Keheh.medi" unicode="&#x6a9;" arabic-form="medial" 
d="M997 97q-164 0 -316 188q-50 -188 -291 -188h-409v173h409q168 0 168 115q0 53 -53 110l-262 308q-72 82 -71 181q0 160 173 233l466 189v-179l-430 -177q-56 -28 -56 -80q0 -41 34 -75l412 -485q117 -140 226 -140h46v-173h-46z" />
    <glyph glyph-name="Gaf.isol" unicode="&#x6af;" arabic-form="isolated" 
d="M911 1472l-451 -184v114l451 184v-114zM536 77h-77q-335 0 -335 358q0 77 19 222h151q-20 -145 -20 -222q0 -184 194 -184h70q168 0 168 134q0 48 -52 128l-163 256q-58 90 -58 177q0 178 207 261l271 111v-180l-250 -102q-79 -33 -79 -100q0 -50 25 -89l171 -267
q77 -120 77 -214q0 -128 -76 -208.5t-241 -80.5h-2z" />
    <glyph glyph-name="Gaf.fina" unicode="&#x6af;" arabic-form="final" 
d="M538 77h-79q-335 0 -335 358q0 77 19 222h151q-20 -145 -20 -222q0 -184 194 -184h39q168 0 168 134q0 48 -42 128l-143 256q-57 101 -57 177q0 178 207 261l271 111v-180l-250 -104q-79 -33 -79 -98q0 -45 25 -89l242 -434q79 -143 148 -143h46v-173h-56q-107 0 -180 86
q-76 -106 -269 -106zM911 1472l-451 -184v114l451 184v-114z" />
    <glyph glyph-name="Gaf.init" unicode="&#x6af;" arabic-form="initial" 
d="M439 97h-458v173h458q168 0 168 115q0 63 -60 107l-277 203q-99 72 -98 200q0 160 173 233l466 190v-180l-430 -177q-56 -28 -56 -80q0 -50 44 -82l257 -188q129 -95 129 -226q0 -128 -75.5 -208t-240.5 -80zM811 1472l-591 -242v115l591 243v-116z" />
    <glyph glyph-name="Gaf.medi" unicode="&#x6af;" arabic-form="medial" 
d="M997 97q-164 0 -311 164q-65 -164 -296 -164h-409v173h409q168 0 166 106q0 36 -50 85l-263 253q-72 69 -71 181q0 160 173 233l466 190v-180l-430 -177q-56 -28 -56 -80q0 -41 34 -75l467 -449q91 -87 171 -87h46v-173h-46zM811 1472l-591 -243v116l591 243v-116z" />
    <glyph glyph-name="NoonGhunna.isol" unicode="&#x6ba;" arabic-form="isolated" 
d="M730 12q0 197 -67 408h150q68 -211 68 -418q0 -355 -345 -355h-58q-335 0 -335 403q0 148 19 351h151q-19 -203 -19 -351q0 -229 193 -229h51q192 0 192 191z" />
    <glyph glyph-name="NoonGhunna.fina" unicode="&#x6ba;" arabic-form="final" 
d="M997 97q-73 0 -123 25q7 -70 7 -120q0 -355 -345 -355h-58q-335 0 -335 403q0 148 19 351h151q-19 -203 -19 -351q0 -229 193 -229h51q192 0 192 191q0 197 -67 408h150q39 -150 184 -150h46v-173h-46z" />
    <glyph glyph-name="YehFarsi.isol" unicode="&#x6cc;" arabic-form="isolated" 
d="M501 -184h57q209 0 209 214q0 112 -109 140q-169 43 -169 291q0 192 80.5 300t190.5 108q101 0 167 -74l-78 -125q-42 28 -79 28q-62 0 -96.5 -56t-34.5 -145q0 -136 93 -159q186 -48 186 -289q0 -406 -384 -406h-40q-368 0 -368 417q0 139 25 423h148q-23 -284 -23 -423
q0 -244 225 -244z" />
    <glyph glyph-name="YehFarsi.fina" unicode="&#x6cc;" arabic-form="final" 
d="M1047 97h-38q-175 0 -201 181l-21 157q-8 61 -61 61q-39 0 -61 -34.5t-22 -97.5q-1 -15 5 -60l34 -255q6 -45 6 -85q0 -157 -73 -241.5t-210 -84.5q-279 0 -279 403q0 158 25 442h148q-23 -284 -23 -442q0 -220 129 -220q66 0 97.5 43t31.5 122q0 28 -5 63l-29 219
q-7 53 -7 93q0 147 73 231t170 84q173 0 202 -222l14 -99q10 -85 76 -85h19v-173z" />
    <glyph glyph-name="YehFarsi.init" unicode="&#x6cc;" arabic-form="initial" 
d="M501 470q0 188 -36 380h150q37 -192 37 -380q0 -179 -90.5 -276t-312.5 -97h-268v173h277q142 0 192.5 52t50.5 148zM198 -149q0 38 26.5 64.5t64.5 26.5q39 0 65.5 -26.5t26.5 -64.5q0 -39 -26.5 -65.5t-65.5 -26.5q-38 0 -64.5 26.5t-26.5 65.5zM449 -149
q0 38 26.5 64.5t65.5 26.5q38 0 64.5 -26.5t26.5 -64.5q0 -39 -26.5 -65.5t-64.5 -26.5q-39 0 -65.5 26.5t-26.5 65.5z" />
    <glyph glyph-name="YehFarsi.medi" unicode="&#x6cc;" arabic-form="medial" 
d="M776 97q-166 0 -242 63q-101 -63 -246 -63h-307v173h316q97 0 136 42.5t39 128.5q0 217 -38 409h150q39 -192 39 -438q0 -142 153 -142h267v-173h-267zM276 -149q0 38 26.5 64.5t64.5 26.5q39 0 65.5 -26.5t26.5 -64.5q0 -39 -26.5 -65.5t-65.5 -26.5q-38 0 -64.5 26.5
t-26.5 65.5zM527 -149q0 38 26.5 64.5t65.5 26.5q38 0 64.5 -26.5t26.5 -64.5q0 -39 -26.5 -65.5t-64.5 -26.5q-39 0 -65.5 26.5t-26.5 65.5z" />
    <glyph glyph-name="AlefMaksura.init" unicode="&#x649;" arabic-form="initial" 
d="M501 470q0 188 -36 380h150q37 -192 37 -380q0 -179 -90.5 -276t-312.5 -97h-268v173h277q142 0 192.5 52t50.5 148z" />
    <glyph glyph-name="AlefMaksura.medi" unicode="&#x649;" arabic-form="medial" 
d="M776 97q-166 0 -242 63q-101 -63 -246 -63h-307v173h316q97 0 136 42.5t39 128.5q0 217 -38 409h150q39 -192 39 -438q0 -142 153 -142h267v-173h-267z" />
    <glyph glyph-name="Fatha.isol" unicode="&#xfe76;" arabic-form="isolated" 
d="M768 1412l-511 -160v133l511 161v-134z" />
    <glyph glyph-name="Fatha.medi" unicode="&#xfe77;" arabic-form="medial" 
d="M1035 97h-1046v183h1046v-183zM768 1412l-511 -160v133l511 161v-134z" />
    <glyph glyph-name="Damma.isol" unicode="&#xfe78;" arabic-form="isolated" 
d="M841 1370q0 -132 -123 -184l-51 -23l58 -95l-113 -56l-61 98l-368 -168v137l303 138q-53 86 -53 153q0 76 54 126t150 50q92 0 148 -50t56 -126zM710 1357q0 24 -23 37.5t-54 13.5q-32 0 -51.5 -13.5t-19.5 -37.5q0 -26 17 -52l21 -36l59 26q51 26 51 62z" />
    <glyph glyph-name="Damma.medi" unicode="&#xfe79;" arabic-form="medial" 
d="M841 1370q0 -132 -123 -184l-51 -23l58 -95l-113 -56l-61 98l-368 -168v137l303 138q-53 86 -53 153q0 76 54 126t150 50q92 0 148 -50t56 -126zM710 1357q0 24 -23 37.5t-54 13.5q-32 0 -51.5 -13.5t-19.5 -37.5q0 -26 17 -52l21 -36l59 26q51 26 51 62zM1035 97h-1046
v183h1046v-183z" />
    <glyph glyph-name="Kasra.isol" unicode="&#xfe7a;" arabic-form="isolated" 
d="M768 -202l-511 -160v133l511 161v-134z" />
    <glyph glyph-name="Kasra.medi" unicode="&#xfe7b;" arabic-form="medial" 
d="M768 -202l-511 -160v133l511 161v-134zM1035 97h-1046v183h1046v-183z" />
    <glyph glyph-name="Shadda.isol" unicode="&#xfe7c;" arabic-form="isolated" 
d="M800 1526q20 -61 20 -131q0 -114 -50 -183t-137 -69q-91 0 -123 90q-50 -137 -165 -137q-142 0 -142 179q0 71 29 157h99q-7 -53 -7 -83q0 -93 50 -93q83 0 98 217h102q0 -175 79 -175q52 0 52 135q0 37 -6 93h101z" />
    <glyph glyph-name="Shadda.medi" unicode="&#xfe7d;" arabic-form="medial" 
d="M800 1526q20 -61 20 -131q0 -114 -50 -183t-137 -69q-91 0 -123 90q-50 -137 -165 -137q-142 0 -142 179q0 71 29 157h99q-7 -53 -7 -83q0 -93 50 -93q83 0 98 217h102q0 -175 79 -175q52 0 52 135q0 37 -6 93h101zM1035 97h-1046v183h1046v-183z" />
    <glyph glyph-name="Sukun.isol" unicode="&#xfe7e;" arabic-form="isolated" 
d="M512 1430q-34 0 -55 -31t-21 -75q0 -41 21.5 -64t54.5 -23t54 23t21 64q0 44 -21 75t-54 31zM512 1121q-90 0 -143.5 54t-53.5 142q0 99 56.5 164t140.5 65q83 0 139.5 -65t56.5 -164q0 -88 -52.5 -142t-143.5 -54z" />
    <glyph glyph-name="Sukun.medi" unicode="&#xfe7f;" arabic-form="medial" 
d="M512 1430q-34 0 -55 -31t-21 -75q0 -41 21.5 -64t54.5 -23t54 23t21 64q0 44 -21 75t-54 31zM512 1121q-90 0 -143.5 54t-53.5 142q0 99 56.5 164t140.5 65q83 0 139.5 -65t56.5 -164q0 -88 -52.5 -142t-143.5 -54zM1035 97h-1046v183h1046v-183z" />
    <glyph glyph-name="Hamza.isol" unicode="&#x621;" arabic-form="isolated" 
d="M861 97h-683v173h160v251q0 348 286 348q112 0 218 -73l-71 -145q-60 45 -132 45q-153 0 -153 -169v-257h375v-173z" />
    <glyph glyph-name="AlefMadda.isol" unicode="&#x622;" arabic-form="isolated" 
d="M692 1575q-78 -190 -230 -190q-49 0 -131 34l-178 75l-70 -103l-108 58l128 209l265 -111q43 -20 94 -20q71 0 130 107zM309 97q-39 272 -39 1159h151q0 -887 29 -1159h-141z" />
    <glyph glyph-name="AlefMadda.fina" unicode="&#x622;" arabic-form="final" 
d="M866 1575q-78 -190 -230 -190q-49 0 -131 34l-178 75l-70 -103l-108 58l128 209l265 -111q43 -20 94 -20q71 0 130 107zM757 97q-293 0 -301 383l-12 776h151l8 -776q1 -210 154 -210h286v-173h-286z" />
    <glyph glyph-name="AlefHamza.isol" unicode="&#x623;" arabic-form="isolated" 
d="M583 1391h-437v92h102v90q0 137 129 137h158v-91h-123q-46 0 -45 -47v-89h216v-92zM290 97q-39 272 -39 1159h151q0 -887 29 -1159h-141z" />
    <glyph glyph-name="AlefHamza.fina" unicode="&#x623;" arabic-form="final" 
d="M757 97q-293 0 -301 383l-12 776h151l8 -776q1 -210 154 -210h286v-173h-286zM776 1391h-437v92h101v90q0 137 130 137h158v-91h-123q-46 0 -45 -47v-89h216v-92z" />
    <glyph glyph-name="WawHamza.isol" unicode="&#x624;" arabic-form="isolated" 
d="M879 396v-270q0 -371 -423 -371h-369v174h369q272 0 272 197v62q-70 -14 -127 -14q-156 0 -233 90t-77 245q0 159 85.5 259.5t207.5 100.5q295 0 295 -473zM446 509q0 -69 40.5 -115t117.5 -46q72 0 124 15v81q0 252 -144 252q-57 0 -97.5 -50.5t-40.5 -136.5zM811 1040
h-437v92h102v90q0 137 129 137h158v-91h-123q-46 0 -45 -47v-89h216v-92z" />
    <glyph glyph-name="WawHamza.fina" unicode="&#x624;" arabic-form="final" 
d="M879 97q-39 -342 -481 -342h-311v174h346q286 0 293 168h-87q-174 0 -261 99.5t-87 269.5q0 202 85.5 302.5t207.5 100.5q295 0 295 -473v-126h164v-173h-164zM446 466q0 -94 40.5 -145t155.5 -51h86v126q0 300 -144 300q-58 0 -98 -57t-40 -173zM811 1040h-437v92h102
v90q0 137 129 137h158v-91h-123q-46 0 -45 -47v-89h216v-92z" />
    <glyph glyph-name="AlefHamzaB.isol" unicode="&#x625;" arabic-form="isolated" 
d="M584 -353h-437v92h102v90q0 137 129 137h158v-91h-123q-46 0 -45 -47v-89h216v-92zM310 97q-39 272 -39 1429h151q0 -1157 29 -1429h-141z" />
    <glyph glyph-name="AlefHamzaB.fina" unicode="&#x625;" arabic-form="final" 
d="M787 -353h-437v92h102v90q0 137 129 137h158v-91h-123q-46 0 -45 -47v-89h216v-92zM757 97q-293 0 -301 383l-16 1046h150l13 -1046q1 -210 154 -210h286v-173h-286z" />
    <glyph glyph-name="YehHamza.isol" unicode="&#x626;" arabic-form="isolated" 
d="M501 -184h57q209 0 209 214q0 112 -109 140q-169 43 -169 291q0 192 80.5 300t190.5 108q101 0 167 -74l-78 -125q-42 28 -79 28q-62 0 -96.5 -56t-34.5 -145q0 -136 93 -159q186 -48 186 -289q0 -406 -384 -406h-40q-368 0 -368 417q0 139 25 423h148q-23 -284 -23 -423
q0 -244 225 -244zM576 977h-437v92h102v90q0 137 129 137h158v-91h-123q-46 0 -45 -47v-89h216v-92z" />
    <glyph glyph-name="YehHamza.fina" unicode="&#x626;" arabic-form="final" 
d="M1047 97h-38q-175 0 -201 181l-21 157q-8 61 -61 61q-39 0 -61 -34.5t-22 -97.5q-1 -15 5 -60l34 -255q6 -45 6 -85q0 -157 -73 -241.5t-210 -84.5q-279 0 -279 403q0 158 25 442h148q-23 -284 -23 -442q0 -220 129 -220q66 0 97.5 43t31.5 122q0 28 -5 63l-29 219
q-7 53 -7 93q0 147 73 231t170 84q173 0 202 -222l14 -99q10 -85 76 -85h19v-173zM576 977h-437v92h102v90q0 137 129 137h158v-91h-123q-46 0 -45 -47v-89h216v-92z" />
    <glyph glyph-name="YehHamza.init" unicode="&#x626;" arabic-form="initial" 
d="M704 1040h-437v92h102v90q0 137 129 137h158v-91h-123q-46 0 -45 -47v-89h216v-92zM501 470q0 188 -36 380h150q37 -192 37 -380q0 -179 -90.5 -276t-312.5 -97h-268v173h277q142 0 192.5 52t50.5 148z" />
    <glyph glyph-name="YehHamza.medi" unicode="&#x626;" arabic-form="medial" 
d="M776 97q-166 0 -242 63q-101 -63 -246 -63h-307v173h316q97 0 136 42.5t39 128.5q0 217 -38 409h150q39 -192 39 -438q0 -142 153 -142h267v-173h-267zM704 1040h-437v92h102v90q0 137 129 137h158v-91h-123q-46 0 -45 -47v-89h216v-92z" />
    <glyph glyph-name="Alef.isol" unicode="&#x627;" arabic-form="isolated" 
d="M237 97q-39 272 -39 1429h151q0 -1157 29 -1429h-141z" />
    <glyph glyph-name="Alef.fina" unicode="&#x627;" arabic-form="final" 
d="M757 97q-293 0 -301 383l-16 1046h150l13 -1046q1 -210 154 -210h286v-173h-286z" />
    <glyph glyph-name="Beh.isol" unicode="&#x628;" arabic-form="isolated" 
d="M730 441q0 198 -67 409h150q68 -211 68 -418q0 -355 -345 -355h-58q-335 0 -335 403q0 148 19 351h151q-19 -203 -19 -351q0 -229 193 -229h51q192 0 192 190zM420 -183q0 38 26.5 64.5t65.5 26.5t65.5 -26.5t26.5 -64.5q0 -39 -26.5 -65.5t-65.5 -26.5t-65.5 26.5
t-26.5 65.5z" />
    <glyph glyph-name="Beh.fina" unicode="&#x628;" arabic-form="final" 
d="M1034 97q-149 0 -224 45q-84 -65 -272 -65h-60q-335 0 -335 403q0 148 19 351h151q-19 -203 -19 -351q0 -229 193 -229h51q192 0 192 181q0 226 -38 418h150q39 -192 39 -438q0 -142 153 -142v-173zM439 -183q0 38 26.5 64.5t65.5 26.5t65.5 -26.5t26.5 -64.5
q0 -39 -26.5 -65.5t-65.5 -26.5t-65.5 26.5t-26.5 65.5z" />
    <glyph glyph-name="Beh.init" unicode="&#x628;" arabic-form="initial" 
d="M501 470q0 188 -36 380h150q37 -192 37 -380q0 -179 -90.5 -276t-312.5 -97h-268v173h277q142 0 192.5 52t50.5 148zM420 -183q0 38 26.5 64.5t65.5 26.5t65.5 -26.5t26.5 -64.5q0 -39 -26.5 -65.5t-65.5 -26.5t-65.5 26.5t-26.5 65.5z" />
    <glyph glyph-name="Beh.medi" unicode="&#x628;" arabic-form="medial" 
d="M776 97q-166 0 -242 63q-101 -63 -246 -63h-307v173h316q97 0 136 42.5t39 128.5q0 217 -38 409h150q39 -192 39 -438q0 -142 153 -142h267v-173h-267zM459 -183q0 38 26.5 64.5t65.5 26.5t65.5 -26.5t26.5 -64.5q0 -39 -26.5 -65.5t-65.5 -26.5t-65.5 26.5t-26.5 65.5z
" />
    <glyph glyph-name="TehMarbuta.isol" unicode="&#x629;" arabic-form="isolated" 
d="M512 697q-64 0 -141 -91t-77 -174q0 -90 51 -135.5t166 -45.5q117 0 168 45.5t51 135.5q0 83 -77 174t-141 91zM512 77q-202 0 -289.5 92.5t-87.5 233.5q0 151 112 308.5t265 157.5t265 -157.5t112 -308.5q0 -141 -87.5 -233.5t-289.5 -92.5zM256 1126q0 38 26.5 65
t64.5 27q39 0 65.5 -27t26.5 -65q0 -39 -26.5 -65.5t-65.5 -26.5q-38 0 -64.5 26.5t-26.5 65.5zM507 1126q0 38 26.5 65t65.5 27q38 0 64.5 -27t26.5 -65q0 -39 -26.5 -65.5t-64.5 -26.5q-39 0 -65.5 26.5t-26.5 65.5z" />
    <glyph glyph-name="TehMarbuta.fina" unicode="&#x629;" arabic-form="final" 
d="M959 97q-166 0 -251 94q-130 -65 -285 -65q-216 0 -216 229q0 313 378 437q1 28 3 58h151q-3 -60 -3 -116q0 -178 45.5 -316t177.5 -138h84v-183h-84zM355 385q0 -76 86 -76q96 0 201 35q-42 112 -53 275q-234 -92 -234 -234zM276 1126q0 38 26.5 65t64.5 27
q39 0 65.5 -27t26.5 -65q0 -39 -26.5 -65.5t-65.5 -26.5q-38 0 -64.5 26.5t-26.5 65.5zM527 1126q0 38 26.5 65t65.5 27q38 0 64.5 -27t26.5 -65q0 -39 -26.5 -65.5t-64.5 -26.5q-39 0 -65.5 26.5t-26.5 65.5z" />
    <glyph glyph-name="Teh.isol" unicode="&#x62a;" arabic-form="isolated" 
d="M730 441q0 198 -67 409h150q68 -211 68 -418q0 -355 -345 -355h-58q-335 0 -335 403q0 148 19 351h151q-19 -203 -19 -351q0 -229 193 -229h51q192 0 192 190zM276 1126q0 38 26.5 65t64.5 27q39 0 65.5 -27t26.5 -65q0 -39 -26.5 -65.5t-65.5 -26.5q-38 0 -64.5 26.5
t-26.5 65.5zM527 1126q0 38 26.5 65t65.5 27q38 0 64.5 -27t26.5 -65q0 -39 -26.5 -65.5t-64.5 -26.5q-39 0 -65.5 26.5t-26.5 65.5z" />
    <glyph glyph-name="Teh.fina" unicode="&#x62a;" arabic-form="final" 
d="M1034 97q-149 0 -224 45q-84 -65 -272 -65h-60q-335 0 -335 403q0 148 19 351h151q-19 -203 -19 -351q0 -229 193 -229h51q192 0 192 181q0 226 -38 418h150q39 -192 39 -438q0 -142 153 -142v-173zM276 1126q0 38 26.5 65t64.5 27q39 0 65.5 -27t26.5 -65
q0 -39 -26.5 -65.5t-65.5 -26.5q-38 0 -64.5 26.5t-26.5 65.5zM527 1126q0 38 26.5 65t65.5 27q38 0 64.5 -27t26.5 -65q0 -39 -26.5 -65.5t-64.5 -26.5q-39 0 -65.5 26.5t-26.5 65.5z" />
    <glyph glyph-name="Teh.init" unicode="&#x62a;" arabic-form="initial" 
d="M501 470q0 188 -36 380h150q37 -192 37 -380q0 -179 -90.5 -276t-312.5 -97h-268v173h277q142 0 192.5 52t50.5 148zM256 1126q0 38 26.5 65t64.5 27q39 0 65.5 -27t26.5 -65q0 -39 -26.5 -65.5t-65.5 -26.5q-38 0 -64.5 26.5t-26.5 65.5zM507 1126q0 38 26.5 65t65.5 27
q38 0 64.5 -27t26.5 -65q0 -39 -26.5 -65.5t-64.5 -26.5q-39 0 -65.5 26.5t-26.5 65.5z" />
    <glyph glyph-name="Teh.medi" unicode="&#x62a;" arabic-form="medial" 
d="M776 97q-166 0 -242 63q-101 -63 -246 -63h-307v173h316q97 0 136 42.5t39 128.5q0 217 -38 409h150q39 -192 39 -438q0 -142 153 -142h267v-173h-267zM256 1126q0 38 26.5 65t64.5 27q39 0 65.5 -27t26.5 -65q0 -39 -26.5 -65.5t-65.5 -26.5q-38 0 -64.5 26.5
t-26.5 65.5zM507 1126q0 38 26.5 65t65.5 27q38 0 64.5 -27t26.5 -65q0 -39 -26.5 -65.5t-64.5 -26.5q-39 0 -65.5 26.5t-26.5 65.5z" />
    <glyph glyph-name="Theh.isol" unicode="&#x62b;" arabic-form="isolated" 
d="M730 441q0 198 -67 409h150q68 -211 68 -418q0 -355 -345 -355h-58q-335 0 -335 403q0 148 19 351h151q-19 -203 -19 -351q0 -229 193 -229h51q192 0 192 190zM299 1103q0 32 27 52t65 20q39 0 65.5 -20t26.5 -52q0 -35 -26.5 -54t-65.5 -19q-38 0 -65 19t-27 54z
M541 1103q0 32 26.5 52t65.5 20q38 0 64.5 -20t26.5 -52q0 -35 -26.5 -54t-64.5 -19q-39 0 -65.5 19t-26.5 54zM420 1315q0 33 26.5 53t65.5 20t65.5 -20t26.5 -53q0 -35 -26.5 -53.5t-65.5 -18.5t-65.5 18.5t-26.5 53.5z" />
    <glyph glyph-name="Theh.fina" unicode="&#x62b;" arabic-form="final" 
d="M1034 97q-149 0 -224 45q-84 -65 -272 -65h-60q-335 0 -335 403q0 148 19 351h151q-19 -203 -19 -351q0 -229 193 -229h51q192 0 192 181q0 226 -38 418h150q39 -192 39 -438q0 -142 153 -142v-173zM299 1103q0 32 27 52t65 20q39 0 65.5 -20t26.5 -52q0 -35 -26.5 -54
t-65.5 -19q-38 0 -65 19t-27 54zM541 1103q0 32 26.5 52t65.5 20q38 0 64.5 -20t26.5 -52q0 -35 -26.5 -54t-64.5 -19q-39 0 -65.5 19t-26.5 54zM420 1315q0 33 26.5 53t65.5 20t65.5 -20t26.5 -53q0 -35 -26.5 -53.5t-65.5 -18.5t-65.5 18.5t-26.5 53.5z" />
    <glyph glyph-name="Theh.init" unicode="&#x62b;" arabic-form="initial" 
d="M501 470q0 188 -36 380h150q37 -192 37 -380q0 -179 -90.5 -276t-312.5 -97h-268v173h277q142 0 192.5 52t50.5 148zM270 1103q0 32 27 52t65 20q39 0 65.5 -20t26.5 -52q0 -35 -26.5 -54t-65.5 -19q-38 0 -65 19t-27 54zM512 1103q0 32 26.5 52t65.5 20q38 0 64.5 -20
t26.5 -52q0 -35 -26.5 -54t-64.5 -19q-39 0 -65.5 19t-26.5 54zM391 1315q0 33 26.5 53t65.5 20t65.5 -20t26.5 -53q0 -35 -26.5 -53.5t-65.5 -18.5t-65.5 18.5t-26.5 53.5z" />
    <glyph glyph-name="Theh.medi" unicode="&#x62b;" arabic-form="medial" 
d="M776 97q-166 0 -242 63q-101 -63 -246 -63h-307v173h316q97 0 136 42.5t39 128.5q0 217 -38 409h150q39 -192 39 -438q0 -142 153 -142h267v-173h-267zM270 1103q0 32 27 52t65 20q39 0 65.5 -20t26.5 -52q0 -35 -26.5 -54t-65.5 -19q-38 0 -65 19t-27 54zM512 1103
q0 32 26.5 52t65.5 20q38 0 64.5 -20t26.5 -52q0 -35 -26.5 -54t-64.5 -19q-39 0 -65.5 19t-26.5 54zM391 1315q0 33 26.5 53t65.5 20t65.5 -20t26.5 -53q0 -35 -26.5 -53.5t-65.5 -18.5t-65.5 18.5t-26.5 53.5z" />
    <glyph glyph-name="Jeem.isol" unicode="&#x62c;" arabic-form="isolated" 
d="M620 -362q-226 0 -357.5 131.5t-131.5 340.5q0 387 481 562q-76 4 -167 4h-275v174h275q272 0 475 -84v-99l-264 -115q-373 -163 -373 -442q0 -142 88 -220t240 -78q148 0 326 78l52 -152q-156 -100 -368 -100h-1zM553 189q0 38 26.5 64.5t65.5 26.5t65.5 -26.5
t26.5 -64.5q0 -39 -26.5 -65.5t-65.5 -26.5t-65.5 26.5t-26.5 65.5z" />
    <glyph glyph-name="Jeem.fina" unicode="&#x62c;" arabic-form="final" 
d="M1043 97h-120q-285 0 -285 325v125q-355 -158 -355 -437q0 -123 83 -210.5t235 -87.5q149 0 336 78l52 -152q-176 -100 -387 -100h-1q-226 0 -348 131.5t-122 340.5q0 358 439 545q-34 21 -110 21h-290v174h288q328 0 328 -330v-104q0 -146 137 -146h120v-173zM418 102
q0 38 26.5 65t65.5 27t65.5 -27t26.5 -65q0 -39 -26.5 -65.5t-65.5 -26.5t-65.5 26.5t-26.5 65.5z" />
    <glyph glyph-name="Jeem.init" unicode="&#x62c;" arabic-form="initial" 
d="M0 97h-19v173h19q218 0 430 142l323 214q-129 50 -308 50h-275v174h275q272 0 475 -133v-147l-416 -295q-252 -178 -504 -178zM420 -91q0 38 26.5 64.5t65.5 26.5t65.5 -26.5t26.5 -64.5q0 -39 -26.5 -65.5t-65.5 -26.5t-65.5 26.5t-26.5 65.5z" />
    <glyph glyph-name="Jeem.medi" unicode="&#x62c;" arabic-form="medial" 
d="M1043 97h-120q-285 0 -285 325v58l-158 -156q-228 -227 -461 -227h-38v173h38q190 0 351 161l213 212q-27 33 -123 33h-290v174h288q328 0 328 -330v-104q0 -146 137 -146h120v-173zM450 -91q0 38 26.5 64.5t65.5 26.5t65.5 -26.5t26.5 -64.5q0 -39 -26.5 -65.5
t-65.5 -26.5t-65.5 26.5t-26.5 65.5z" />
    <glyph glyph-name="Hah.isol" unicode="&#x62d;" arabic-form="isolated" 
d="M620 -362q-226 0 -357.5 131.5t-131.5 340.5q0 387 481 562q-76 4 -167 4h-275v174h275q272 0 475 -84v-99l-264 -115q-373 -163 -373 -442q0 -142 88 -220t240 -78q148 0 326 78l52 -152q-156 -100 -368 -100h-1z" />
    <glyph glyph-name="Hah.fina" unicode="&#x62d;" arabic-form="final" 
d="M1043 97h-120q-285 0 -285 325v125q-355 -158 -355 -437q0 -123 83 -210.5t235 -87.5q149 0 336 78l52 -152q-176 -100 -387 -100h-1q-226 0 -348 131.5t-122 340.5q0 358 439 545q-34 21 -110 21h-290v174h288q328 0 328 -330v-104q0 -146 137 -146h120v-173z" />
    <glyph glyph-name="Hah.init" unicode="&#x62d;" arabic-form="initial" 
d="M0 97h-19v173h19q218 0 430 142l323 214q-129 50 -308 50h-275v174h275q272 0 475 -133v-147l-416 -295q-252 -178 -504 -178z" />
    <glyph glyph-name="Hah.medi" unicode="&#x62d;" arabic-form="medial" 
d="M1043 97h-120q-285 0 -285 325v58l-158 -156q-228 -227 -461 -227h-38v173h38q190 0 351 161l213 212q-27 33 -123 33h-290v174h288q328 0 328 -330v-104q0 -146 137 -146h120v-173z" />
    <glyph glyph-name="Khah.isol" unicode="&#x62e;" arabic-form="isolated" 
d="M620 -362q-226 0 -357.5 131.5t-131.5 340.5q0 387 481 562q-76 4 -167 4h-275v174h275q272 0 475 -84v-99l-264 -115q-373 -163 -373 -442q0 -142 88 -220t240 -78q148 0 326 78l52 -152q-156 -100 -368 -100h-1zM420 1126q0 38 26.5 65t65.5 27t65.5 -27t26.5 -65
q0 -39 -26.5 -65.5t-65.5 -26.5t-65.5 26.5t-26.5 65.5z" />
    <glyph glyph-name="Khah.fina" unicode="&#x62e;" arabic-form="final" 
d="M1043 97h-120q-285 0 -285 325v125q-355 -158 -355 -437q0 -123 83 -210.5t235 -87.5q149 0 336 78l52 -152q-176 -100 -387 -100h-1q-226 0 -348 131.5t-122 340.5q0 358 439 545q-34 21 -110 21h-290v174h288q328 0 328 -330v-104q0 -146 137 -146h120v-173zM420 1126
q0 38 26.5 65t65.5 27t65.5 -27t26.5 -65q0 -39 -26.5 -65.5t-65.5 -26.5t-65.5 26.5t-26.5 65.5z" />
    <glyph glyph-name="Khah.init" unicode="&#x62e;" arabic-form="initial" 
d="M0 97h-19v173h19q218 0 430 142l323 214q-129 50 -308 50h-275v174h275q272 0 475 -133v-147l-416 -295q-252 -178 -504 -178zM420 1126q0 38 26.5 65t65.5 27t65.5 -27t26.5 -65q0 -39 -26.5 -65.5t-65.5 -26.5t-65.5 26.5t-26.5 65.5z" />
    <glyph glyph-name="Khah.medi" unicode="&#x62e;" arabic-form="medial" 
d="M1043 97h-120q-285 0 -285 325v58l-158 -156q-228 -227 -461 -227h-38v173h38q190 0 351 161l213 212q-27 33 -123 33h-290v174h288q328 0 328 -330v-104q0 -146 137 -146h120v-173zM420 1126q0 38 26.5 65t65.5 27t65.5 -27t26.5 -65q0 -39 -26.5 -65.5t-65.5 -26.5
t-65.5 26.5t-26.5 65.5z" />
    <glyph glyph-name="Dal.isol" unicode="&#x62f;" arabic-form="isolated" 
d="M761 438q0 117 -113 173t-359 65v174q347 -10 488 -109.5t141 -293.5q0 -352 -434 -352h-393v174h400q270 0 270 169z" />
    <glyph glyph-name="Dal.fina" unicode="&#x62f;" arabic-form="final" 
d="M1014 97q-190 0 -253 80q-108 -72 -335 -84l-335 -16v174l342 15q270 16 270 146q0 143 -113 199t-301 65v174q289 -10 430 -109.5t141 -328.5q0 -142 154 -142h29v-173h-29z" />
    <glyph glyph-name="Thal.isol" unicode="&#x630;" arabic-form="isolated" 
d="M742 438q0 117 -113 173t-359 65v174q347 -10 488 -109.5t141 -293.5q0 -352 -434 -352h-393v174h400q270 0 270 169zM362 1126q0 38 26.5 65t65.5 27t65.5 -27t26.5 -65q0 -39 -26.5 -65.5t-65.5 -26.5t-65.5 26.5t-26.5 65.5z" />
    <glyph glyph-name="Thal.fina" unicode="&#x630;" arabic-form="final" 
d="M1014 97q-190 0 -253 80q-108 -72 -335 -84l-335 -16v174l342 15q270 16 270 146q0 143 -113 199t-301 65v174q289 -10 430 -109.5t141 -328.5q0 -142 154 -142h29v-173h-29zM314 1126q0 38 26.5 65t65.5 27t65.5 -27t26.5 -65q0 -39 -26.5 -65.5t-65.5 -26.5t-65.5 26.5
t-26.5 65.5z" />
    <glyph glyph-name="Reh.isol" unicode="&#x631;" arabic-form="isolated" 
d="M698 403q0 208 -38 447h142q48 -239 48 -447q0 -336 -115.5 -492t-429.5 -156h-270v174h260q228 0 315.5 123t87.5 351z" />
    <glyph glyph-name="Reh.fina" unicode="&#x631;" arabic-form="final" 
d="M1003 97q-110 0 -171 34q-66 -377 -536 -377h-261v174h261q228 0 315 114t87 351q0 167 -38 457h142q48 -239 48 -447q0 -133 153 -133h40v-173h-40z" />
    <glyph glyph-name="Zain.isol" unicode="&#x632;" arabic-form="isolated" 
d="M698 403q0 208 -38 447h142q48 -239 48 -447q0 -336 -115.5 -492t-429.5 -156h-270v174h260q228 0 315.5 123t87.5 351zM521 1126q0 38 26.5 65t65.5 27t65.5 -27t26.5 -65q0 -39 -26.5 -65.5t-65.5 -26.5t-65.5 26.5t-26.5 65.5z" />
    <glyph glyph-name="Zain.fina" unicode="&#x632;" arabic-form="final" 
d="M1003 97q-110 0 -171 34q-66 -377 -536 -377h-261v174h261q228 0 315 114t87 351q0 167 -38 457h142q48 -239 48 -447q0 -133 153 -133h40v-173h-40zM502 1126q0 38 26.5 65t65.5 27t65.5 -27t26.5 -65q0 -39 -26.5 -65.5t-65.5 -26.5t-65.5 26.5t-26.5 65.5z" />
    <glyph glyph-name="Seen.isol" unicode="&#x633;" arabic-form="isolated" 
d="M956 304q0 -227 -162 -227q-85 0 -116 63q-32 -63 -101 -63q-74 0 -94 63v-246q0 -256 -208 -256q-207 0 -207 256q0 254 19 550h126q-20 -296 -20 -516q0 -116 82 -116t82 116v922h126v-517q0 -72 55 -72q56 0 56 72v517h126v-517q0 -72 55 -72q56 0 56 72v517h125v-546
z" />
    <glyph glyph-name="Seen.fina" unicode="&#x633;" arabic-form="final" 
d="M1024 97q-116 0 -151 43q-32 -63 -101 -63q-74 0 -94 63q-32 -63 -101 -63q-74 0 -94 63v-237q0 -256 -208 -256q-207 0 -207 256q0 245 19 619h126q-20 -374 -20 -585q0 -116 82 -116t82 116v913h126v-517q0 -72 55 -72q56 0 56 72v517h126v-517q0 -72 55 -72
q56 0 56 72v517h125v-517q3 -63 68 -63h19v-173h-19z" />
    <glyph glyph-name="Seen.init" unicode="&#x633;" arabic-form="initial" 
d="M926 362q0 -285 -224 -285q-126 0 -176 92q-52 -92 -184 -92q-121 0 -173 92q-57 -72 -154 -72h-34v173h34q83 0 83 116v464h148v-497q0 -102 96 -102t96 102v497h148v-497q0 -102 95 -102q97 0 97 102v497h148v-488z" />
    <glyph glyph-name="Seen.medi" unicode="&#x633;" arabic-form="medial" 
d="M1014 97q-102 0 -158 72q-56 -92 -175 -92q-105 0 -155 92q-52 -92 -184 -92q-121 0 -173 92q-57 -72 -154 -72h-34v173h34q83 0 83 83v497h148v-497q0 -102 96 -102t96 102v497h148v-497q0 -102 95 -102q97 0 97 102v497h148v-496q0 -84 88 -84h29v-173h-29z" />
    <glyph glyph-name="Sheen.isol" unicode="&#x634;" arabic-form="isolated" 
d="M956 304q0 -227 -162 -227q-85 0 -116 63q-32 -63 -101 -63q-74 0 -94 63v-246q0 -256 -208 -256q-207 0 -207 256q0 254 19 550h126q-20 -296 -20 -516q0 -116 82 -116t82 116v922h126v-517q0 -72 55 -72q56 0 56 72v517h126v-517q0 -72 55 -72q56 0 56 72v517h125v-546
zM473 1103q0 32 27 52t65 20q39 0 65.5 -20t26.5 -52q0 -35 -26.5 -54t-65.5 -19q-38 0 -65 19t-27 54zM715 1103q0 32 26.5 52t65.5 20q38 0 64.5 -20t26.5 -52q0 -35 -26.5 -54t-64.5 -19q-39 0 -65.5 19t-26.5 54zM594 1315q0 33 26.5 53t65.5 20t65.5 -20t26.5 -53
q0 -35 -26.5 -53.5t-65.5 -18.5t-65.5 18.5t-26.5 53.5z" />
    <glyph glyph-name="Sheen.fina" unicode="&#x634;" arabic-form="final" 
d="M1024 97q-116 0 -151 43q-32 -63 -101 -63q-74 0 -94 63q-32 -63 -101 -63q-74 0 -94 63v-237q0 -256 -208 -256q-207 0 -207 256q0 245 19 619h126q-20 -374 -20 -585q0 -116 82 -116t82 116v913h126v-517q0 -72 55 -72q56 0 56 72v517h126v-517q0 -72 55 -72
q56 0 56 72v517h125v-517q3 -63 68 -63h19v-173h-19zM454 1103q0 32 27 52t65 20q39 0 65.5 -20t26.5 -52q0 -35 -26.5 -54t-65.5 -19q-38 0 -65 19t-27 54zM696 1103q0 32 26.5 52t65.5 20q38 0 64.5 -20t26.5 -52q0 -35 -26.5 -54t-64.5 -19q-39 0 -65.5 19t-26.5 54z
M575 1315q0 33 26.5 53t65.5 20t65.5 -20t26.5 -53q0 -35 -26.5 -53.5t-65.5 -18.5t-65.5 18.5t-26.5 53.5z" />
    <glyph glyph-name="Sheen.init" unicode="&#x634;" arabic-form="initial" 
d="M926 362q0 -285 -224 -285q-126 0 -176 92q-52 -92 -184 -92q-121 0 -173 92q-57 -72 -154 -72h-34v173h34q83 0 83 116v464h148v-497q0 -102 96 -102t96 102v497h148v-497q0 -102 95 -102q97 0 97 102v497h148v-488zM299 1103q0 32 27 52t65 20q39 0 65.5 -20t26.5 -52
q0 -35 -26.5 -54t-65.5 -19q-38 0 -65 19t-27 54zM541 1103q0 32 26.5 52t65.5 20q38 0 64.5 -20t26.5 -52q0 -35 -26.5 -54t-64.5 -19q-39 0 -65.5 19t-26.5 54zM420 1315q0 33 26.5 53t65.5 20t65.5 -20t26.5 -53q0 -35 -26.5 -53.5t-65.5 -18.5t-65.5 18.5t-26.5 53.5z
" />
    <glyph glyph-name="Sheen.medi" unicode="&#x634;" arabic-form="medial" 
d="M1014 97q-102 0 -158 72q-56 -92 -175 -92q-105 0 -155 92q-52 -92 -184 -92q-121 0 -173 92q-57 -72 -154 -72h-34v173h34q83 0 83 83v497h148v-497q0 -102 96 -102t96 102v497h148v-497q0 -102 95 -102q97 0 97 102v497h148v-496q0 -84 88 -84h29v-173h-29zM299 1103
q0 32 27 52t65 20q39 0 65.5 -20t26.5 -52q0 -35 -26.5 -54t-65.5 -19q-38 0 -65 19t-27 54zM541 1103q0 32 26.5 52t65.5 20q38 0 64.5 -20t26.5 -52q0 -35 -26.5 -54t-64.5 -19q-39 0 -65.5 19t-26.5 54zM420 1315q0 33 26.5 53t65.5 20t65.5 -20t26.5 -53
q0 -35 -26.5 -53.5t-65.5 -18.5t-65.5 18.5t-26.5 53.5z" />
    <glyph glyph-name="Sad.isol" unicode="&#x635;" arabic-form="isolated" 
d="M738 696q-81 0 -118 -141l-72 -285h188q95 0 95 102v174q0 150 -93 150zM68 -106q0 226 19 550h126q-20 -324 -20 -516q0 -116 82 -116t82 116v845h126v-254l12 39q80 311 246 311q215 0 215 -294v-222q0 -256 -230 -256h-91q-122 0 -152 93v-296q0 -256 -208 -256
q-207 0 -207 256z" />
    <glyph glyph-name="Sad.fina" unicode="&#x635;" arabic-form="final" 
d="M1024 97q-71 0 -118 59q-57 -59 -180 -59h-91q-122 0 -152 93v-296q0 -256 -208 -256q-207 0 -207 256q0 226 19 628h126q-20 -402 -20 -594q0 -116 82 -116t82 116v845h126v-254l12 39q80 311 246 311q215 0 215 -294v-193q0 -112 68 -112h19v-173h-19zM738 696
q-81 0 -118 -141l-72 -285h188q95 0 95 102v174q0 150 -93 150z" />
    <glyph glyph-name="Sad.init" unicode="&#x635;" arabic-form="initial" 
d="M647 696q-79 0 -144 -157l-116 -269h210q148 0 148 154v88q0 184 -98 184zM-19 97v173h83q129 0 129 146v357h150v-276l32 92q96 280 277 280q242 0 242 -357v-107q0 -308 -294 -308h-120q-151 0 -208 107q-68 -107 -199 -107h-92z" />
    <glyph glyph-name="Sad.medi" unicode="&#x635;" arabic-form="medial" 
d="M985 97q-91 0 -156 59q-75 -59 -229 -59h-120q-151 0 -208 107q-68 -107 -199 -107h-92v173h83q129 0 129 146v357h150v-276l32 92q96 280 277 280q242 0 242 -357v-134q0 -108 91 -108h58v-173h-58zM647 696q-79 0 -144 -157l-116 -269h210q148 0 148 154v88
q0 184 -98 184z" />
    <glyph glyph-name="Dad.isol" unicode="&#x636;" arabic-form="isolated" 
d="M738 696q-81 0 -118 -141l-72 -285h188q95 0 95 102v174q0 150 -93 150zM68 -106q0 226 19 550h126q-20 -324 -20 -516q0 -116 82 -116t82 116v845h126v-254l12 39q80 311 246 311q215 0 215 -294v-222q0 -256 -230 -256h-91q-122 0 -152 93v-296q0 -256 -208 -256
q-207 0 -207 256zM494 1126q0 38 26.5 65t65.5 27t65.5 -27t26.5 -65q0 -39 -26.5 -65.5t-65.5 -26.5t-65.5 26.5t-26.5 65.5z" />
    <glyph glyph-name="Dad.fina" unicode="&#x636;" arabic-form="final" 
d="M1024 97q-71 0 -118 59q-57 -59 -180 -59h-91q-122 0 -152 93v-296q0 -256 -208 -256q-207 0 -207 256q0 226 19 628h126q-20 -402 -20 -594q0 -116 82 -116t82 116v845h126v-254l12 39q80 311 246 311q215 0 215 -294v-193q0 -112 68 -112h19v-173h-19zM738 696
q-81 0 -118 -141l-72 -285h188q95 0 95 102v174q0 150 -93 150zM494 1126q0 38 26.5 65t65.5 27t65.5 -27t26.5 -65q0 -39 -26.5 -65.5t-65.5 -26.5t-65.5 26.5t-26.5 65.5z" />
    <glyph glyph-name="Dad.init" unicode="&#x636;" arabic-form="initial" 
d="M647 696q-79 0 -144 -157l-116 -269h210q148 0 148 154v88q0 184 -98 184zM-19 97v173h83q129 0 129 146v357h150v-276l32 92q96 280 277 280q242 0 242 -357v-107q0 -308 -294 -308h-120q-151 0 -208 107q-68 -107 -199 -107h-92zM378 1126q0 38 26.5 65t65.5 27
t65.5 -27t26.5 -65q0 -39 -26.5 -65.5t-65.5 -26.5t-65.5 26.5t-26.5 65.5z" />
    <glyph glyph-name="Dad.medi" unicode="&#x636;" arabic-form="medial" 
d="M985 97q-91 0 -156 59q-75 -59 -229 -59h-120q-151 0 -208 107q-68 -107 -199 -107h-92v173h83q129 0 129 146v357h150v-276l32 92q96 280 277 280q242 0 242 -357v-134q0 -108 91 -108h58v-173h-58zM647 696q-79 0 -144 -157l-116 -269h210q148 0 148 154v88
q0 184 -98 184zM369 1126q0 38 26.5 65t65.5 27t65.5 -27t26.5 -65q0 -39 -26.5 -65.5t-65.5 -26.5t-65.5 26.5t-26.5 65.5z" />
    <glyph glyph-name="Tah.isol" unicode="&#x637;" arabic-form="isolated" 
d="M368 1526q0 -758 14 -994l20 57q96 280 277 280q239 0 239 -331v-90q0 -351 -421 -351h-410v173h173q-33 167 -33 1256h141zM415 270h133q223 0 223 178v80q0 168 -96 168q-77 0 -140 -147z" />
    <glyph glyph-name="Tah.fina" unicode="&#x637;" arabic-form="final" 
d="M1024 97q-130 0 -193 72q-106 -72 -334 -72h-410v173h173q-33 167 -33 1256h141q0 -758 14 -994l20 57q96 280 277 280q243 0 243 -331v-128q1 -140 102 -140h19v-173h-19zM419 270h129q223 0 223 178v80q0 168 -103 168q-76 0 -138 -157z" />
    <glyph glyph-name="Tah.init" unicode="&#x637;" arabic-form="initial" 
d="M368 1526q0 -758 14 -994l20 57q96 280 277 280q243 0 243 -331v-90q0 -351 -425 -351h-516v173h279q-33 167 -33 1256h141zM419 270h129q223 0 223 178v80q0 168 -103 168q-76 0 -138 -157z" />
    <glyph glyph-name="Tah.medi" unicode="&#x637;" arabic-form="medial" 
d="M1024 97q-159 0 -222 62q-106 -62 -333 -62h-488v173h250q-33 167 -33 1256h141q0 -758 14 -994l20 57q96 280 277 280q243 0 243 -331v-128q2 -140 131 -140h19v-173h-19zM390 270h129q223 0 223 178v80q0 168 -103 168q-76 0 -138 -157z" />
    <glyph glyph-name="Zah.isol" unicode="&#x638;" arabic-form="isolated" 
d="M368 1526q0 -758 14 -994l20 57q96 280 277 280q239 0 239 -331v-90q0 -351 -421 -351h-410v173h173q-33 167 -33 1256h141zM415 270h133q223 0 223 178v80q0 168 -96 168q-77 0 -140 -147zM578 1126q0 38 26.5 65t65.5 27t65.5 -27t26.5 -65q0 -39 -26.5 -65.5
t-65.5 -26.5t-65.5 26.5t-26.5 65.5z" />
    <glyph glyph-name="Zah.fina" unicode="&#x638;" arabic-form="final" 
d="M1024 97q-130 0 -193 72q-106 -72 -334 -72h-410v173h173q-33 167 -33 1256h141q0 -758 14 -994l20 57q96 280 277 280q243 0 243 -331v-128q1 -140 102 -140h19v-173h-19zM419 270h129q223 0 223 178v80q0 168 -103 168q-76 0 -138 -157zM578 1126q0 38 26.5 65t65.5 27
t65.5 -27t26.5 -65q0 -39 -26.5 -65.5t-65.5 -26.5t-65.5 26.5t-26.5 65.5z" />
    <glyph glyph-name="Zah.init" unicode="&#x638;" arabic-form="initial" 
d="M368 1526q0 -758 14 -994l20 57q96 280 277 280q243 0 243 -331v-90q0 -351 -425 -351h-516v173h279q-33 167 -33 1256h141zM419 270h129q223 0 223 178v80q0 168 -103 168q-76 0 -138 -157zM578 1126q0 38 26.5 65t65.5 27t65.5 -27t26.5 -65q0 -39 -26.5 -65.5
t-65.5 -26.5t-65.5 26.5t-26.5 65.5z" />
    <glyph glyph-name="Zah.medi" unicode="&#x638;" arabic-form="medial" 
d="M1024 97q-159 0 -222 62q-106 -62 -333 -62h-488v173h250q-33 167 -33 1256h141q0 -758 14 -994l20 57q96 280 277 280q243 0 243 -331v-128q2 -140 131 -140h19v-173h-19zM390 270h129q223 0 223 178v80q0 168 -103 168q-76 0 -138 -157zM549 1126q0 38 26.5 65t65.5 27
t65.5 -27t26.5 -65q0 -39 -26.5 -65.5t-65.5 -26.5t-65.5 26.5t-26.5 65.5z" />
    <glyph glyph-name="Ain.isol" unicode="&#x639;" arabic-form="isolated" 
d="M120 52q0 248 202 348q-35 92 -35 180q0 131 74 205.5t214 74.5q113 0 224 -43l-47 -166q-85 35 -155 35q-158 0 -158 -127q0 -58 22 -118l330 81l37 -157l-332 -79q-225 -47 -225 -234q0 -110 75.5 -175t215.5 -65q226 0 414 107l61 -152q-214 -129 -475 -129
q-197 0 -319.5 106t-122.5 308z" />
    <glyph glyph-name="Ain.fina" unicode="&#x639;" arabic-form="final" 
d="M1043 97h-171q-174 0 -284 106l-90 86l-63 -32q-164 -82 -164 -214q0 -111 80.5 -171t220.5 -60q226 0 404 107l61 -152q-196 -129 -455 -129q-198 0 -330 101.5t-132 293.5q0 249 236 349l31 14l-43 43q-97 92 -97 191q0 230 251 230h79q252 0 252 -230
q0 -177 -195 -274q90 -86 238 -86h171v-173zM470 686q-75 0 -74 -60q-1 -44 53 -96l77 -70q154 71 154 166q0 60 -74 60h-136z" />
    <glyph glyph-name="Ain.init" unicode="&#x639;" arabic-form="initial" 
d="M-19 270h147q128 0 212 28q-72 194 -72 282q0 131 73.5 205.5t213.5 74.5q113 0 225 -43l-48 -166q-85 35 -154 35q-159 0 -159 -127q0 -58 56 -211l316 116l57 -156l-435 -159q-145 -52 -282 -52h-150v173z" />
    <glyph glyph-name="Ain.medi" unicode="&#x639;" arabic-form="medial" 
d="M444 686q-74 0 -74 -60q0 -36 40 -90l102 -147l102 147q40 54 40 90q0 60 -74 60h-136zM512 160q-100 -63 -244 -63h-287v173h287q89 0 130 39l-97 128q-80 101 -80 193q0 230 252 230h78q252 0 252 -230q0 -92 -80 -193l-97 -128q41 -39 130 -39h287v-173h-287
q-145 0 -244 63z" />
    <glyph glyph-name="Ghain.isol" unicode="&#x63a;" arabic-form="isolated" 
d="M120 52q0 248 202 348q-35 92 -35 180q0 131 74 205.5t214 74.5q113 0 224 -43l-47 -166q-85 35 -155 35q-158 0 -158 -127q0 -58 22 -118l330 81l37 -157l-332 -79q-225 -47 -225 -234q0 -110 75.5 -175t215.5 -65q226 0 414 107l61 -152q-214 -129 -475 -129
q-197 0 -319.5 106t-122.5 308zM409 1126q0 38 26.5 65t65.5 27t65.5 -27t26.5 -65q0 -39 -26.5 -65.5t-65.5 -26.5t-65.5 26.5t-26.5 65.5z" />
    <glyph glyph-name="Ghain.fina" unicode="&#x63a;" arabic-form="final" 
d="M1043 97h-171q-174 0 -284 106l-90 86l-63 -32q-164 -82 -164 -214q0 -111 80.5 -171t220.5 -60q226 0 404 107l61 -152q-196 -129 -455 -129q-198 0 -330 101.5t-132 293.5q0 249 236 349l31 14l-43 43q-97 92 -97 191q0 230 251 230h79q252 0 252 -230
q0 -177 -195 -274q90 -86 238 -86h171v-173zM470 686q-75 0 -74 -60q-1 -44 53 -96l77 -70q154 71 154 166q0 60 -74 60h-136zM467 1126q0 38 26.5 65t65.5 27t65.5 -27t26.5 -65q0 -39 -26.5 -65.5t-65.5 -26.5t-65.5 26.5t-26.5 65.5z" />
    <glyph glyph-name="Ghain.init" unicode="&#x63a;" arabic-form="initial" 
d="M-19 270h147q128 0 212 28q-72 194 -72 282q0 131 73.5 205.5t213.5 74.5q113 0 225 -43l-48 -166q-85 35 -154 35q-159 0 -159 -127q0 -58 56 -211l316 116l57 -156l-435 -159q-145 -52 -282 -52h-150v173zM390 1126q0 38 26.5 65t65.5 27t65.5 -27t26.5 -65
q0 -39 -26.5 -65.5t-65.5 -26.5t-65.5 26.5t-26.5 65.5z" />
    <glyph glyph-name="Ghain.medi" unicode="&#x63a;" arabic-form="medial" 
d="M444 686q-74 0 -74 -60q0 -36 40 -90l102 -147l102 147q40 54 40 90q0 60 -74 60h-136zM512 160q-100 -63 -244 -63h-287v173h287q89 0 130 39l-97 128q-80 101 -80 193q0 230 252 230h78q252 0 252 -230q0 -92 -80 -193l-97 -128q41 -39 130 -39h287v-173h-287
q-145 0 -244 63zM409 1126q0 38 26.5 65t65.5 27t65.5 -27t26.5 -65q0 -39 -26.5 -65.5t-65.5 -26.5t-65.5 26.5t-26.5 65.5z" />
    <glyph glyph-name="Feh.isol" unicode="&#x641;" arabic-form="isolated" 
d="M898 557v-113q0 -154 -96 -260.5t-323 -106.5q-371 0 -371 358q0 104 15 222h148q-12 -121 -12 -221q0 -185 220 -185q162 0 215.5 45t53.5 90q-32 -18 -89 -18q-106 0 -165 65.5t-59 177.5q0 109 68.5 183.5t167.5 74.5q227 0 227 -312zM590 616q0 -35 21.5 -55
t59.5 -20q44 0 77 14v31q0 110 -77 110q-38 0 -59.5 -22.5t-21.5 -57.5zM546 1126q0 38 26.5 65t65.5 27t65.5 -27t26.5 -65q0 -39 -26.5 -65.5t-65.5 -26.5t-65.5 26.5t-26.5 65.5z" />
    <glyph glyph-name="Feh.fina" unicode="&#x641;" arabic-form="final" 
d="M898 577q-2 -115 -70 -226q112 -81 175 -81h40v-173h-40q-113 0 -246 104q-92 -124 -278 -124q-371 0 -371 358q0 104 15 222h148q-12 -121 -12 -221q0 -185 220 -185q105 0 151 48l-88 67q-107 82 -107 245q0 109 68.5 183.5t167.5 74.5q227 0 227 -292zM590 597
q0 -72 56 -115l65 -47q37 85 37 151q0 112 -77 112q-38 0 -59.5 -28.5t-21.5 -72.5zM546 1126q0 38 26.5 65t65.5 27t65.5 -27t26.5 -65q0 -39 -26.5 -65.5t-65.5 -26.5t-65.5 26.5t-26.5 65.5z" />
    <glyph glyph-name="Feh.init" unicode="&#x641;" arabic-form="initial" 
d="M821 557v-113q0 -145 -96 -246t-323 -101h-421v173h421q152 0 210 40.5t58 93.5q-80 -26 -137 -26q-125 0 -198.5 56t-73.5 177q0 109 68.5 183.5t216.5 74.5q275 0 275 -312zM416 616q0 -65 130 -65q43 0 124 14v21q0 110 -124 110q-130 0 -130 -80zM430 1126
q0 38 26.5 65t65.5 27t65.5 -27t26.5 -65q0 -39 -26.5 -65.5t-65.5 -26.5t-65.5 26.5t-26.5 65.5z" />
    <glyph glyph-name="Feh.medi" unicode="&#x641;" arabic-form="medial" 
d="M516 179q-119 -82 -280 -82h-255v173h219q133 0 173 28q-142 114 -142 275q0 127 83 211.5t198 84.5t198 -84.5t83 -211.5q0 -161 -142 -275q40 -28 173 -28h219v-173h-255q-161 0 -272 82zM512 696q-65 0 -95.5 -39.5t-30.5 -90.5q0 -94 126 -189q126 95 126 189
q0 51 -30.5 90.5t-95.5 39.5zM420 1126q0 38 26.5 65t65.5 27t65.5 -27t26.5 -65q0 -39 -26.5 -65.5t-65.5 -26.5t-65.5 26.5t-26.5 65.5z" />
    <glyph glyph-name="Qaf.isol" unicode="&#x642;" arabic-form="isolated" 
d="M908 470v-238q0 -300 -102.5 -447t-302.5 -147h-44q-333 0 -333 449q0 153 24 357h148q-22 -207 -22 -366q0 -266 209 -266h29q123 0 183 80.5t60 319.5q-22 -9 -69 -9q-106 0 -165 80.5t-59 230.5q0 157 63.5 256t163.5 99q217 0 217 -399zM619 514q0 -74 22 -105.5
t69 -31.5q24 0 47 5v88q0 226 -66 226q-72 0 -72 -182zM441 1126q0 38 26.5 65t64.5 27q39 0 65.5 -27t26.5 -65q0 -39 -26.5 -65.5t-65.5 -26.5q-38 0 -64.5 26.5t-26.5 65.5zM692 1126q0 38 26.5 65t65.5 27q38 0 64.5 -27t26.5 -65q0 -39 -26.5 -65.5t-64.5 -26.5
q-39 0 -65.5 26.5t-26.5 65.5z" />
    <glyph glyph-name="Qaf.fina" unicode="&#x642;" arabic-form="final" 
d="M1014 97q-82 4 -111 14q-15 -208 -97 -325q-103 -147 -303 -147q-377 0 -377 525q0 153 24 319h148q-22 -169 -22 -327q0 -343 238 -343q123 0 183 94.5t60 251.5q-156 54 -224.5 139.5t-68.5 234.5q0 138 63.5 237t163.5 99q217 0 217 -399v-187q37 -13 106 -13h29v-173
h-29zM619 533q0 -149 138 -197v134q0 226 -66 226q-72 0 -72 -163zM692 1125q0 39 26.5 65.5t64.5 26.5q39 0 65.5 -26.5t26.5 -65.5q0 -38 -26.5 -64.5t-65.5 -26.5q-38 0 -64.5 26.5t-26.5 64.5zM440 1125q0 39 27 65.5t65 26.5q39 0 65.5 -26.5t26.5 -65.5
q0 -38 -26.5 -64.5t-65.5 -26.5q-38 0 -65 26.5t-27 64.5z" />
    <glyph glyph-name="Qaf.init" unicode="&#x642;" arabic-form="initial" 
d="M821 557v-113q0 -145 -96 -246t-323 -101h-421v173h421q152 0 210 40.5t58 93.5q-80 -26 -137 -26q-125 0 -198.5 56t-73.5 177q0 109 68.5 183.5t216.5 74.5q275 0 275 -312zM416 616q0 -65 130 -65q43 0 124 14v21q0 110 -124 110q-130 0 -130 -80zM295 1126
q0 38 26.5 65t64.5 27q39 0 65.5 -27t26.5 -65q0 -39 -26.5 -65.5t-65.5 -26.5q-38 0 -64.5 26.5t-26.5 65.5zM546 1126q0 38 26.5 65t65.5 27q38 0 64.5 -27t26.5 -65q0 -39 -26.5 -65.5t-64.5 -26.5q-39 0 -65.5 26.5t-26.5 65.5z" />
    <glyph glyph-name="Qaf.medi" unicode="&#x642;" arabic-form="medial" 
d="M516 179q-119 -82 -280 -82h-255v173h219q133 0 173 28q-142 114 -142 275q0 127 83 211.5t198 84.5t198 -84.5t83 -211.5q0 -161 -142 -275q40 -28 173 -28h219v-173h-255q-161 0 -272 82zM512 696q-65 0 -95.5 -39.5t-30.5 -90.5q0 -94 126 -189q126 95 126 189
q0 51 -30.5 90.5t-95.5 39.5zM285 1126q0 38 26.5 65t64.5 27q39 0 65.5 -27t26.5 -65q0 -39 -26.5 -65.5t-65.5 -26.5q-38 0 -64.5 26.5t-26.5 65.5zM536 1126q0 38 26.5 65t65.5 27q38 0 64.5 -27t26.5 -65q0 -39 -26.5 -65.5t-64.5 -26.5q-39 0 -65.5 26.5t-26.5 65.5z
" />
    <glyph glyph-name="Kaf.isol" unicode="&#x643;" arabic-form="isolated" 
d="M478 857q70 0 70 -70v-102q0 -137 -130 -137h-212v91h178q45 0 44 47v79h-153q-69 0 -69 70v102q0 137 129 137h203v-91l-168 -1q-45 1 -44 -46v-79h152zM728 245q0 431 -67 1281h150q68 -850 68 -1281q0 -254 -106.5 -382t-323.5 -128q-337 0 -337 394q0 114 19 259h151
q-19 -145 -19 -259q0 -218 199 -218q134 0 200 87t66 247z" />
    <glyph glyph-name="Kaf.fina" unicode="&#x643;" arabic-form="final" 
d="M1014 97q-88 0 -135 41q-7 -154 -107 -274q-106 -129 -323 -129q-337 0 -337 394q0 114 19 259h151q-19 -145 -19 -259q0 -218 199 -218q134 0 200 87t66 247q0 393 -48 1281h151q31 -659 43 -1131q9 -125 140 -125h29v-173h-29zM478 857q70 0 70 -70v-102
q0 -137 -130 -137h-212v91h178q45 0 44 47v79h-153q-69 0 -69 70v102q0 137 129 137h203v-91l-168 -1q-45 1 -44 -46v-79h152z" />
    <glyph glyph-name="Kaf.init" unicode="&#x643;" arabic-form="initial" 
d="M439 97h-458v173h458q168 0 168 115q0 53 -53 106l-311 312q-72 72 -71 181q0 160 173 233l466 189v-179l-430 -177q-56 -28 -56 -80q0 -41 34 -75l298 -301q98 -97 98 -209q0 -128 -75.5 -208t-240.5 -80z" />
    <glyph glyph-name="Kaf.medi" unicode="&#x643;" arabic-form="medial" 
d="M997 97q-164 0 -316 188q-50 -188 -291 -188h-409v173h409q168 0 168 115q0 53 -53 110l-262 308q-72 82 -71 181q0 160 173 233l466 189v-179l-430 -177q-56 -28 -56 -80q0 -41 34 -75l412 -485q117 -140 226 -140h46v-173h-46z" />
    <glyph glyph-name="Lam.isol" unicode="&#x644;" arabic-form="isolated" 
d="M728 245q0 431 -67 1281h150q68 -850 68 -1281q0 -254 -106.5 -382t-323.5 -128q-337 0 -337 394q0 114 19 259h151q-19 -145 -19 -259q0 -218 199 -218q134 0 200 87t66 247z" />
    <glyph glyph-name="Lam.fina" unicode="&#x644;" arabic-form="final" 
d="M1024 97q-85 0 -146 31q-5 -143 -106 -264q-106 -129 -323 -129q-337 0 -337 394q0 114 19 259h151q-19 -145 -19 -259q0 -220 199 -220q134 0 200 83t66 253t-48 1281h151q25 -736 40 -1096q6 -150 153 -150h19v-183h-19z" />
    <glyph glyph-name="Lam.init" unicode="&#x644;" arabic-form="initial" 
d="M709 578q0 288 -29 948h151q29 -660 29 -948q0 -225 -107 -353t-323 -128h-449v173h461q135 0 201 69t66 239z" />
    <glyph glyph-name="Lam.medi" unicode="&#x644;" arabic-form="medial" 
d="M785 97q-166 0 -241 63q-105 -63 -246 -63h-317v173h325q98 0 137 42.5t39 128.5q0 463 -39 1085h151q39 -622 39 -1114q0 -142 152 -142h258v-173h-258z" />
    <glyph glyph-name="Meem.isol" unicode="&#x645;" arabic-form="isolated" 
d="M116 -353v385q0 300 227 300q61 0 133 -48q-41 79 -41 211q0 173 74 264t172 91q113 0 189.5 -98.5t76.5 -297.5v-41q0 -164 -74.5 -259.5t-191.5 -95.5q-53 0 -133 42q-107 60 -169 60q-112 0 -112 -136v-377h-151zM691 241q105 0 105 163v50q0 112 -29 167t-86 55
q-96 0 -96 -172v-50q0 -102 24.5 -157.5t81.5 -55.5z" />
    <glyph glyph-name="Meem.fina" unicode="&#x645;" arabic-form="final" 
d="M1024 97q-98 0 -153 55q-74 -94 -190 -94q-53 0 -133 42q-107 60 -198 60q-83 0 -83 -136v-377h-151v385q0 310 208 310q60 0 152 -48q-41 79 -41 201q0 173 74 264t172 91q113 0 189.5 -98.5t76.5 -297.5v-41q0 -133 77 -133h19v-183h-19zM691 251q105 0 105 153v50
q0 102 -29 157.5t-86 55.5q-96 0 -96 -163v-50q0 -93 24.5 -148t81.5 -55z" />
    <glyph glyph-name="Meem.init" unicode="&#x645;" arabic-form="initial" 
d="M-19 280h193q122 0 177 46.5t55 168.5q0 173 74 264t172 91q113 0 189.5 -98.5t76.5 -297.5v-41q0 -164 -74.5 -259.5t-191.5 -95.5q-70 0 -125.5 46.5t-70.5 110.5q-91 -118 -282 -118h-193v183zM662 251q105 0 105 153v50q0 102 -29 157.5t-86 55.5q-96 0 -96 -163v-50
q0 -93 24.5 -148t81.5 -55z" />
    <glyph glyph-name="Meem.medi" unicode="&#x645;" arabic-form="medial" 
d="M956 97q-140 0 -215 76q-78 -115 -205 -115q-70 0 -125.5 46.5t-70.5 110.5q-91 -118 -311 -118h-48v183h48q151 0 206 46.5t55 168.5q0 173 74.5 264t171.5 91q113 0 189.5 -98.5t76.5 -297.5q0 -174 154 -174h87v-183h-87zM546 251q105 0 105 153v50q0 102 -29 157.5
t-86 55.5q-96 0 -96 -163v-50q0 -93 24.5 -148t81.5 -55z" />
    <glyph glyph-name="Noon.isol" unicode="&#x646;" arabic-form="isolated" 
d="M728 245q0 225 -56 702h150q57 -477 57 -702q0 -254 -106.5 -382t-323.5 -128q-337 0 -337 394q0 114 19 259h151q-19 -145 -19 -259q0 -218 199 -218q134 0 200 87t66 247zM382 1125q0 39 26.5 65.5t64.5 26.5q39 0 65.5 -26.5t26.5 -65.5q0 -38 -26.5 -64.5
t-65.5 -26.5q-38 0 -64.5 26.5t-26.5 64.5z" />
    <glyph glyph-name="Noon.fina" unicode="&#x646;" arabic-form="final" 
d="M1014 97q-79 0 -135 21q-7 -134 -107 -254q-106 -129 -323 -129q-337 0 -337 394q0 114 19 259h151q-19 -145 -19 -259q0 -218 199 -218q134 0 200 87t66 247q0 187 -65 702h149q55 -356 59 -554q11 -123 143 -123h29v-173h-29zM382 1125q0 39 26.5 65.5t64.5 26.5
q39 0 65.5 -26.5t26.5 -65.5q0 -38 -26.5 -64.5t-65.5 -26.5q-38 0 -64.5 26.5t-26.5 64.5z" />
    <glyph glyph-name="Noon.init" unicode="&#x646;" arabic-form="initial" 
d="M501 470q0 188 -36 380h150q37 -192 37 -380q0 -179 -90.5 -276t-312.5 -97h-268v173h277q142 0 192.5 52t50.5 148zM333 1126q0 38 26.5 65t65.5 27t65.5 -27t26.5 -65q0 -39 -26.5 -65.5t-65.5 -26.5t-65.5 26.5t-26.5 65.5z" />
    <glyph glyph-name="Noon.medi" unicode="&#x646;" arabic-form="medial" 
d="M776 97q-166 0 -242 63q-101 -63 -246 -63h-307v173h316q97 0 136 42.5t39 128.5q0 217 -38 409h150q39 -192 39 -438q0 -142 153 -142h267v-173h-267zM333 1126q0 38 26.5 65t65.5 27t65.5 -27t26.5 -65q0 -39 -26.5 -65.5t-65.5 -26.5t-65.5 26.5t-26.5 65.5z" />
    <glyph glyph-name="Heh.isol" unicode="&#x647;" arabic-form="isolated" 
d="M512 697q-64 0 -141 -91t-77 -174q0 -90 51 -135.5t166 -45.5q117 0 168 45.5t51 135.5q0 83 -77 174t-141 91zM512 77q-202 0 -289.5 92.5t-87.5 233.5q0 151 112 308.5t265 157.5t265 -157.5t112 -308.5q0 -141 -87.5 -233.5t-289.5 -92.5z" />
    <glyph glyph-name="Heh.fina" unicode="&#x647;" arabic-form="final" 
d="M959 97q-166 0 -251 94q-130 -65 -285 -65q-216 0 -216 229q0 313 378 437q1 28 3 58h151q-3 -60 -3 -116q0 -178 45.5 -316t177.5 -138h84v-183h-84zM355 385q0 -76 86 -76q96 0 201 35q-42 112 -53 275q-234 -92 -234 -234z" />
    <glyph glyph-name="Heh.init" unicode="&#x647;" arabic-form="initial" 
d="M510 792l305 -271q112 -101 112 -204q0 -118 -82.5 -179t-213.5 -61q-147 0 -290 109q-117 -89 -266 -89h-94v173h94q115 0 155 23q-132 127 -132 276q0 131 68 215.5t176 84.5q81 0 168 -77zM454 296q68 -45 177 -45q147 0 147 68q0 38 -40 74l-150 133
q-18 -117 -134 -230zM342 696q-44 0 -70 -34.5t-26 -99.5q0 -90 95 -178q96 89 96 178q0 65 -26.5 99.5t-68.5 34.5z" />
    <glyph glyph-name="Heh.medi" unicode="&#x647;" arabic-form="medial" 
d="M1043 270v-173h-444q204 -54 204 -201q0 -109 -78.5 -183.5t-202.5 -74.5q-144 0 -222.5 84.5t-78.5 291.5v83h-240v173h240v151q0 250 78.5 349t212.5 99t212.5 -79.5t78.5 -197.5q0 -209 -204 -322h444zM522 -188q55 0 90 26t35 70q0 58 -72 92l-205 97v-83
q0 -127 38.5 -164.5t113.5 -37.5zM512 696q-65 0 -103.5 -52.5t-38.5 -223.5v-150q277 154 277 296q0 61 -35 95.5t-100 34.5z" />
    <glyph glyph-name="Waw.isol" unicode="&#x648;" arabic-form="isolated" 
d="M879 396v-270q0 -371 -423 -371h-369v174h369q272 0 272 197v62q-70 -14 -127 -14q-156 0 -233 90t-77 245q0 159 85.5 259.5t207.5 100.5q295 0 295 -473zM446 509q0 -69 40.5 -115t117.5 -46q72 0 124 15v81q0 252 -144 252q-57 0 -97.5 -50.5t-40.5 -136.5z" />
    <glyph glyph-name="Waw.fina" unicode="&#x648;" arabic-form="final" 
d="M879 97q-39 -342 -481 -342h-311v174h346q286 0 293 168h-87q-174 0 -261 99.5t-87 269.5q0 202 85.5 302.5t207.5 100.5q295 0 295 -473v-126h164v-173h-164zM446 466q0 -94 40.5 -145t155.5 -51h86v126q0 300 -144 300q-58 0 -98 -57t-40 -173z" />
    <glyph glyph-name="AlefMaksura.isol" unicode="&#x649;" arabic-form="isolated" 
d="M501 -184h57q209 0 209 214q0 112 -109 140q-169 43 -169 291q0 192 80.5 300t190.5 108q101 0 167 -74l-78 -125q-42 28 -79 28q-62 0 -96.5 -56t-34.5 -145q0 -136 93 -159q186 -48 186 -289q0 -406 -384 -406h-40q-368 0 -368 417q0 139 25 423h148q-23 -284 -23 -423
q0 -244 225 -244z" />
    <glyph glyph-name="AlefMaksura.fina" unicode="&#x649;" arabic-form="final" 
d="M1047 97h-38q-175 0 -201 181l-21 157q-8 61 -61 61q-39 0 -61 -34.5t-22 -97.5q-1 -15 5 -60l34 -255q6 -45 6 -85q0 -157 -73 -241.5t-210 -84.5q-279 0 -279 403q0 158 25 442h148q-23 -284 -23 -442q0 -220 129 -220q66 0 97.5 43t31.5 122q0 28 -5 63l-29 219
q-7 53 -7 93q0 147 73 231t170 84q173 0 202 -222l14 -99q10 -85 76 -85h19v-173z" />
    <glyph glyph-name="Yeh.isol" unicode="&#x64a;" arabic-form="isolated" 
d="M469 73q160 0 228.5 43.5t68.5 96.5q0 74 -100 91q-177 33 -177 263q0 149 71 225.5t181 76.5q120 0 183 -103l-97 -140q-32 72 -86 72q-47 0 -74.5 -36.5t-27.5 -96.5q0 -96 98 -114q180 -32 180 -238q0 -139 -118.5 -226t-332.5 -87q-340 0 -340 347q0 87 25 236h148
q-23 -149 -23 -230q0 -180 193 -180zM298 -270q0 38 27 64.5t65 26.5q39 0 65.5 -26.5t26.5 -64.5q0 -39 -26.5 -65.5t-65.5 -26.5q-38 0 -65 26.5t-27 65.5zM598 -270q0 38 26.5 64.5t65.5 26.5q38 0 64.5 -26.5t26.5 -64.5q0 -39 -26.5 -65.5t-64.5 -26.5
q-39 0 -65.5 26.5t-26.5 65.5z" />
    <glyph glyph-name="Yeh.fina" unicode="&#x64a;" arabic-form="final" 
d="M1047 97h-19q-199 0 -232 260l-13 78q-6 70 -56 70q-35 0 -54 -28.5t-19 -80.5q0 -39 10 -81l11 -53q9 -41 9 -79q0 -112 -69.5 -198t-209.5 -86q-279 0 -279 348q0 86 25 236h148q-23 -150 -23 -230q0 -181 129 -181q61 0 91 30t30 79q0 32 -11 81l-5 21q-13 57 -13 110
q0 123 68.5 203t171.5 80q91 0 141 -55.5t66 -166.5l13 -99q12 -85 71 -85h19v-173zM183 -270q0 38 26.5 64.5t64.5 26.5q39 0 65.5 -26.5t26.5 -64.5q0 -39 -26.5 -65.5t-65.5 -26.5q-38 0 -64.5 26.5t-26.5 65.5zM482 -270q0 38 26.5 64.5t65.5 26.5q38 0 65 -26.5
t27 -64.5q0 -39 -27 -65.5t-65 -26.5q-39 0 -65.5 26.5t-26.5 65.5z" />
    <glyph glyph-name="Yeh.init" unicode="&#x64a;" arabic-form="initial" 
d="M501 470q0 188 -36 380h150q37 -192 37 -380q0 -179 -90.5 -276t-312.5 -97h-268v173h277q142 0 192.5 52t50.5 148zM198 -149q0 38 26.5 64.5t64.5 26.5q39 0 65.5 -26.5t26.5 -64.5q0 -39 -26.5 -65.5t-65.5 -26.5q-38 0 -64.5 26.5t-26.5 65.5zM449 -149
q0 38 26.5 64.5t65.5 26.5q38 0 64.5 -26.5t26.5 -64.5q0 -39 -26.5 -65.5t-64.5 -26.5q-39 0 -65.5 26.5t-26.5 65.5z" />
    <glyph glyph-name="Yeh.medi" unicode="&#x64a;" arabic-form="medial" 
d="M776 97q-166 0 -242 63q-101 -63 -246 -63h-307v173h316q97 0 136 42.5t39 128.5q0 217 -38 409h150q39 -192 39 -438q0 -142 153 -142h267v-173h-267zM276 -149q0 38 26.5 64.5t64.5 26.5q39 0 65.5 -26.5t26.5 -64.5q0 -39 -26.5 -65.5t-65.5 -26.5q-38 0 -64.5 26.5
t-26.5 65.5zM527 -149q0 38 26.5 64.5t65.5 26.5q38 0 64.5 -26.5t26.5 -64.5q0 -39 -26.5 -65.5t-64.5 -26.5q-39 0 -65.5 26.5t-26.5 65.5z" />
    <glyph glyph-name="Fathatan.isol" unicode="&#xfe70;" arabic-form="isolated" 
d="M768 1412l-511 -160v133l511 161v-134zM768 1177l-511 -161v133l511 161v-133z" />
    <glyph glyph-name="TatwelFathatan" unicode="&#xfe71;" arabic-form="medial" 
d="M1035 97h-1046v183h1046v-183zM768 1412l-511 -160v133l511 161v-134zM768 1177l-511 -161v133l511 161v-133z" />
    <glyph glyph-name="Dammatan.isol" unicode="&#xfe72;" arabic-form="isolated" 
d="M310 1410q27 -78 27 -168q0 -48 -8 -97l157 72q-53 86 -53 153q0 76 54 126t150 50q92 0 148 -50t56 -126q0 -132 -123 -184l-51 -23l58 -95l-113 -56l-61 98l-368 -168q28 137 28 256q0 118 -28 212h127zM710 1357q0 24 -23 37.5t-54 13.5q-32 0 -51.5 -13.5
t-19.5 -37.5q0 -27 17 -52l21 -36l59 26q51 24 51 62z" />
    <glyph glyph-name="Kasratan.isol" unicode="&#xfe74;" arabic-form="isolated" 
d="M768 34l-511 -160v133l511 161v-134zM768 -201l-511 -161v133l511 161v-133z" />
    <glyph glyph-name="Ddahal.isol" unicode="&#x68d;" arabic-form="isolated" 
d="M742 438q0 117 -113 173t-359 65v174q347 -10 488 -109.5t141 -293.5q0 -352 -434 -352h-393v174h400q270 0 270 169zM216 -183q0 38 26.5 64.5t64.5 26.5q39 0 65.5 -26.5t26.5 -64.5q0 -39 -26.5 -65.5t-65.5 -26.5q-38 0 -64.5 26.5t-26.5 65.5zM467 -183
q0 38 26.5 64.5t65.5 26.5q38 0 64.5 -26.5t26.5 -64.5q0 -39 -26.5 -65.5t-64.5 -26.5q-39 0 -65.5 26.5t-26.5 65.5z" />
    <glyph glyph-name="Ddahal.fina" unicode="&#x68d;" arabic-form="final" 
d="M1014 97q-190 0 -253 80q-108 -72 -335 -84l-335 -16v174l342 15q270 16 270 146q0 143 -113 199t-301 65v174q289 -10 430 -109.5t141 -328.5q0 -142 154 -142h29v-173h-29zM216 -183q0 38 26.5 64.5t64.5 26.5q39 0 65.5 -26.5t26.5 -64.5q0 -39 -26.5 -65.5
t-65.5 -26.5q-38 0 -64.5 26.5t-26.5 65.5zM467 -183q0 38 26.5 64.5t65.5 26.5q38 0 64.5 -26.5t26.5 -64.5q0 -39 -26.5 -65.5t-64.5 -26.5q-39 0 -65.5 26.5t-26.5 65.5z" />
    <glyph glyph-name="Dahal.isol" unicode="&#x68c;" arabic-form="isolated" 
d="M742 438q0 117 -113 173t-359 65v174q347 -10 488 -109.5t141 -293.5q0 -352 -434 -352h-393v174h400q270 0 270 169zM214 1126q0 38 26.5 65t64.5 27q39 0 65.5 -27t26.5 -65q0 -39 -26.5 -65.5t-65.5 -26.5q-38 0 -64.5 26.5t-26.5 65.5zM465 1126q0 38 26.5 65
t65.5 27q38 0 64.5 -27t26.5 -65q0 -39 -26.5 -65.5t-64.5 -26.5q-39 0 -65.5 26.5t-26.5 65.5z" />
    <glyph glyph-name="Dahal.fina" unicode="&#x68c;" arabic-form="final" 
d="M1014 97q-190 0 -253 80q-108 -72 -335 -84l-335 -16v174l342 15q270 16 270 146q0 143 -113 199t-301 65v174q289 -10 430 -109.5t141 -328.5q0 -142 154 -142h29v-173h-29zM214 1126q0 38 26.5 65t64.5 27q39 0 65.5 -27t26.5 -65q0 -39 -26.5 -65.5t-65.5 -26.5
q-38 0 -64.5 26.5t-26.5 65.5zM465 1126q0 38 26.5 65t65.5 27q38 0 64.5 -27t26.5 -65q0 -39 -26.5 -65.5t-64.5 -26.5q-39 0 -65.5 26.5t-26.5 65.5z" />
    <glyph glyph-name="Dul.isol" unicode="&#x68e;" arabic-form="isolated" 
d="M742 438q0 117 -113 173t-359 65v174q347 -10 488 -109.5t141 -293.5q0 -352 -434 -352h-393v174h400q270 0 270 169zM206 1103q0 32 27 52t65 20q39 0 65.5 -20t26.5 -52q0 -35 -26.5 -54t-65.5 -19q-38 0 -65 19t-27 54zM448 1103q0 32 26.5 52t65.5 20q38 0 64.5 -20
t26.5 -52q0 -35 -26.5 -54t-64.5 -19q-39 0 -65.5 19t-26.5 54zM327 1315q0 33 26.5 53t65.5 20t65.5 -20t26.5 -53q0 -35 -26.5 -53.5t-65.5 -18.5t-65.5 18.5t-26.5 53.5z" />
    <glyph glyph-name="Dul.fina" unicode="&#x68e;" arabic-form="final" 
d="M1014 97q-190 0 -253 80q-108 -72 -335 -84l-335 -16v174l342 15q270 16 270 146q0 143 -113 199t-301 65v174q289 -10 430 -109.5t141 -328.5q0 -142 154 -142h29v-173h-29zM214 1126q0 38 26.5 65t64.5 27q39 0 65.5 -27t26.5 -65q0 -39 -26.5 -65.5t-65.5 -26.5
q-38 0 -64.5 26.5t-26.5 65.5zM465 1126q0 38 26.5 65t65.5 27q38 0 64.5 -27t26.5 -65q0 -39 -26.5 -65.5t-64.5 -26.5q-39 0 -65.5 26.5t-26.5 65.5z" />
    <glyph glyph-name="Ddal.isol" unicode="&#x688;" arabic-form="isolated" 
d="M742 438q0 117 -113 173t-359 65v174q347 -10 488 -109.5t141 -293.5q0 -352 -434 -352h-393v174h400q270 0 270 169zM378 1133h58q137 0 137 57q0 42 -60 42q-68 0 -135 -99zM471 1042h-270v91h76v338h102v-216q65 69 151 69q71 0 108 -35t37 -99q0 -68 -47.5 -108
t-156.5 -40z" />
    <glyph glyph-name="Ddal.fina" unicode="&#x688;" arabic-form="final" 
d="M1014 97q-190 0 -253 80q-108 -72 -335 -84l-335 -16v174l342 15q270 16 270 146q0 143 -113 199t-301 65v174q289 -10 430 -109.5t141 -328.5q0 -142 154 -142h29v-173h-29zM378 1133h58q137 0 137 57q0 42 -60 42q-68 0 -135 -99zM471 1042h-270v91h76v338h102v-216
q65 69 151 69q71 0 108 -35t37 -99q0 -68 -47.5 -108t-156.5 -40z" />
    <glyph glyph-name="Gueh.isol" unicode="&#x6b3;" arabic-form="isolated" 
d="M911 1472l-451 -184v114l451 184v-114zM536 77h-77q-335 0 -335 358q0 77 19 222h151q-20 -145 -20 -222q0 -184 194 -184h70q168 0 168 134q0 48 -52 128l-163 256q-58 90 -58 177q0 178 207 261l271 111v-180l-250 -102q-79 -33 -79 -100q0 -50 25 -89l171 -267
q77 -120 77 -214q0 -128 -76 -208.5t-241 -80.5h-2zM420 -290q0 33 26.5 53t65.5 20t65.5 -20t26.5 -53q0 -35 -26.5 -53.5t-65.5 -18.5t-65.5 18.5t-26.5 53.5zM420 -77q0 33 26.5 52.5t65.5 19.5t65.5 -19.5t26.5 -52.5q0 -35 -26.5 -54t-65.5 -19t-65.5 19t-26.5 54z" />
    <glyph glyph-name="Gueh.fina" unicode="&#x6b3;" arabic-form="final" 
d="M538 77h-79q-335 0 -335 358q0 77 19 222h151q-20 -145 -20 -222q0 -184 194 -184h39q168 0 168 134q0 48 -42 128l-143 256q-57 101 -57 177q0 178 207 261l271 111v-180l-250 -104q-79 -33 -79 -98q0 -45 25 -89l242 -434q79 -143 148 -143h46v-173h-56q-107 0 -180 86
q-76 -106 -269 -106zM911 1472l-451 -184v114l451 184v-114zM420 -290q0 33 26.5 53t65.5 20t65.5 -20t26.5 -53q0 -35 -26.5 -53.5t-65.5 -18.5t-65.5 18.5t-26.5 53.5zM420 -77q0 33 26.5 52.5t65.5 19.5t65.5 -19.5t26.5 -52.5q0 -35 -26.5 -54t-65.5 -19t-65.5 19
t-26.5 54z" />
    <glyph glyph-name="Gueh.init" unicode="&#x6b3;" arabic-form="initial" 
d="M439 97h-458v173h458q168 0 168 115q0 63 -60 107l-277 203q-99 72 -98 200q0 160 173 233l466 190v-180l-430 -177q-56 -28 -56 -80q0 -50 44 -82l257 -188q129 -95 129 -226q0 -128 -75.5 -208t-240.5 -80zM811 1472l-591 -242v115l591 243v-116zM343 -290
q0 33 26.5 53t65.5 20t65.5 -20t26.5 -53q0 -35 -26.5 -53.5t-65.5 -18.5t-65.5 18.5t-26.5 53.5zM343 -77q0 33 26.5 52.5t65.5 19.5t65.5 -19.5t26.5 -52.5q0 -35 -26.5 -54t-65.5 -19t-65.5 19t-26.5 54z" />
    <glyph glyph-name="Gueh.medi" unicode="&#x6b3;" arabic-form="medial" 
d="M997 97q-164 0 -311 164q-65 -164 -296 -164h-409v173h409q168 0 166 106q0 36 -50 85l-263 253q-72 69 -71 181q0 160 173 233l466 190v-180l-430 -177q-56 -28 -56 -80q0 -41 34 -75l467 -449q91 -87 171 -87h46v-173h-46zM811 1472l-591 -243v116l591 243v-116z
M420 -290q0 33 26.5 53t65.5 20t65.5 -20t26.5 -53q0 -35 -26.5 -53.5t-65.5 -18.5t-65.5 18.5t-26.5 53.5zM420 -77q0 33 26.5 52.5t65.5 19.5t65.5 -19.5t26.5 -52.5q0 -35 -26.5 -54t-65.5 -19t-65.5 19t-26.5 54z" />
    <glyph glyph-name="Ngoeh.isol" unicode="&#x6b1;" arabic-form="isolated" 
d="M911 1472l-451 -184v114l451 184v-114zM536 77h-77q-335 0 -335 358q0 77 19 222h151q-20 -145 -20 -222q0 -184 194 -184h70q168 0 168 134q0 48 -52 128l-163 256q-58 90 -58 177q0 178 207 261l271 111v-180l-250 -102q-79 -33 -79 -100q0 -50 25 -89l171 -267
q77 -120 77 -214q0 -128 -76 -208.5t-241 -80.5h-2zM155 1618q0 38 26.5 65t64.5 27q39 0 65.5 -27t26.5 -65q0 -39 -26.5 -65.5t-65.5 -26.5q-38 0 -64.5 26.5t-26.5 65.5zM406 1618q0 38 26.5 65t65.5 27q38 0 64.5 -27t26.5 -65q0 -39 -26.5 -65.5t-64.5 -26.5
q-39 0 -65.5 26.5t-26.5 65.5z" />
    <glyph glyph-name="Ngoeh.fina" unicode="&#x6b1;" arabic-form="final" 
d="M538 77h-79q-335 0 -335 358q0 77 19 222h151q-20 -145 -20 -222q0 -184 194 -184h39q168 0 168 134q0 48 -42 128l-143 256q-57 101 -57 177q0 178 207 261l271 111v-180l-250 -104q-79 -33 -79 -98q0 -45 25 -89l242 -434q79 -143 148 -143h46v-173h-56q-107 0 -180 86
q-76 -106 -269 -106zM911 1472l-451 -184v114l451 184v-114zM155 1618q0 38 26.5 65t64.5 27q39 0 65.5 -27t26.5 -65q0 -39 -26.5 -65.5t-65.5 -26.5q-38 0 -64.5 26.5t-26.5 65.5zM406 1618q0 38 26.5 65t65.5 27q38 0 64.5 -27t26.5 -65q0 -39 -26.5 -65.5t-64.5 -26.5
q-39 0 -65.5 26.5t-26.5 65.5z" />
    <glyph glyph-name="Ngoeh.init" unicode="&#x6b1;" arabic-form="initial" 
d="M439 97h-458v173h458q168 0 168 115q0 63 -60 107l-277 203q-99 72 -98 200q0 160 173 233l466 190v-180l-430 -177q-56 -28 -56 -80q0 -50 44 -82l257 -188q129 -95 129 -226q0 -128 -75.5 -208t-240.5 -80zM811 1472l-591 -242v115l591 243v-116zM78 1618q0 38 26.5 65
t64.5 27q39 0 65.5 -27t26.5 -65q0 -39 -26.5 -65.5t-65.5 -26.5q-38 0 -64.5 26.5t-26.5 65.5zM329 1618q0 38 26.5 65t65.5 27q38 0 64.5 -27t26.5 -65q0 -39 -26.5 -65.5t-64.5 -26.5q-39 0 -65.5 26.5t-26.5 65.5z" />
    <glyph glyph-name="Ngoeh.medi" unicode="&#x6b1;" arabic-form="medial" 
d="M997 97q-164 0 -311 164q-65 -164 -296 -164h-409v173h409q168 0 166 106q0 36 -50 85l-263 253q-72 69 -71 181q0 160 173 233l466 190v-180l-430 -177q-56 -28 -56 -80q0 -41 34 -75l467 -449q91 -87 171 -87h46v-173h-46zM811 1472l-591 -243v116l591 243v-116z
M107 1618q0 38 26.5 65t64.5 27q39 0 65.5 -27t26.5 -65q0 -39 -26.5 -65.5t-65.5 -26.5q-38 0 -64.5 26.5t-26.5 65.5zM358 1618q0 38 26.5 65t65.5 27q38 0 64.5 -27t26.5 -65q0 -39 -26.5 -65.5t-64.5 -26.5q-39 0 -65.5 26.5t-26.5 65.5z" />
    <glyph glyph-name="Rnoon.isol" unicode="&#x6bb;" arabic-form="isolated" 
d="M730 12q0 197 -67 408h150q68 -211 68 -418q0 -355 -345 -355h-58q-335 0 -335 403q0 148 19 351h151q-19 -203 -19 -351q0 -229 193 -229h51q192 0 192 191zM436 773h58q137 0 137 57q0 42 -60 42q-68 0 -135 -99zM529 682h-270v91h76v338h102v-216q65 69 151 69
q71 0 108 -35t37 -99q0 -68 -47.5 -108t-156.5 -40z" />
    <glyph glyph-name="Rnoon.fina" unicode="&#x6bb;" arabic-form="final" 
d="M997 97q-73 0 -123 25q7 -70 7 -120q0 -355 -345 -355h-58q-335 0 -335 403q0 148 19 351h151q-19 -203 -19 -351q0 -229 193 -229h51q192 0 192 191q0 197 -67 408h150q39 -150 184 -150h46v-173h-46zM436 773h58q137 0 137 57q0 42 -60 42q-68 0 -135 -99zM529 682
h-270v91h76v338h102v-216q65 69 151 69q71 0 108 -35t37 -99q0 -68 -47.5 -108t-156.5 -40z" />
    <glyph glyph-name="Rnoon.init" unicode="&#x6bb;" arabic-form="initial" 
d="M-19 97v173h276q232 0 232 150h150q0 -323 -382 -323h-276zM436 773h58q137 0 137 57q0 42 -60 42q-68 0 -135 -99zM529 682h-270v91h76v338h102v-216q65 69 151 69q71 0 108 -35t37 -99q0 -68 -47.5 -108t-156.5 -40z" />
    <glyph glyph-name="Rnoon.medi" unicode="&#x6bb;" arabic-form="medial" 
d="M436 773h58q137 0 137 57q0 42 -60 42q-68 0 -135 -99zM529 682h-270v91h76v338h102v-216q65 69 151 69q71 0 108 -35t37 -99q0 -68 -47.5 -108t-156.5 -40zM819 97q-212 0 -307 99q-95 -99 -307 -99h-224v173h224q232 0 232 150h150q0 -150 232 -150h224v-173h-224z" />
    <glyph glyph-name="HehHamza.isol" unicode="&#x6c0;" arabic-form="isolated" 
d="M512 697q-64 0 -141 -91t-77 -174q0 -90 51 -135.5t166 -45.5q117 0 168 45.5t51 135.5q0 83 -77 174t-141 91zM512 77q-202 0 -289.5 92.5t-87.5 233.5q0 151 112 308.5t265 157.5t265 -157.5t112 -308.5q0 -141 -87.5 -233.5t-289.5 -92.5zM738 1040h-437v92h102v90
q0 137 129 137h158v-91h-123q-46 0 -45 -47v-89h216v-92z" />
    <glyph glyph-name="HehHamza.fina" unicode="&#x6c0;" arabic-form="final" 
d="M959 97q-166 0 -251 94q-130 -65 -285 -65q-216 0 -216 229q0 313 378 437q1 28 3 58h151q-3 -60 -3 -116q0 -178 45.5 -316t177.5 -138h84v-183h-84zM355 385q0 -76 86 -76q96 0 201 35q-42 112 -53 275q-234 -92 -234 -234zM738 1040h-437v92h102v90q0 137 129 137h158
v-91h-123q-46 0 -45 -47v-89h216v-92z" />
    <glyph glyph-name="Goal.isol" unicode="&#x6c1;" arabic-form="isolated" 
d="M902 97h-69q-183 0 -227 183l-37 155q-27 109 -115 109t-115 -106l-87 -380h-154l91 394q63 285 265 285q198 0 250 -221l32 -131q28 -115 128 -115h38v-173z" />
    <glyph glyph-name="Goal.fina" unicode="&#x6c1;" arabic-form="final" 
d="M1043 97h-121q-202 0 -283 183l-70 155q-45 109 -115 109q-88 0 -115 -106l-87 -380h-154l91 394q63 285 265 285q162 0 259 -221l59 -131q50 -115 150 -115h121v-173z" />
    <glyph glyph-name="HehDoach.isol" unicode="&#x6be;" arabic-form="isolated" 
d="M510 792l305 -271q112 -101 112 -204q0 -118 -82.5 -179t-213.5 -61q-147 0 -290 109q-117 -89 -266 -89h-94v173h94q115 0 155 23q-132 127 -132 276q0 131 68 215.5t176 84.5q81 0 168 -77zM454 296q68 -45 177 -45q147 0 147 68q0 38 -40 74l-150 133
q-18 -117 -134 -230zM342 696q-44 0 -70 -34.5t-26 -99.5q0 -90 95 -178q96 89 96 178q0 65 -26.5 99.5t-68.5 34.5z" />
    <glyph glyph-name="HehDoach.fina" unicode="&#x6be;" arabic-form="final" 
d="M1043 270v-173h-48q-105 0 -160 47q-77 -67 -204 -67q-147 0 -290 109q-117 -89 -266 -89h-94v173h94q115 0 155 23q-132 127 -132 276q0 131 68 215.5t176 84.5q81 0 168 -77l305 -271q93 -82 93 -185q0 -66 97 -66h38zM454 296q68 -45 177 -45q127 0 127 77
q0 48 -39 84l-131 114q-18 -117 -134 -230zM342 696q-44 0 -70 -34.5t-26 -99.5q0 -90 95 -178q96 89 96 178q0 65 -26.5 99.5t-68.5 34.5z" />
    <glyph glyph-name="HehDoach.init" unicode="&#x6be;" arabic-form="initial" 
d="M510 792l305 -271q112 -101 112 -204q0 -118 -82.5 -179t-213.5 -61q-147 0 -290 109q-117 -89 -266 -89h-94v173h94q115 0 155 23q-132 127 -132 276q0 131 68 215.5t176 84.5q81 0 168 -77zM454 296q68 -45 177 -45q147 0 147 68q0 38 -40 74l-150 133
q-18 -117 -134 -230zM342 696q-44 0 -70 -34.5t-26 -99.5q0 -90 95 -178q96 89 96 178q0 65 -26.5 99.5t-68.5 34.5z" />
    <glyph glyph-name="HehDoach.medi" unicode="&#x6be;" arabic-form="medial" 
d="M1043 270v-173h-48q-105 0 -160 47q-77 -67 -204 -67q-147 0 -290 109q-117 -89 -266 -89h-94v173h94q115 0 155 23q-132 127 -132 276q0 131 68 215.5t176 84.5q81 0 168 -77l305 -271q93 -82 93 -185q0 -66 97 -66h38zM454 296q68 -45 177 -45q127 0 127 77
q0 48 -39 84l-131 114q-18 -117 -134 -230zM342 696q-44 0 -70 -34.5t-26 -99.5q0 -90 95 -178q96 89 96 178q0 65 -26.5 99.5t-68.5 34.5z" />
    <glyph glyph-name="YehBarree.isol" unicode="&#x6d2;" arabic-form="isolated" 
d="M435 97q-196 0 -272 70.5t-76 178.5q0 134 138 239l171 138q83 146 204 146q142 0 213 -187l-125 -59q-34 73 -84 73q-58 0 -103 -96l-227 -181q-38 -32 -38 -73q0 -76 142 -76h578v-173h-521v0z" />
    <glyph glyph-name="YehBarree.fina" unicode="&#x6d2;" arabic-form="final" 
d="M435 97q-196 0 -272 70.5t-76 178.5q0 134 138 239l346 284l105 -122l-402 -328q-38 -32 -38 -73q0 -76 142 -76h665v-173h-608v0z" />
    <glyph glyph-name="YehBarreeHamza.isol" unicode="&#x6d3;" arabic-form="isolated" 
d="M435 97q-196 0 -272 70.5t-76 178.5q0 134 138 239l171 138q83 146 204 146q142 0 213 -187l-125 -59q-34 73 -84 73q-58 0 -103 -96l-227 -181q-38 -32 -38 -73q0 -76 142 -76h578v-173h-521v0zM719 1049h-437v92h102v90q0 137 129 137h158v-91h-123q-46 0 -45 -47v-89
h216v-92z" />
    <glyph glyph-name="YehBarreeHamza.fina" unicode="&#x6d3;" arabic-form="final" 
d="M719 1049h-437v92h102v90q0 137 129 137h158v-91h-123q-46 0 -45 -47v-89h216v-92zM435 97q-196 0 -272 70.5t-76 178.5q0 134 138 239l346 284l105 -122l-402 -328q-38 -32 -38 -73q0 -76 142 -76h665v-173h-608v0z" />
    <glyph glyph-name="KafThreeDots.isol" unicode="&#x6ad;" arabic-form="isolated" 
d="M478 857q70 0 70 -70v-102q0 -137 -130 -137h-212v91h178q45 0 44 47v79h-153q-69 0 -69 70v102q0 137 129 137h203v-91l-168 -1q-45 1 -44 -46v-79h152zM728 245q0 431 -67 1281h150q68 -850 68 -1281q0 -254 -106.5 -382t-323.5 -128q-337 0 -337 394q0 114 19 259h151
q-19 -145 -19 -259q0 -218 199 -218q134 0 200 87t66 247zM154 1261q0 32 27 52t65 20q39 0 65.5 -20t26.5 -52q0 -35 -26.5 -54t-65.5 -19q-38 0 -65 19t-27 54zM396 1261q0 32 26.5 52t65.5 20q38 0 64.5 -20t26.5 -52q0 -35 -26.5 -54t-64.5 -19q-39 0 -65.5 19t-26.5 54
zM275 1473q0 33 26.5 53t65.5 20t65.5 -20t26.5 -53q0 -35 -26.5 -53.5t-65.5 -18.5t-65.5 18.5t-26.5 53.5z" />
    <glyph glyph-name="KafThreeDots.fina" unicode="&#x6ad;" arabic-form="final" 
d="M154 1261q0 32 27 52t65 20q39 0 65.5 -20t26.5 -52q0 -35 -26.5 -54t-65.5 -19q-38 0 -65 19t-27 54zM396 1261q0 32 26.5 52t65.5 20q38 0 64.5 -20t26.5 -52q0 -35 -26.5 -54t-64.5 -19q-39 0 -65.5 19t-26.5 54zM275 1473q0 33 26.5 53t65.5 20t65.5 -20t26.5 -53
q0 -35 -26.5 -53.5t-65.5 -18.5t-65.5 18.5t-26.5 53.5zM1014 97q-88 0 -135 41q-7 -154 -107 -274q-106 -129 -323 -129q-337 0 -337 394q0 114 19 259h151q-19 -145 -19 -259q0 -218 199 -218q134 0 200 87t66 247q0 393 -48 1281h151q31 -659 43 -1131q9 -125 140 -125
h29v-173h-29zM478 857q70 0 70 -70v-102q0 -137 -130 -137h-212v91h178q45 0 44 47v79h-153q-69 0 -69 70v102q0 137 129 137h203v-91l-168 -1q-45 1 -44 -46v-79h152z" />
    <glyph glyph-name="Ng.init" unicode="&#x6ad;" arabic-form="initial" 
d="M439 97h-458v173h458q168 0 168 115q0 53 -53 106l-311 312q-72 72 -71 181q0 160 173 233l466 189v-179l-430 -177q-56 -28 -56 -80q0 -41 34 -75l298 -301q98 -97 98 -209q0 -128 -75.5 -208t-240.5 -80zM154 1454q0 32 27 52t65 20q39 0 65.5 -20t26.5 -52
q0 -35 -26.5 -54t-65.5 -19q-38 0 -65 19t-27 54zM396 1454q0 32 26.5 52t65.5 20q38 0 64.5 -20t26.5 -52q0 -35 -26.5 -54t-64.5 -19q-39 0 -65.5 19t-26.5 54zM275 1666q0 33 26.5 53t65.5 20t65.5 -20t26.5 -53q0 -35 -26.5 -53.5t-65.5 -18.5t-65.5 18.5t-26.5 53.5z
" />
    <glyph glyph-name="Ng.medi" unicode="&#x6ad;" arabic-form="medial" 
d="M997 97q-164 0 -316 188q-50 -188 -291 -188h-409v173h409q168 0 168 115q0 53 -53 110l-262 308q-72 82 -71 181q0 160 173 233l466 189v-179l-430 -177q-56 -28 -56 -80q0 -41 34 -75l412 -485q117 -140 226 -140h46v-173h-46zM154 1454q0 32 27 52t65 20
q39 0 65.5 -20t26.5 -52q0 -35 -26.5 -54t-65.5 -19q-38 0 -65 19t-27 54zM396 1454q0 32 26.5 52t65.5 20q38 0 64.5 -20t26.5 -52q0 -35 -26.5 -54t-64.5 -19q-39 0 -65.5 19t-26.5 54zM275 1666q0 33 26.5 53t65.5 20t65.5 -20t26.5 -53q0 -35 -26.5 -53.5t-65.5 -18.5
t-65.5 18.5t-26.5 53.5z" />
    <glyph glyph-name="ArabU.isol" unicode="&#x6c7;" arabic-form="isolated" 
d="M879 396v-270q0 -371 -423 -371h-369v174h369q272 0 272 197v62q-70 -14 -127 -14q-156 0 -233 90t-77 245q0 159 85.5 259.5t207.5 100.5q295 0 295 -473zM446 509q0 -69 40.5 -115t117.5 -46q72 0 124 15v81q0 252 -144 252q-57 0 -97.5 -50.5t-40.5 -136.5zM779 1306
q0 -101 -95 -141l-39 -18l45 -72l-87 -44l-47 75l-283 -129v105l233 107q-41 66 -41 117q0 59 41.5 97.5t115.5 38.5q71 0 114 -38.5t43 -97.5zM679 1297q0 18 -18 28.5t-42 10.5t-39 -10.5t-15 -28.5q0 -20 12 -41l17 -27l45 20q40 20 40 48z" />
    <glyph glyph-name="ArabU.fina" unicode="&#x6c7;" arabic-form="final" 
d="M779 1306q0 -101 -95 -141l-39 -18l45 -72l-87 -44l-47 75l-283 -129v105l233 107q-41 66 -41 117q0 59 41.5 97.5t115.5 38.5q71 0 114 -38.5t43 -97.5zM679 1297q0 18 -18 28.5t-42 10.5t-39 -10.5t-15 -28.5q0 -20 12 -41l17 -27l45 20q40 20 40 48zM879 97
q-39 -342 -481 -342h-311v174h346q286 0 293 168h-87q-174 0 -261 99.5t-87 269.5q0 202 85.5 302.5t207.5 100.5q295 0 295 -473v-126h164v-173h-164zM446 466q0 -94 40.5 -145t155.5 -51h86v126q0 300 -144 300q-58 0 -98 -57t-40 -173z" />
    <glyph glyph-name="ArabOE.isol" unicode="&#x6c6;" arabic-form="isolated" 
d="M879 396v-270q0 -371 -423 -371h-369v174h369q272 0 272 197v62q-70 -14 -127 -14q-156 0 -233 90t-77 245q0 159 85.5 259.5t207.5 100.5q295 0 295 -473zM446 509q0 -69 40.5 -115t117.5 -46q72 0 124 15v81q0 252 -144 252q-57 0 -97.5 -50.5t-40.5 -136.5zM509 1057
l-188 286h144l106 -159l106 159h144l-188 -286h-124z" />
    <glyph glyph-name="ArabOE.fina" unicode="&#x6c6;" arabic-form="final" 
d="M509 1057l-188 286h144l106 -159l106 159h144l-188 -286h-124zM879 97q-39 -342 -481 -342h-311v174h346q286 0 293 168h-87q-174 0 -261 99.5t-87 269.5q0 202 85.5 302.5t207.5 100.5q295 0 295 -473v-126h164v-173h-164zM446 466q0 -94 40.5 -145t155.5 -51h86v126
q0 300 -144 300q-58 0 -98 -57t-40 -173z" />
    <glyph glyph-name="ArabYu.isol" unicode="&#x6c8;" arabic-form="isolated" 
d="M879 396v-270q0 -371 -423 -371h-369v174h369q272 0 272 197v62q-70 -14 -127 -14q-156 0 -233 90t-77 245q0 159 85.5 259.5t207.5 100.5q295 0 295 -473zM446 509q0 -69 40.5 -115t117.5 -46q72 0 124 15v81q0 252 -144 252q-57 0 -97.5 -50.5t-40.5 -136.5zM631 1059
h-111v429h111v-429z" />
    <glyph glyph-name="ArabYu.fina" unicode="&#x6c8;" arabic-form="final" 
d="M631 1059h-111v429h111v-429zM879 97q-39 -342 -481 -342h-311v174h346q286 0 293 168h-87q-174 0 -261 99.5t-87 269.5q0 202 85.5 302.5t207.5 100.5q295 0 295 -473v-126h164v-173h-164zM446 466q0 -94 40.5 -145t155.5 -51h86v126q0 300 -144 300q-58 0 -98 -57
t-40 -173z" />
    <glyph glyph-name="ArabUHamza.isol" unicode="&#x677;" arabic-form="isolated" 
d="M879 396v-270q0 -371 -423 -371h-369v174h369q272 0 272 197v62q-70 -14 -127 -14q-156 0 -233 90t-77 245q0 159 85.5 259.5t207.5 100.5q295 0 295 -473zM446 509q0 -69 40.5 -115t117.5 -46q72 0 124 15v81q0 252 -144 252q-57 0 -97.5 -50.5t-40.5 -136.5zM995 1058
h-437v92h102v90q0 137 129 137h158v-91h-123q-46 0 -45 -47v-89h216v-92zM545 1295q0 -101 -95 -141l-39 -18l45 -72l-87 -44l-47 75l-283 -129v105l233 107q-41 66 -41 117q0 59 41.5 97.5t115.5 38.5q71 0 114 -38.5t43 -97.5zM445 1286q0 18 -18 28.5t-42 10.5t-39 -10.5
t-15 -28.5q0 -20 12 -41l17 -27l45 20q40 20 40 48z" />
    <glyph glyph-name="ArabVe.isol" unicode="&#x6cb;" arabic-form="isolated" 
d="M879 396v-270q0 -371 -423 -371h-369v174h369q272 0 272 197v62q-70 -14 -127 -14q-156 0 -233 90t-77 245q0 159 85.5 259.5t207.5 100.5q295 0 295 -473zM446 509q0 -69 40.5 -115t117.5 -46q72 0 124 15v81q0 252 -144 252q-57 0 -97.5 -50.5t-40.5 -136.5zM355 1103
q0 32 27 52t65 20q39 0 65.5 -20t26.5 -52q0 -35 -26.5 -54t-65.5 -19q-38 0 -65 19t-27 54zM597 1103q0 32 26.5 52t65.5 20q38 0 64.5 -20t26.5 -52q0 -35 -26.5 -54t-64.5 -19q-39 0 -65.5 19t-26.5 54zM476 1315q0 33 26.5 53t65.5 20t65.5 -20t26.5 -53
q0 -35 -26.5 -53.5t-65.5 -18.5t-65.5 18.5t-26.5 53.5z" />
    <glyph glyph-name="ArabVe.fina" unicode="&#x6cb;" arabic-form="final" 
d="M355 1103q0 32 27 52t65 20q39 0 65.5 -20t26.5 -52q0 -35 -26.5 -54t-65.5 -19q-38 0 -65 19t-27 54zM597 1103q0 32 26.5 52t65.5 20q38 0 64.5 -20t26.5 -52q0 -35 -26.5 -54t-64.5 -19q-39 0 -65.5 19t-26.5 54zM476 1315q0 33 26.5 53t65.5 20t65.5 -20t26.5 -53
q0 -35 -26.5 -53.5t-65.5 -18.5t-65.5 18.5t-26.5 53.5zM879 97q-39 -342 -481 -342h-311v174h346q286 0 293 168h-87q-174 0 -261 99.5t-87 269.5q0 202 85.5 302.5t207.5 100.5q295 0 295 -473v-126h164v-173h-164zM446 466q0 -94 40.5 -145t155.5 -51h86v126
q0 300 -144 300q-58 0 -98 -57t-40 -173z" />
    <glyph glyph-name="KirghizOE.isol" unicode="&#x6c5;" arabic-form="isolated" 
d="M879 396v-270q0 -371 -423 -371h-369v174h369q212 0 261 123h-426v155h437v97q-70 -14 -127 -14q-156 0 -233 75t-77 212q0 129 85.5 210.5t207.5 81.5q295 0 295 -473zM446 577q0 -51 40.5 -82t117.5 -31q72 0 124 15v14q0 203 -144 203q-57 0 -97.5 -31t-40.5 -88z" />
    <glyph glyph-name="KirghizOE.fina" unicode="&#x6c5;" arabic-form="final" 
d="M879 396v-126h164v-173h-166q-11 -342 -421 -342h-369v174h369q247 0 272 168h-437v173h437v83q-70 -15 -127 -15q-156 0 -233 61t-77 178q0 129 85.5 210.5t207.5 81.5q295 0 295 -473zM446 577q0 -51 40.5 -67.5t117.5 -16.5q72 0 124 15q0 188 -144 188
q-57 0 -97.5 -31t-40.5 -88z" />
    <glyph glyph-name="KirghizYu.isol" unicode="&#x6c9;" arabic-form="isolated" 
d="M879 396v-270q0 -371 -423 -371h-369v174h369q272 0 272 197v62q-70 -14 -127 -14q-156 0 -233 90t-77 245q0 159 85.5 259.5t207.5 100.5q295 0 295 -473zM446 509q0 -69 40.5 -115t117.5 -46q72 0 124 15v81q0 252 -144 252q-57 0 -97.5 -50.5t-40.5 -136.5zM632 1323
l188 -286h-144l-106 159l-106 -159h-144l188 286h124z" />
    <glyph glyph-name="KirghizYu.fina" unicode="&#x6c9;" arabic-form="final" 
d="M632 1323l188 -286h-144l-106 159l-106 -159h-144l188 286h124zM879 97q-39 -342 -481 -342h-311v174h346q286 0 293 168h-87q-174 0 -261 99.5t-87 269.5q0 202 85.5 302.5t207.5 100.5q295 0 295 -473v-126h164v-173h-164zM446 466q0 -94 40.5 -145t155.5 -51h86v126
q0 300 -144 300q-58 0 -98 -57t-40 -173z" />
    <glyph glyph-name="ArabE.isol" unicode="&#x6d0;" arabic-form="isolated" 
d="M469 228q160 0 228.5 20t68.5 72q0 44 -100 62q-177 32 -177 195q0 139 71 215.5t181 76.5q120 0 183 -103l-97 -140q-32 72 -96 72q-37 0 -64.5 -27t-27.5 -67q0 -57 98 -76q180 -31 180 -189q0 -139 -104 -212t-347 -73q-340 0 -340 280q0 78 25 149h148
q-23 -71 -23 -124q0 -131 193 -131zM420 -77q0 34 26.5 53t65.5 19t65.5 -19t26.5 -53q0 -33 -26.5 -53t-65.5 -20t-65.5 20t-26.5 53zM420 -290q0 35 26.5 54t65.5 19t65.5 -19t26.5 -54q0 -33 -26.5 -52.5t-65.5 -19.5t-65.5 19.5t-26.5 52.5z" />
    <glyph glyph-name="ArabE.fina" unicode="&#x6d0;" arabic-form="final" 
d="M1047 97h-38q-175 0 -201 181l-21 157q-8 61 -61 61q-39 0 -61 -39.5t-22 -111.5q0 -157 -65 -223.5t-173 -66.5q-279 0 -279 279q0 64 15 149h149q-14 -78 -14 -135q0 -109 109 -109q108 0 108 135q0 153 73 227.5t170 74.5q173 0 202 -222l14 -99q10 -85 76 -85h19
v-173zM420 -77q0 34 26.5 53t65.5 19t65.5 -19t26.5 -53q0 -33 -26.5 -53t-65.5 -20t-65.5 20t-26.5 53zM420 -290q0 35 26.5 54t65.5 19t65.5 -19t26.5 -54q0 -33 -26.5 -52.5t-65.5 -19.5t-65.5 19.5t-26.5 52.5z" />
    <glyph glyph-name="ArabE.init" unicode="&#x6d0;" arabic-form="initial" 
d="M-19 97v173h276q232 0 232 150h150q0 -323 -382 -323h-276zM391 -290q0 33 26.5 53t65.5 20t65.5 -20t26.5 -53q0 -35 -26.5 -53.5t-65.5 -18.5t-65.5 18.5t-26.5 53.5zM391 -77q0 33 26.5 52.5t65.5 19.5t65.5 -19.5t26.5 -52.5q0 -35 -26.5 -54t-65.5 -19t-65.5 19
t-26.5 54z" />
    <glyph glyph-name="ArabE.medi" unicode="&#x6d0;" arabic-form="medial" 
d="M819 97q-212 0 -307 99q-95 -99 -307 -99h-224v173h224q232 0 232 150h150q0 -150 232 -150h224v-173h-224zM420 -290q0 33 26.5 53t65.5 20t65.5 -20t26.5 -53q0 -35 -26.5 -53.5t-65.5 -18.5t-65.5 18.5t-26.5 53.5zM420 -77q0 33 26.5 52.5t65.5 19.5t65.5 -19.5
t26.5 -52.5q0 -35 -26.5 -54t-65.5 -19t-65.5 19t-26.5 54z" />
    <glyph glyph-name="AlefMaksuraAlefFina.liga" unicode="&#xfc90;" arabic-form="final" 
d="M344 805h-111v429h111v-429zM1047 97h-38q-175 0 -201 181l-21 157q-8 61 -61 61q-39 0 -61 -34.5t-22 -97.5q-1 -15 5 -60l34 -255q6 -45 6 -85q0 -157 -73 -241.5t-210 -84.5q-279 0 -279 403q0 158 25 442h148q-23 -284 -23 -442q0 -220 129 -220q66 0 97.5 43
t31.5 122q0 28 -5 63l-29 219q-7 53 -7 93q0 147 73 231t170 84q173 0 202 -222l14 -99q10 -85 76 -85h19v-173z" />
    <glyph glyph-name=".notdef" 
d="M771 886q0 -84 -34 -122.5t-155 -38.5q-122 0 -151.5 34t-35.5 79q-5 -45 -35 -79t-151 -34q-122 0 -155.5 38.5t-33.5 122.5q0 83 33.5 120.5t155.5 37.5q121 0 151 -33t35 -97q6 64 35.5 97t151.5 33q121 0 155 -37.5t34 -120.5zM44 99v161q148 -152 372 -152
q183 0 294.5 111.5t111.5 343.5v239h152v-239q0 -273 -150.5 -427.5t-407.5 -156.5q-230 0 -372 120zM708 631q-47 -356 -313 -356q-265 0 -312 356q120 -176 312 -176q193 0 313 176zM44 1415q63 7 110 17q50 10 89.5 22.5t73 28t67.5 35l86 48.5q-30 33 -62 55
q-46 31 -102 31q-35 0 -72.5 -24t-70.5 -54t-55 -56t-64 -70v186q57 56 97 83t81.5 43.5t83.5 16.5q73 0 132 -30.5t109 -81.5q19 -20 36 -41q37 13 71 13q33 0 68 -13q4 15 9 30q17 56 17 110v78h125v-78q0 -69 -20 -140q-10 -34 -23 -67q20 -16 41 -37q63 -57 144 -148
l-92 -84l-118 127l-32 33q-20 -31 -44 -59l52 -102q31 -64 62 -114.5t63 -81t68 -30.5v-126q-58 0 -106 31t-88 81t-75.5 114.5l-69.5 131.5q-24 -19 -51 -35q-66 -44 -144.5 -69.5t-166.5 -25.5q-33 0 -70 9t-72.5 24.5t-86.5 45.5v173zM547 1460q-5 -4 -10 -7
q-43 -27 -112 -61q-67 -33 -158 -61q-39 -11 -83 -21l26 -10q32 -11 63 -11q68 0 129.5 20t113.5 55q32 20 59 45zM271 886q0 52 -62 52t-62 -52q0 -54 62 -54t62 54zM645 886q0 52 -63 52q-61 0 -61 -52q0 -54 61 -54q63 0 63 54z" />
    <glyph glyph-name="zero" unicode="0" 
d="M104 764q0 159 102 526q68 258 301 258q243 0 311 -258q102 -367 102 -526q0 -158 -102 -525q-68 -258 -311 -258q-233 0 -301 258q-102 367 -102 525zM750 764q0 160 -90 483q-36 144 -153 145q-107 -1 -143 -145q-90 -323 -90 -483t90 -484q36 -144 143 -145
q117 1 153 145q90 324 90 484zM607 676h-85l-110 222h85z" />
    <glyph glyph-name="one" unicode="1" 
d="M543 0v1321l-287 -225l-77 130l383 300h152v-1526h-171z" />
    <glyph glyph-name="two" unicode="2" 
d="M885 0h-707v145q0 236 225 523l227 291q84 107 84 213q0 112 -54 166.5t-148 54.5q-162 0 -233 -195l-140 97q131 253 373 253q155 0 264 -106.5t109 -270.5q0 -161 -131 -327l-223 -286q-183 -235 -183 -413h537v-145z" />
    <glyph glyph-name="three" unicode="3" 
d="M97 232l139 93q71 -190 263 -190q100 0 166.5 69.5t66.5 245.5q0 166 -78.5 226t-183.5 60h-74v145h74q89 0 160 63.5t71 197.5q0 131 -57 191t-145 60q-162 0 -233 -190l-139 92q141 253 373 253q165 0 268.5 -111t103.5 -295q0 -246 -203 -333q234 -66 234 -359
q0 -230 -114 -349.5t-289 -119.5q-262 0 -403 251z" />
    <glyph glyph-name="four" unicode="4" 
d="M891 414h-99v-414h-170v414h-537v145l498 967h209v-967h99v-145zM622 559v719l-371 -719h371z" />
    <glyph glyph-name="five" unicode="5" 
d="M890 476q0 -236 -114 -365.5t-278 -129.5q-248 0 -373 235l139 92q71 -173 233 -173q88 0 155 79t67 262q0 186 -66 260t-214 74h-226v716h645v-145h-475v-417h86q189 0 305 -113.5t116 -374.5z" />
    <glyph glyph-name="six" unicode="6" 
d="M918 459q0 -228 -107.5 -353t-274.5 -125q-155 0 -268.5 125t-113.5 423v451q0 288 109 428t291 140q205 0 337 -209l-139 -97q-65 151 -196 151q-108 0 -169.5 -88.5t-61.5 -324.5v-213q91 168 262 168q149 0 240 -121t91 -355zM748 459q0 185 -53.5 253t-138.5 68
q-182 0 -231 -218q0 -278 60 -352.5t152 -74.5q88 0 149.5 74.5t61.5 249.5z" />
    <glyph glyph-name="seven" unicode="7" 
d="M645 773q-145 -289 -153 -620l-5 -153h-170l5 165q9 323 193 691l137 276q72 141 72 249h-588v145h758v-70q0 -187 -112 -407z" />
    <glyph glyph-name="eight" unicode="8" 
d="M511 -19q-174 0 -288 110t-114 297q0 281 261 430q-220 154 -220 362q0 166 103.5 267t257.5 101q156 0 259.5 -101t103.5 -267q0 -207 -220 -362q261 -149 261 -430q0 -187 -114 -297t-290 -110zM511 1393q-84 0 -137.5 -54.5t-53.5 -158.5q0 -168 191 -285
q193 117 193 285q0 104 -53 158.5t-140 54.5zM511 722q-232 -114 -232 -334q0 -138 64.5 -195.5t167.5 -57.5q105 0 169.5 57.5t64.5 195.5q0 220 -234 334z" />
    <glyph glyph-name="nine" unicode="9" 
d="M106 1069q0 228 107.5 353.5t274.5 125.5q155 0 268.5 -125.5t113.5 -423.5v-450q0 -289 -109 -428.5t-292 -139.5q-204 0 -336 208l139 91q65 -145 196 -145q108 0 170 88.5t62 325.5v212q-86 -168 -263 -168q-149 0 -240 121.5t-91 354.5zM276 1069q0 -188 53.5 -255.5
t138.5 -67.5q183 0 232 235q0 263 -60.5 337.5t-152.5 74.5q-88 0 -149.5 -74.5t-61.5 -249.5z" />
    <glyph glyph-name="colon" unicode=":" 
d="M709 177q0 -78 -56.5 -137t-141.5 -59q-86 0 -140.5 59t-54.5 137q0 77 54.5 137t140.5 60q85 0 141.5 -60.5t56.5 -136.5zM709 956q0 -78 -56.5 -137t-141.5 -59q-86 0 -140.5 59t-54.5 137t54.5 137.5t140.5 59.5q85 0 141.5 -60t56.5 -137z" />
    <glyph glyph-name="semicolon" unicode=";" 
d="M709 956q0 -78 -56.5 -137t-141.5 -59q-86 0 -140.5 59t-54.5 137t54.5 137.5t140.5 59.5q85 0 141.5 -60t56.5 -137zM709 150q0 -185 -195 -503h-170q123 195 164 353q-84 3 -138 55.5t-54 130.5q0 87 51.5 142.5t134.5 55.5q94 0 150.5 -64.5t56.5 -169.5z" />
    <glyph glyph-name="less" unicode="&#x3c;" 
d="M202 607l705 -377v-183l-829 452v215l829 452v-183z" />
    <glyph glyph-name="greater" unicode="&#x3e;" 
d="M117 983v183l829 -452v-215l-829 -452v183l705 377z" />
    <glyph glyph-name="question" unicode="?" 
d="M860 1180q0 -124 -80 -243l-186 -270q-38 -56 -38 -120v-55h-171v56q0 113 68 214l191 280q45 66 45 139q0 83 -54.5 143t-147.5 60q-161 0 -244 -181l-139 92q141 253 384 253q163 0 267.5 -106t104.5 -262zM619 110q0 -54 -38 -91.5t-93 -37.5q-54 0 -92 37.5t-38 91.5
q0 55 38 93t92 38q55 0 93 -38t38 -93z" />
    <glyph glyph-name="at" unicode="@" 
d="M541 1399q-138 0 -225.5 -102t-87.5 -323v-437q0 -204 102 -306t265 -102q224 0 372 152v-180q-142 -120 -375 -120q-225 0 -370.5 145.5t-145.5 410.5v437q0 283 131 428.5t334 145.5q182 0 304 -114t122 -390v-406q0 -147 -83.5 -230.5t-201.5 -83.5q-117 0 -200 83.5
t-83 230.5v132q0 362 244 362q99 0 172 -87v21q0 195 -83 264t-191 69zM815 810q0 87 -38.5 134t-104.5 47q-118 0 -121 -192v-172q0 -85 38 -123.5t93 -38.5q56 0 94.5 38.5t38.5 123.5v183z" />
    <glyph glyph-name="A" unicode="A" 
d="M279 85v-85h-170v85q0 219 131 738l176 703h192l176 -703q131 -519 131 -738v-85h-170v85q0 103 -29 272h-409q-28 -169 -28 -272zM512 1256l-127 -528q-30 -122 -51 -226h355q-21 104 -50 226z" />
    <glyph glyph-name="B" unicode="B" 
d="M903 465q0 -235 -123.5 -350t-326.5 -115h-294v1526h310q196 0 294.5 -100.5t98.5 -267.5q0 -242 -207 -319q248 -76 248 -374zM686 1158q0 123 -54 173t-163 50h-140v-488h120q99 0 168 63.5t69 201.5zM727 465q0 160 -58.5 221.5t-162.5 61.5h-177v-603h123
q147 0 211 69t64 251z" />
    <glyph glyph-name="C" unicode="C" 
d="M947 226q-142 -245 -388 -245q-166 0 -280 111t-114 409v526q0 289 114 405t278 116q257 0 380 -248l-139 -84q-76 177 -240 177q-95 0 -158.5 -69.5t-63.5 -296.5v-526q0 -227 63.5 -296.5t158.5 -69.5q164 0 250 185z" />
    <glyph glyph-name="D" unicode="D" 
d="M927 626q0 -299 -136.5 -462.5t-370.5 -163.5h-252v1526h252q234 0 370.5 -154t136.5 -451v-295zM752 626v295q0 233 -89 346.5t-243 113.5h-83v-1236h83q154 0 243 121t89 360z" />
    <glyph glyph-name="E" unicode="E" 
d="M893 0h-704v1526h704v-145h-534v-494h394v-145h-394v-597h534v-145z" />
    <glyph glyph-name="F" unicode="F" 
d="M937 1381h-553v-494h445v-145h-445v-742h-170v1526h723v-145z" />
    <glyph glyph-name="G" unicode="G" 
d="M894 463q0 -250 -109 -366t-273 -116t-270.5 116t-106.5 366v602q0 251 107 367t281 116q232 0 355 -248l-139 -84q-76 177 -215 177q-104 0 -161.5 -69.5t-57.5 -258.5v-602q0 -189 55 -258.5t152 -69.5q95 0 153.5 70t58.5 258v208h-181v145h351v-353z" />
    <glyph glyph-name="H" unicode="H" 
d="M879 0h-170v763h-394v-763h-170v1526h170v-618h394v618h170v-1526z" />
    <glyph glyph-name="I" unicode="I" 
d="M838 0h-653v145h241v1236h-189v145h549v-145h-189v-1236h241v-145z" />
    <glyph glyph-name="J" unicode="J" 
d="M843 459q0 -248 -104 -363t-258 -115q-144 0 -253 115t-109 363v223h170v-224q0 -184 56.5 -253.5t134.5 -69.5q88 0 140 69.5t52 253.5v1068h171v-1067z" />
    <glyph glyph-name="K" unicode="K" 
d="M363 1526v-729l259 381q128 186 140 293l7 55h170l-9 -74q-16 -123 -178 -363l-158 -235l226 -384q139 -235 156 -402l9 -68h-170l-5 53q-20 160 -124 334l-204 344l-119 -177v-554h-170v1526h170z" />
    <glyph glyph-name="L" unicode="L" 
d="M937 0h-694v1526h170v-1381h524v-145z" />
    <glyph glyph-name="M" unicode="M" 
d="M902 0h-170v403q0 386 30 905l-197 -632h-106l-197 632q30 -519 30 -905v-403h-170v1526h170l220 -634l220 634h170v-1526z" />
    <glyph glyph-name="N" unicode="N" 
d="M879 0h-158l-12 462l-433 827q39 -463 39 -780v-509h-170v1526h170l433 -827q-39 463 -39 780v47h170v-1526z" />
    <glyph glyph-name="O" unicode="O" 
d="M137 463v602q0 251 104.5 367t270.5 116t270.5 -116t104.5 -367v-602q0 -250 -104.5 -366t-270.5 -116q-166 1 -270.5 116.5t-104.5 365.5zM308 463q0 -189 53.5 -258.5t149.5 -69.5t150.5 70t54.5 258v602q0 188 -54.5 258t-150.5 70t-149.5 -69.5t-53.5 -258.5v-602z
" />
    <glyph glyph-name="P" unicode="P" 
d="M363 0h-170v1526h333q203 0 307 -110.5t104 -294.5q0 -207 -114 -317.5t-297 -110.5h-163v-693zM363 838h162q117 0 176.5 59.5t59.5 223.5q0 141 -54.5 200.5t-181.5 59.5h-162v-543z" />
    <glyph glyph-name="Q" unicode="Q" 
d="M887 463q0 -345 -209 -446l110 -277h-180l-96 241q-166 1 -270.5 116.5t-104.5 365.5v602q0 251 104.5 367t270.5 116t270.5 -116t104.5 -367v-602zM716 471v594q0 188 -54.5 258t-150.5 70t-149.5 -70t-53.5 -258v-594q0 -197 53.5 -266.5t150.5 -69.5q95 0 149.5 70
t54.5 266z" />
    <glyph glyph-name="R" unicode="R" 
d="M531 696h-177v-696h-170v1526h333q203 0 302 -110t99 -295q0 -157 -63.5 -258t-157.5 -136l18 -28q190 -296 210 -631l4 -68h-170l-3 53q-19 320 -200 602zM354 840h162q118 0 172 70t54 212q0 140 -54 199.5t-172 59.5h-162v-541z" />
    <glyph glyph-name="S" unicode="S" 
d="M917 356q0 -155 -103.5 -265t-286.5 -110q-288 0 -421 251l126 95q99 -192 294 -192q90 0 155 55.5t65 164.5q0 89 -112 195l-328 306q-137 129 -137 324q0 156 101 262t277 106q229 0 371 -209l-131 -103q-84 157 -239 157q-89 0 -148.5 -51t-59.5 -161q0 -114 90 -197
l326 -304q161 -152 161 -324z" />
    <glyph glyph-name="T" unicode="T" 
d="M911 1381h-314v-1381h-170v1381h-314v145h798v-145z" />
    <glyph glyph-name="U" unicode="U" 
d="M879 458q0 -247 -106.5 -362t-260.5 -115t-260.5 115t-106.5 362v1068h170v-1068q0 -189 56.5 -256t139.5 -67t140 67t57 256v1068h171v-1068z" />
    <glyph glyph-name="V" unicode="V" 
d="M416 0l-189 703q-128 472 -128 738v85h171v-85q0 -220 96 -633l146 -617l146 617q96 413 96 633v85h170v-85q0 -266 -127 -738l-189 -703h-192z" />
    <glyph glyph-name="W" unicode="W" 
d="M712 92l26 360q15 200 15 453v621h170v-368q0 -376 -54 -706l-71 -452h-160l-126 591l-126 -591h-160l-71 452q-54 330 -54 706v368h170v-621q0 -253 15 -453l26 -360l146 688h108z" />
    <glyph glyph-name="X" unicode="X" 
d="M85 0l6 68q15 167 151 402l181 310l-160 276q-137 237 -153 403l-6 67h170l5 -53q16 -165 113 -334l120 -207l120 207q97 169 113 334l5 53h170l-6 -67q-16 -166 -153 -403l-160 -276l180 -310q137 -235 152 -402l6 -68h-170l-5 53q-14 164 -113 334l-139 240l-139 -240
q-99 -170 -113 -334l-5 -53h-170z" />
    <glyph glyph-name="Y" unicode="Y" 
d="M597 0h-170v650l-164 300q-159 289 -159 506v70h170v-70q0 -192 118 -424l120 -235l120 235q118 232 118 424v70h170v-70q0 -217 -159 -506l-164 -300v-650z" />
    <glyph glyph-name="Z" unicode="Z" 
d="M660 1164q55 97 55 217h-537v145h707v-145q0 -159 -87 -310l-405 -711q-55 -98 -55 -215h557v-145h-727v145q0 155 87 309z" />
    <glyph glyph-name="bracketleft" unicode="[" 
d="M844 -132h-530v1790h530v-151h-359v-1488h359v-151z" />
    <glyph glyph-name="backslash" unicode="\" 
d="M270 1526l639 -1526h-156l-639 1526h156z" />
    <glyph glyph-name="bracketright" unicode="]" 
d="M710 -132h-530v151h359v1488h-359v151h530v-1790z" />
    <glyph glyph-name="asciicircum" unicode="^" 
d="M922 601h-182l-229 698l-236 -698h-174l321 925h176z" />
    <glyph glyph-name="underscore" unicode="_" 
d="M1035 -213h-1046v145h1046v-145z" />
    <glyph glyph-name="grave.alt01" unicode="&#xf500;" 
d="M704 1290h-158l-227 236h212z" />
    <glyph glyph-name="a" unicode="a" 
d="M854 0h-170v128q-108 -147 -273 -147q-139 0 -224.5 95t-85.5 239q0 148 107 248t314 100h162v122q0 214 -203 214q-150 0 -224 -132l-129 96q134 190 354 190q163 0 267.5 -93t104.5 -275v-785zM684 266v260h-162q-122 0 -184 -57t-62 -154q0 -180 177 -180
q139 0 231 131z" />
    <glyph glyph-name="b" unicode="b" 
d="M908 488q0 -271 -97 -389t-232 -118q-174 0 -263 155v-136h-170v1526h170v-531q89 158 263 158q135 0 232 -119t97 -390v-156zM733 488v156q0 198 -50 276.5t-146 78.5q-169 0 -221 -226v-413q53 -225 221 -225q96 0 146 78t50 275z" />
    <glyph glyph-name="c" unicode="c" 
d="M939 188q-130 -207 -372 -207q-174 0 -286 124t-112 392v140q0 267 112 391.5t286 124.5q242 0 372 -209l-138 -87q-84 142 -224 142q-108 0 -172.5 -72t-64.5 -290v-140q0 -218 64.5 -290t172.5 -72q140 0 224 141z" />
    <glyph glyph-name="d" unicode="d" 
d="M116 644q0 271 97 390t232 119q174 0 263 -158v531h170v-1526h-170v136q-89 -155 -263 -155q-135 0 -232 118t-97 389v156zM291 488q0 -197 50 -275t146 -78q168 0 221 225v403q-52 236 -221 236q-96 0 -146 -78.5t-50 -276.5v-156z" />
    <glyph glyph-name="e" unicode="e" 
d="M893 532h-593v-34q0 -219 64.5 -291t173.5 -72q140 0 223 141l138 -88q-130 -207 -372 -207q-173 0 -285 124t-112 393v137q0 269 112 393.5t270 124.5q168 0 274.5 -115t106.5 -374v-132zM723 682q0 173 -59.5 245t-151.5 72q-88 0 -150 -72t-62 -245h423z" />
    <glyph glyph-name="f" unicode="f" 
d="M809 1306q-40 86 -148 86q-71 0 -110.5 -45.5t-39.5 -163.5v-114h381v-145h-381v-924h-171v924h-190v145h190v104q0 193 90 283.5t220 90.5q200 0 287 -138z" />
    <glyph glyph-name="g" unicode="g" 
d="M954 997h-59l-92 9q76 -93 76 -189q0 -131 -95 -218t-260 -87h-112q-81 -53 -81 -102q0 -51 32 -75.5t106 -24.5h94q212 0 306.5 -90t94.5 -227q0 -154 -120.5 -254.5t-317.5 -100.5q-206 0 -313 93t-107 226q0 173 175 262q-129 54 -129 165q0 112 137 190
q-140 94 -140 261q0 139 99 226t277 87q52 0 253 -16h176v-135zM715 836q0 68 -50 119.5t-150 51.5q-102 0 -151.5 -48.5t-49.5 -125.5q0 -88 52 -134t146 -46q102 0 152.5 47.5t50.5 135.5zM789 -7q0 75 -49.5 119t-176.5 44h-68q-116 0 -165 -52.5t-49 -134.5
q0 -85 64 -131.5t169 -46.5q275 0 275 202z" />
    <glyph glyph-name="h" unicode="h" 
d="M879 0h-170v732q0 152 -46 209.5t-126 57.5q-168 0 -222 -233v-766h-170v1526h170v-529q109 156 264 156q126 0 213 -93.5t87 -317.5v-742z" />
    <glyph glyph-name="i" unicode="i" 
d="M621 1516q0 -54 -37.5 -92.5t-93.5 -38.5t-93.5 38.5t-37.5 92.5t37.5 92.5t93.5 38.5t93.5 -38.5t37.5 -92.5zM878 0h-714v145h272v842h-195v145h366v-987h271v-145z" />
    <glyph glyph-name="j" unicode="j" 
d="M730 1516q0 -54 -37.5 -92.5t-92.5 -38.5q-57 0 -94 38.5t-37 92.5t37 92.5t94 38.5q55 0 92.5 -38.5t37.5 -92.5zM545 87v900h-194v145h365v-1045q0 -211 -104.5 -330t-273.5 -119q-190 0 -328 159l117 110q82 -115 200 -115q100 0 159 67.5t59 227.5z" />
    <glyph glyph-name="k" unicode="k" 
d="M937 0h-170q-8 125 -123 291l-169 242l-126 -154v-379h-170v1526h170v-938l250 308q125 154 128 236h170l-2 -37q-5 -89 -169 -289l-136 -167l176 -255q161 -233 168 -344z" />
    <glyph glyph-name="l" unicode="l" 
d="M869 0h-714v145h272v1236h-194v145h365v-1381h271v-145z" />
    <glyph glyph-name="m" unicode="m" 
d="M926 0h-139v855q0 145 -85 145q-75 0 -121 -112v-888h-138v855q-2 145 -68 145q-85 0 -137 -112v-888h-140v1132h140v-111q76 132 188 132q101 0 139 -132q71 132 180 132q181 0 181 -290v-863z" />
    <glyph glyph-name="n" unicode="n" 
d="M879 0h-170v734q0 147 -46 204.5t-126 57.5q-168 0 -222 -230v-766h-170v1132h170v-145q109 166 264 166q126 0 213 -93.5t87 -315.5v-744z" />
    <glyph glyph-name="o" unicode="o" 
d="M894 490q0 -260 -107 -384.5t-275 -124.5t-274.5 124.5t-106.5 384.5v154q0 260 106.5 384.5t274.5 124.5t275 -124.5t107 -384.5v-154zM724 490v154q0 201 -59.5 278t-152.5 77t-152 -77t-59 -278v-154q0 -201 59 -278t152 -77t152.5 77t59.5 278z" />
    <glyph glyph-name="p" unicode="p" 
d="M908 487q0 -268 -102 -387t-227 -119q-174 0 -263 158v-492h-170v1485h170v-134q89 155 263 155q125 0 227 -118t102 -391v-157zM733 644q0 199 -55 277t-141 78q-168 0 -221 -233v-397q52 -234 221 -234q86 0 141 78.5t55 273.5v157z" />
    <glyph glyph-name="q" unicode="q" 
d="M116 644q0 273 97 391t232 118q174 0 263 -157v136h170v-1485h-170v492q-89 -158 -263 -158q-135 0 -232 119t-97 387v157zM291 487q0 -195 50 -273.5t146 -78.5q169 0 221 234v397q-53 233 -221 233q-96 0 -146 -78t-50 -277v-157z" />
    <glyph glyph-name="r" unicode="r" 
d="M951 941l-148 -66q-50 124 -169 124q-250 0 -250 -465v-534h-170v1132h170v-181q101 202 277 202q204 0 290 -212z" />
    <glyph glyph-name="s" unicode="s" 
d="M516 131q106 0 160.5 50.5t54.5 122.5q0 99 -121 154l-218 100q-203 96 -203 274q0 139 100 230t258 91q227 0 348 -209l-139 -84q-63 142 -209 142q-87 0 -137.5 -44t-50.5 -109q0 -87 113 -141l206 -96q223 -103 223 -316q0 -126 -104 -220.5t-283 -94.5
q-250 0 -391 231l140 85q83 -166 253 -166z" />
    <glyph glyph-name="t" unicode="t" 
d="M947 158q-119 -177 -318 -177q-132 0 -221.5 89.5t-89.5 264.5v652h-190v145h190v394h170v-394h382v-145h-382v-663q0 -93 40 -141t111 -48q118 0 179 117z" />
    <glyph glyph-name="u" unicode="u" 
d="M879 0h-170v147q-109 -166 -264 -166q-126 0 -213 95t-87 341v715h170v-715q0 -165 46 -223.5t126 -58.5q168 0 222 221v776h170v-1132z" />
    <glyph glyph-name="w" unicode="w" 
d="M701 94l40 367q25 229 25 469v202h166v-150q0 -205 -58 -521l-84 -461h-160l-118 510l-118 -510h-160l-84 461q-58 316 -58 521v150h166v-202q0 -240 25 -469l40 -367l135 582h108z" />
    <glyph glyph-name="z" unicode="z" 
d="M611 818q85 97 85 169h-518v145h688v-116q0 -153 -117 -291l-307 -370q-104 -123 -104 -210h557v-145h-727v116q0 169 138 333z" />
    <glyph glyph-name="braceleft" unicode="{" 
d="M871 -132h-159q-137 0 -234.5 97t-97.5 263v244q0 85 -59 145t-142 60h-27v173h26q83 0 142.5 60t59.5 143v243q0 167 97.5 264.5t234.5 97.5h159v-152h-159q-67 0 -114.5 -48t-47.5 -143v-257q0 -101 -54 -183q-57 -88 -152 -112q100 -32 155 -116q51 -78 51 -177v-259
q0 -96 47.5 -144t114.5 -48h159v-151z" />
    <glyph glyph-name="bar" unicode="|" 
d="M592 -362h-160v2246h160v-2246z" />
    <glyph glyph-name="braceright" unicode="}" 
d="M871 677h-28q-82 0 -141 -60t-59 -145v-244q0 -166 -97.5 -263t-234.5 -97h-159v151h159q67 0 114.5 48t47.5 144v259q0 99 51 177q55 84 155 116q-95 24 -152 112q-54 82 -54 183v257q0 95 -47.5 143t-114.5 48h-159v152h159q137 0 234.5 -97.5t97.5 -264.5v-243
q0 -83 59.5 -143t141.5 -60h27v-173z" />
    <glyph glyph-name="asciitilde" unicode="~" 
d="M975 826q-14 -434 -271 -434q-104 0 -177 80l-126 143q-48 54 -89 54q-99 0 -109 -279h-155q14 434 271 434q103 0 171 -76l135 -150q45 -51 86 -51q99 0 109 279h155z" />
    <glyph glyph-name="Adieresis" unicode="&#xc4;" 
d="M811 1773q0 -45 -32.5 -78.5t-80.5 -33.5q-47 0 -78.5 33.5t-31.5 78.5t31.5 77.5t78.5 32.5q48 0 80.5 -32.5t32.5 -77.5zM437 1773q0 -45 -32 -78.5t-79 -33.5q-48 0 -80 33.5t-32 78.5t32 77.5t80 32.5q47 0 79 -32.5t32 -77.5zM279 85v-85h-170v85q0 219 131 738
l154 616h235l155 -616q131 -519 131 -738v-85h-170v85q0 103 -29 272h-409q-28 -169 -28 -272zM512 1256l-127 -528q-30 -122 -51 -226h355q-21 104 -50 226z" />
    <glyph glyph-name="Aring" unicode="&#xc5;" 
d="M726 1710q0 -73 -50 -123.5t-163 -50.5t-163.5 50.5t-50.5 123.5q0 72 50.5 123t163.5 51t163 -51t50 -123zM607 1710q0 29 -21.5 46t-72.5 17q-52 0 -73 -17t-21 -46t21 -46.5t73 -17.5q51 0 72.5 17.5t21.5 46.5zM279 85v-85h-170v85q0 219 131 738l144 578h255
l145 -578q131 -519 131 -738v-85h-170v85q0 103 -29 272h-409q-28 -169 -28 -272zM512 1256l-127 -528q-30 -122 -51 -226h355q-21 104 -50 226z" />
    <glyph glyph-name="Ccedilla" unicode="&#xc7;" 
d="M896 226q-142 -245 -388 -245q-166 0 -280 111t-114 409v526q0 289 114 405t278 116q257 0 380 -248l-139 -84q-76 177 -240 177q-95 0 -158.5 -69.5t-63.5 -296.5v-526q0 -227 63.5 -296.5t158.5 -69.5q164 0 250 185zM340 -245q168 -15 168 55q0 58 -98 51l46 91
q206 -8 206 -140q0 -82 -65 -128t-257 -46v117z" />
    <glyph glyph-name="Eacute" unicode="&#xc9;" 
d="M832 1883l-227 -236h-158l173 236h212zM893 0h-704v1439h704v-145h-534v-456h394v-144h-394v-549h534v-145z" />
    <glyph glyph-name="Ntilde" unicode="&#xd1;" 
d="M867 1816q-78 -189 -230 -189q-68 0 -142.5 56.5t-110.5 56.5q-62 0 -142 -108l-84 71q102 181 235 181q58 0 130.5 -57.5t122.5 -57.5q62 0 121 106zM879 0h-156l-14 375l-433 827l39 -780v-422h-170v1439h170l433 -827l-39 780v47h170v-1439z" />
    <glyph glyph-name="Odieresis" unicode="&#xd6;" 
d="M811 1773q0 -45 -32.5 -78.5t-80.5 -33.5q-47 0 -78.5 33.5t-31.5 78.5t31.5 77.5t78.5 32.5q48 0 80.5 -32.5t32.5 -77.5zM437 1773q0 -45 -32 -78.5t-79 -33.5q-48 0 -80 33.5t-32 78.5t32 77.5t80 32.5q47 0 79 -32.5t32 -77.5zM137 463v514q0 250 104.5 366
t270.5 116t270.5 -116t104.5 -366v-514q0 -250 -104.5 -366t-270.5 -116q-166 1 -270.5 116.5t-104.5 365.5zM308 463q0 -189 53.5 -258.5t149.5 -69.5t150.5 70t54.5 258v514q0 187 -54.5 257t-150.5 70t-149.5 -69.5t-53.5 -257.5v-514z" />
    <glyph glyph-name="Udieresis" unicode="&#xdc;" 
d="M811 1773q0 -45 -32.5 -78.5t-80.5 -33.5q-47 0 -78.5 33.5t-31.5 78.5t31.5 77.5t78.5 32.5q48 0 80.5 -32.5t32.5 -77.5zM437 1773q0 -45 -32 -78.5t-79 -33.5q-48 0 -80 33.5t-32 78.5t32 77.5t80 32.5q47 0 79 -32.5t32 -77.5zM879 458q0 -247 -106.5 -362
t-260.5 -115t-260.5 115t-106.5 362v981h170v-981q0 -189 56.5 -256t139.5 -67t140 67t57 256v981h171v-981z" />
    <glyph glyph-name="aacute" unicode="&#xe1;" 
d="M872 0h-170v128q-108 -147 -273 -147q-139 0 -224.5 95t-85.5 239q0 148 107 248t314 100h162v122q0 214 -203 214q-150 0 -224 -132l-129 96q134 190 354 190q163 0 267.5 -93t104.5 -275v-785zM702 266v260h-162q-122 0 -184 -57t-62 -154q0 -180 177 -180
q139 0 231 131zM832 1526l-227 -236h-158l173 236h212z" />
    <glyph glyph-name="agrave" unicode="&#xe0;" 
d="M872 0h-170v128q-108 -147 -273 -147q-139 0 -224.5 95t-85.5 239q0 148 107 248t314 100h162v122q0 214 -203 214q-150 0 -224 -132l-129 96q134 190 354 190q163 0 267.5 -93t104.5 -275v-785zM702 266v260h-162q-122 0 -184 -57t-62 -154q0 -180 177 -180
q139 0 231 131zM570 1290h-158l-227 236h212z" />
    <glyph glyph-name="acircumflex" unicode="&#xe2;" 
d="M870 0h-170v128q-108 -147 -273 -147q-139 0 -224.5 95t-85.5 239q0 148 107 248t314 100h162v122q0 214 -203 214q-150 0 -224 -132l-129 96q134 190 354 190q163 0 267.5 -93t104.5 -275v-785zM700 266v260h-162q-122 0 -184 -57t-62 -154q0 -180 177 -180
q139 0 231 131zM789 1270h-150l-132 137l-133 -137h-150l206 256h153z" />
    <glyph glyph-name="adieresis" unicode="&#xe4;" 
d="M872 0h-170v128q-108 -147 -273 -147q-139 0 -224.5 95t-85.5 239q0 148 107 248t314 100h162v122q0 214 -203 214q-150 0 -224 -132l-129 96q134 190 354 190q163 0 267.5 -93t104.5 -275v-785zM702 266v260h-162q-122 0 -184 -57t-62 -154q0 -180 177 -180
q139 0 231 131zM811 1416q0 -45 -32.5 -78.5t-80.5 -33.5q-47 0 -78.5 33.5t-31.5 78.5t31.5 77.5t78.5 32.5q48 0 80.5 -32.5t32.5 -77.5zM437 1416q0 -45 -32 -78.5t-79 -33.5q-48 0 -80 33.5t-32 78.5t32 77.5t80 32.5q47 0 79 -32.5t32 -77.5z" />
    <glyph glyph-name="atilde" unicode="&#xe3;" 
d="M872 0h-170v128q-108 -147 -273 -147q-139 0 -224.5 95t-85.5 239q0 148 107 248t314 100h162v122q0 214 -203 214q-150 0 -224 -132l-129 96q134 190 354 190q163 0 267.5 -93t104.5 -275v-785zM702 266v260h-162q-122 0 -184 -57t-62 -154q0 -180 177 -180
q139 0 231 131zM867 1478q-78 -189 -230 -189q-68 0 -142.5 56.5t-110.5 56.5q-62 0 -142 -108l-84 71q102 181 235 181q58 0 130.5 -57.5t122.5 -57.5q62 0 121 106z" />
    <glyph glyph-name="aring" unicode="&#xe5;" 
d="M872 0h-170v128q-108 -147 -273 -147q-139 0 -224.5 95t-85.5 239q0 148 107 248t314 100h162v122q0 214 -203 214q-150 0 -224 -132l-129 96q134 190 354 190q163 0 267.5 -93t104.5 -275v-785zM702 266v260h-162q-122 0 -184 -57t-62 -154q0 -180 177 -180
q139 0 231 131zM726 1372q0 -73 -50 -123.5t-163 -50.5t-163.5 50.5t-50.5 123.5q0 72 50.5 123t163.5 51t163 -51t50 -123zM607 1372q0 29 -21.5 46t-72.5 17q-52 0 -73 -17t-21 -46t21 -46.5t73 -17.5q51 0 72.5 17.5t21.5 46.5z" />
    <glyph glyph-name="ccedilla" unicode="&#xe7;" 
d="M891 188q-130 -207 -372 -207q-174 0 -286 124t-112 392v140q0 267 112 391.5t286 124.5q242 0 372 -209l-138 -87q-84 142 -224 142q-108 0 -172.5 -72t-64.5 -290v-140q0 -218 64.5 -290t172.5 -72q140 0 224 141zM338 -245q168 -15 168 55q0 58 -98 51l46 91
q206 -8 206 -140q0 -82 -65 -128t-257 -46v117z" />
    <glyph glyph-name="eacute" unicode="&#xe9;" 
d="M893 532h-593v-34q0 -219 64.5 -291t173.5 -72q140 0 223 141l138 -88q-130 -207 -372 -207q-173 0 -285 124t-112 393v137q0 269 112 393.5t270 124.5q168 0 274.5 -115t106.5 -374v-132zM723 682q0 173 -59.5 245t-151.5 72q-88 0 -150 -72t-62 -245h423zM834 1526
l-227 -236h-158l173 236h212z" />
    <glyph glyph-name="egrave" unicode="&#xe8;" 
d="M893 532h-593v-34q0 -219 64.5 -291t173.5 -72q140 0 223 141l138 -88q-130 -207 -372 -207q-173 0 -285 124t-112 393v137q0 269 112 393.5t270 124.5q168 0 274.5 -115t106.5 -374v-132zM723 682q0 173 -59.5 245t-151.5 72q-88 0 -150 -72t-62 -245h423zM553 1290
h-158l-227 236h212z" />
    <glyph glyph-name="ecircumflex" unicode="&#xea;" 
d="M893 532h-593v-34q0 -219 64.5 -291t173.5 -72q140 0 223 141l138 -88q-130 -207 -372 -207q-173 0 -285 124t-112 393v137q0 269 112 393.5t270 124.5q168 0 274.5 -115t106.5 -374v-132zM723 682q0 173 -59.5 245t-151.5 72q-88 0 -150 -72t-62 -245h423zM795 1270
h-150l-132 137l-133 -137h-150l206 256h153z" />
    <glyph glyph-name="edieresis" unicode="&#xeb;" 
d="M893 532h-593v-34q0 -219 64.5 -291t173.5 -72q140 0 223 141l138 -88q-130 -207 -372 -207q-173 0 -285 124t-112 393v137q0 269 112 393.5t270 124.5q168 0 274.5 -115t106.5 -374v-132zM723 682q0 173 -59.5 245t-151.5 72q-88 0 -150 -72t-62 -245h423zM811 1416
q0 -45 -32.5 -78.5t-80.5 -33.5q-47 0 -78.5 33.5t-31.5 78.5t31.5 77.5t78.5 32.5q48 0 80.5 -32.5t32.5 -77.5zM437 1416q0 -45 -32 -78.5t-79 -33.5q-48 0 -80 33.5t-32 78.5t32 77.5t80 32.5q47 0 79 -32.5t32 -77.5z" />
    <glyph glyph-name="iacute" unicode="&#xed;" 
d="M845 0h-656v152h243v828h-195v152h366v-980h242v-152zM826 1526l-227 -236h-158l173 236h212z" />
    <glyph glyph-name="igrave" unicode="&#xec;" 
d="M849 0h-656v152h243v828h-195v152h366v-980h242v-152zM562 1290h-158l-227 236h212z" />
    <glyph glyph-name="icircumflex" unicode="&#xee;" 
d="M861 0h-656v152h243v828h-195v152h366v-980h242v-152zM776 1270h-150l-132 137l-133 -137h-150l206 256h153z" />
    <glyph glyph-name="idieresis" unicode="&#xef;" 
d="M853 0h-656v152h243v828h-195v152h366v-980h242v-152zM772 1416q0 -45 -32.5 -78.5t-80.5 -33.5q-47 0 -78.5 33.5t-31.5 78.5t31.5 77.5t78.5 32.5q48 0 80.5 -32.5t32.5 -77.5zM398 1416q0 -45 -32 -78.5t-79 -33.5q-48 0 -80 33.5t-32 78.5t32 77.5t80 32.5
q47 0 79 -32.5t32 -77.5z" />
    <glyph glyph-name="ntilde" unicode="&#xf1;" 
d="M884 0h-170v734q0 147 -46 204.5t-126 57.5q-168 0 -222 -230v-766h-170v1132h170v-145q109 166 264 166q126 0 213 -93.5t87 -315.5v-744zM857 1478q-78 -189 -230 -189q-68 0 -142.5 56.5t-110.5 56.5q-62 0 -142 -108l-84 71q102 181 235 181q58 0 130.5 -57.5
t122.5 -57.5q62 0 121 106z" />
    <glyph glyph-name="oacute" unicode="&#xf3;" 
d="M894 490q0 -260 -107 -384.5t-275 -124.5t-274.5 124.5t-106.5 384.5v154q0 260 106.5 384.5t274.5 124.5t275 -124.5t107 -384.5v-154zM724 490v154q0 201 -59.5 278t-152.5 77t-152 -77t-59 -278v-154q0 -201 59 -278t152 -77t152.5 77t59.5 278zM844 1526l-227 -236
h-158l173 236h212z" />
    <glyph glyph-name="ograve" unicode="&#xf2;" 
d="M894 490q0 -260 -107 -384.5t-275 -124.5t-274.5 124.5t-106.5 384.5v154q0 260 106.5 384.5t274.5 124.5t275 -124.5t107 -384.5v-154zM724 490v154q0 201 -59.5 278t-152.5 77t-152 -77t-59 -278v-154q0 -201 59 -278t152 -77t152.5 77t59.5 278zM563 1290h-158
l-227 236h212z" />
    <glyph glyph-name="ocircumflex" unicode="&#xf4;" 
d="M895 490q0 -260 -107 -384.5t-275 -124.5t-274.5 124.5t-106.5 384.5v154q0 260 106.5 384.5t274.5 124.5t275 -124.5t107 -384.5v-154zM725 490v154q0 201 -59.5 278t-152.5 77t-152 -77t-59 -278v-154q0 -201 59 -278t152 -77t152.5 77t59.5 278zM795 1270h-150
l-132 137l-133 -137h-150l206 256h153z" />
    <glyph glyph-name="odieresis" unicode="&#xf6;" 
d="M894 490q0 -260 -107 -384.5t-275 -124.5t-274.5 124.5t-106.5 384.5v154q0 260 106.5 384.5t274.5 124.5t275 -124.5t107 -384.5v-154zM724 490v154q0 201 -59.5 278t-152.5 77t-152 -77t-59 -278v-154q0 -201 59 -278t152 -77t152.5 77t59.5 278zM811 1416
q0 -45 -32.5 -78.5t-80.5 -33.5q-47 0 -78.5 33.5t-31.5 78.5t31.5 77.5t78.5 32.5q48 0 80.5 -32.5t32.5 -77.5zM437 1416q0 -45 -32 -78.5t-79 -33.5q-48 0 -80 33.5t-32 78.5t32 77.5t80 32.5q47 0 79 -32.5t32 -77.5z" />
    <glyph glyph-name="otilde" unicode="&#xf5;" 
d="M894 490q0 -260 -107 -384.5t-275 -124.5t-274.5 124.5t-106.5 384.5v154q0 260 106.5 384.5t274.5 124.5t275 -124.5t107 -384.5v-154zM724 490v154q0 201 -59.5 278t-152.5 77t-152 -77t-59 -278v-154q0 -201 59 -278t152 -77t152.5 77t59.5 278zM867 1478
q-78 -189 -230 -189q-68 0 -142.5 56.5t-110.5 56.5q-62 0 -142 -108l-84 71q102 181 235 181q58 0 130.5 -57.5t122.5 -57.5q62 0 121 106z" />
    <glyph glyph-name="uacute" unicode="&#xfa;" 
d="M879 0h-170v147q-109 -166 -264 -166q-126 0 -213 95t-87 341v715h170v-715q0 -165 46 -223.5t126 -58.5q168 0 222 221v776h170v-1132zM844 1526l-227 -236h-158l173 236h212z" />
    <glyph glyph-name="ugrave" unicode="&#xf9;" 
d="M879 0h-170v147q-109 -166 -264 -166q-126 0 -213 95t-87 341v715h170v-715q0 -165 46 -223.5t126 -58.5q168 0 222 221v776h170v-1132zM573 1290h-158l-227 236h212z" />
    <glyph glyph-name="ucircumflex" unicode="&#xfb;" 
d="M879 0h-170v147q-109 -166 -264 -166q-126 0 -213 95t-87 341v715h170v-715q0 -165 46 -223.5t126 -58.5q168 0 222 221v776h170v-1132zM795 1270h-150l-132 137l-133 -137h-150l206 256h153z" />
    <glyph glyph-name="udieresis" unicode="&#xfc;" 
d="M879 0h-170v147q-109 -166 -264 -166q-126 0 -213 95t-87 341v715h170v-715q0 -165 46 -223.5t126 -58.5q168 0 222 221v776h170v-1132zM811 1416q0 -45 -32.5 -78.5t-80.5 -33.5q-47 0 -78.5 33.5t-31.5 78.5t31.5 77.5t78.5 32.5q48 0 80.5 -32.5t32.5 -77.5zM437 1416
q0 -45 -32 -78.5t-79 -33.5q-48 0 -80 33.5t-32 78.5t32 77.5t80 32.5q47 0 79 -32.5t32 -77.5z" />
    <glyph glyph-name="dagger" unicode="&#x2020;" 
d="M966 1004h-369v-1004h-170v1004h-370v149h370v373h170v-373h369v-149z" />
    <glyph glyph-name="degree" unicode="&#xb0;" 
d="M833 1227q0 -133 -94.5 -227.5t-227.5 -94.5t-227 94.5t-94 227.5t94 227t227 94t227.5 -94t94.5 -227zM672 1227q0 63 -44 111.5t-117 48.5q-72 0 -116 -48.5t-44 -111.5q0 -64 44 -113t116 -49t116.5 49.5t44.5 112.5z" />
    <glyph glyph-name="cent" unicode="&#xa2;" 
d="M939 188q-113 -176 -289 -200v-192h-171v192q-310 73 -310 509v140q0 436 310 508v200h171v-199q175 -25 289 -202l-138 -87q-84 142 -224 142q-108 0 -172.5 -72t-64.5 -290v-140q0 -218 64.5 -290t172.5 -72q140 0 224 141z" />
    <glyph glyph-name="sterling" unicode="&#xa3;" 
d="M946 0h-870v152q216 7 193 363l-14 208h-179v151h169l-14 215q-14 229 90 344t257 115q222 0 354 -209l-129 -90q-74 137 -224 137q-82 0 -135 -61t-42 -229l14 -222h291v-151h-281l13 -197q19 -296 -132 -374h639v-152z" />
    <glyph glyph-name="section" unicode="&#xa7;" 
d="M129 -159l126 95q80 -144 237 -144q90 0 149.5 47t59.5 136q0 78 -87 159l-291 275q-138 129 -138 324q0 157 104 256q-60 101 -60 230q0 127 91.5 228t266.5 101q210 0 333 -190l-133 -89q-72 124 -199 124q-89 0 -138.5 -46.5t-49.5 -126.5q0 -114 90 -197l282 -258
q160 -152 160 -324q0 -159 -120 -274q60 -80 60 -192q0 -127 -98.5 -232t-280.5 -105q-241 0 -364 203zM707 293q54 56 54 147q0 89 -112 195l-253 239q-40 -50 -40 -140q0 -114 90 -197z" />
    <glyph glyph-name="bullet" unicode="&#x2022;" 
d="M848 822q0 -139 -99 -238t-238 -99t-237.5 99t-98.5 238t98.5 237.5t237.5 98.5t238 -98.5t99 -237.5z" />
    <glyph glyph-name="paragraph" unicode="&#xb6;" 
d="M871 0h-118v1526h118v-1526zM623 0h-119v702h-37q-154 0 -263 110.5t-109 266.5v71q0 155 109 265.5t263 110.5h156v-1526z" />
    <glyph glyph-name="germandbls" unicode="&#xdf;" 
d="M445 -5v152h76q121 0 176 47.5t55 132.5q0 102 -151.5 243t-151.5 257q0 100 108 200t108 183q0 75 -50 125t-123 50q-83 0 -132 -54.5t-49 -178.5v-1152h-171v1150q0 174 99.5 285t253.5 111q153 0 248 -101t95 -235q0 -129 -98.5 -221t-98.5 -162q0 -74 142 -206.5
t142 -293.5q0 -144 -99.5 -238t-301.5 -94h-77z" />
    <glyph glyph-name="registered" unicode="&#xae;" 
d="M651 889q0 -163 -143 -236l135 -307h-164l-111 279h-133v-279h-152v828h246q175 0 248.5 -79t73.5 -206zM499 889q0 76 -38 114.5t-112 38.5h-114v-296h114q74 0 112 38.5t38 104.5zM83 262q148 -152 372 -152q163 0 265 102t102 303v497q0 202 -102 304t-265 102
q-224 0 -372 -152v161q142 121 375 121q225 0 370.5 -145.5t145.5 -390.5v-497q0 -245 -145.5 -389.5t-370.5 -144.5q-233 0 -375 120v161z" />
    <glyph glyph-name="copyright" unicode="&#xa9;" 
d="M651 895h-152q0 90 -38 129t-93 39q-56 0 -94.5 -39t-38.5 -144v-241q0 -105 38.5 -143.5t94.5 -38.5q55 0 93 38.5t38 124.5h152q0 -137 -78 -215.5t-205 -78.5q-118 0 -201.5 83.5t-83.5 229.5v241q0 147 83.5 230.5t201.5 83.5q127 0 205 -78.5t78 -220.5zM83 262
q148 -152 372 -152q163 0 265 102t102 303v497q0 202 -102 304t-265 102q-224 0 -372 -152v161q142 121 375 121q225 0 370.5 -145.5t145.5 -390.5v-497q0 -245 -145.5 -389.5t-370.5 -144.5q-233 0 -375 120v161z" />
    <glyph glyph-name="trademark" unicode="&#x2122;" 
d="M979 686h-125v557l-94 -282h-47l-95 282v-557h-124v840h124l118 -351l118 351h125v-840zM422 1421h-126v-735h-125v735h-126v105h377v-105z" />
    <glyph glyph-name="acute.alt01" unicode="&#xf501;" 
d="M704 1526l-227 -236h-158l173 236h212z" />
    <glyph glyph-name="dieresis" unicode="&#xa8;" 
d="M810 1416q0 -45 -32.5 -78.5t-80.5 -33.5q-47 0 -78.5 33.5t-31.5 78.5t31.5 77.5t78.5 32.5q48 0 80.5 -32.5t32.5 -77.5zM436 1416q0 -45 -32 -78.5t-79 -33.5q-48 0 -80 33.5t-32 78.5t32 77.5t80 32.5q47 0 79 -32.5t32 -77.5z" />
    <glyph glyph-name="notequal" unicode="&#x2260;" 
d="M937 349h-467l-155 -325h-165l155 325h-219v145h289l108 225h-397v145h466l157 328h164l-157 -328h221v-145h-290l-108 -225h398v-145z" />
    <glyph glyph-name="AE" unicode="&#xc6;" 
d="M956 0h-489v357h-230v-357h-170v320q0 309 129 676l188 530h572v-150h-319v-502h280v-151h-280v-571h319v-152zM467 502v784l-122 -361q-82 -237 -99 -423h221z" />
    <glyph glyph-name="Oslash" unicode="&#xd8;" 
d="M755 1672l-38 -185q170 -109 170 -470v-488q0 -298 -104.5 -423t-270.5 -125q-57 0 -107 16l-35 -171l-105 23l41 200q-169 115 -169 480v488q0 289 104.5 410t270.5 121q55 0 105 -15l34 162zM716 529v488q0 200 -39 276l-240 -1145q34 -16 76 -16q94 0 148.5 79.5
t54.5 317.5zM511 1396q-96 0 -149.5 -74.5t-53.5 -304.5v-488q0 -207 38 -290l239 1143q-34 14 -74 14z" />
    <glyph glyph-name="plusminus" unicode="&#xb1;" 
d="M938 897h-351v-353h-150v353h-351v145h351v354h150v-354h351v-145zM938 232h-852v145h852v-145z" />
    <glyph glyph-name="greaterequal" unicode="&#x2265;" 
d="M165 157h732v-157h-732v157zM165 1081v182l732 -402v-215l-732 -402v182l609 328z" />
    <glyph glyph-name="yen" unicode="&#xa5;" 
d="M597 0h-170v271h-289v150h289v183h-289v149h232l-107 197q-159 286 -159 506v70h170v-70q0 -192 118 -424l120 -235l120 235q118 232 118 424v70h170v-70q0 -220 -159 -506l-108 -197h233v-149h-289v-183h289v-150h-289v-271z" />
    <glyph glyph-name="micro" unicode="&#xb5;" 
d="M884 0h-170v128q-109 -147 -245 -147q-110 0 -159 73v-407h-170v1485h170v-796q0 -87 46 -145.5t126 -58.5q139 0 232 129v871h170v-1132z" />
    <glyph glyph-name="partialdiff" unicode="&#x2202;" 
d="M704 745q-71 93 -215 93q-147 0 -207 -167t-60 -328q0 -90 31 -133q53 -75 141 -75q204 0 270 377zM730 893q30 171 30 276q0 94 -23 136q-51 88 -159 88q-131 0 -223 -151l-121 97q158 209 363 209q183 0 275 -149q52 -86 52 -251q0 -124 -29 -294l-46 -257
q-48 -275 -126 -410q-119 -206 -345 -206q-167 0 -260 135q-63 90 -63 236q0 227 101 434t320 207q152 0 254 -100z" />
    <glyph glyph-name="product" unicode="&#x220f;" horiz-adv-x="2048" 
d="M1928 1225h-242v-1382h-171v1382h-982v-1382h-171v1382h-242v150h1808v-150z" />
    <glyph glyph-name="pi" unicode="&#x3c0;" 
d="M942 981h-141v-766q0 -60 42 -60h99v-155h-99q-213 0 -213 235v746h-246v-981h-171v981h-132v151h861v-151z" />
    <glyph glyph-name="ordfeminine" unicode="&#xaa;" 
d="M800 651h-161v76q-70 -91 -179 -91q-107 0 -171.5 73.5t-64.5 199.5q0 130 80 206.5t265 76.5h70v57q0 161 -128 161q-103 0 -154 -114l-125 85q100 167 279 167q131 0 210 -71t79 -229v-597zM639 846v219h-70q-106 0 -149.5 -42.5t-43.5 -113.5q0 -136 115 -136
q93 0 148 73zM235 403h570v-145h-570v145z" />
    <glyph glyph-name="ordmasculine" unicode="&#xba;" 
d="M796 952q0 -148 -80.5 -232t-206.5 -84q-125 0 -206.5 84t-81.5 232v280q0 147 81.5 231.5t206.5 84.5q126 0 206.5 -84.5t80.5 -231.5v-280zM644 931v321q0 77 -39.5 117.5t-95.5 40.5t-96 -41t-40 -117v-321q0 -77 40 -117.5t96 -40.5t95.5 40t39.5 118zM227 403h575
v-145h-575v145z" />
    </font>
</defs>
</svg>
